<?xml version="1.0" encoding="UTF-8" standalone="no"?>
<!-- Created with Inkscape (http://www.inkscape.org/) -->

<svg
   xmlns:dc="http://purl.org/dc/elements/1.1/"
   xmlns:cc="http://creativecommons.org/ns#"
   xmlns:rdf="http://www.w3.org/1999/02/22-rdf-syntax-ns#"
   xmlns:svg="http://www.w3.org/2000/svg"
   xmlns="http://www.w3.org/2000/svg"
   xmlns:sodipodi="http://sodipodi.sourceforge.net/DTD/sodipodi-0.dtd"
   xmlns:inkscape="http://www.inkscape.org/namespaces/inkscape"
   version="1.1"
   id="svg815"
   width="120mm"
   height="120mm"
   viewBox="0 0 453.54332 453.54332"
   sodipodi:docname="logocreed.svg"
   inkscape:version="0.92.4 (5da689c313, 2019-01-14)">
  <metadata
     id="metadata821">
    <rdf:RDF>
      <cc:Work
         rdf:about="">
        <dc:format>image/svg+xml</dc:format>
        <dc:type
           rdf:resource="http://purl.org/dc/dcmitype/StillImage" />
        <dc:title></dc:title>
      </cc:Work>
    </rdf:RDF>
  </metadata>
  <defs
     id="defs819" />
  <sodipodi:namedview
     pagecolor="#ffffff"
     bordercolor="#666666"
     borderopacity="1"
     objecttolerance="10"
     gridtolerance="10"
     guidetolerance="10"
     inkscape:pageopacity="0"
     inkscape:pageshadow="2"
     inkscape:window-width="3240"
     inkscape:window-height="2019"
     id="namedview817"
     showgrid="false"
     inkscape:zoom="0.9988175"
     inkscape:cx="-644.20471"
     inkscape:cy="-260.39761"
     inkscape:window-x="-13"
     inkscape:window-y="-13"
     inkscape:window-maximized="1"
     inkscape:current-layer="svg815"
     units="mm" />
  <path
     style="fill:#000000;stroke-width:1.5294261"
     d="m 190.28918,433.12436 c -1.83096,-1.23638 -1.4838,-1.55387 1.71949,-1.57256 6.34295,-0.037 16.23232,-4.09062 26.17085,-10.72732 9.74314,-6.50622 11.17229,-7.16577 9.43456,-4.35404 -0.73617,1.19114 -0.39227,1.3553 1.0568,0.50443 15.27325,-8.968 41.47502,-30.08505 39.62485,-31.93523 -0.89427,-0.89427 -4.19299,1.12825 -8.75011,5.3649 -10.80659,10.04667 -29.47438,24.82695 -30.30625,23.99507 -0.39791,-0.39791 4.95652,-5.24772 11.89875,-10.77736 15.87573,-12.64533 25.65102,-22.56492 22.23665,-22.56492 -1.3624,0 -2.7172,-0.72033 -3.01066,-1.60073 -0.29347,-0.8804 -3.61997,0.99773 -7.39222,4.17362 l -6.85865,5.77433 5.78733,-6.52969 c 5.55636,-6.2691 6.22481,-9.46467 1.97983,-9.46467 -1.09648,0 -5.47061,4.64564 -9.72029,10.32363 -4.24969,5.678 -10.98845,13.42071 -14.97504,17.20604 -4.67817,4.44202 -2.01298,0.57579 7.51642,-10.90358 8.12061,-9.7823 14.76474,-18.21326 14.76474,-18.73547 0,-3.16724 -4.59712,1.20614 -19.49977,18.55072 -16.47544,19.17508 -35.88958,38.618 -38.56084,38.618 -0.74797,0 2.71843,-3.89009 7.70309,-8.64465 4.98466,-4.75456 9.06301,-9.45208 9.06301,-10.43893 0,-3.88057 -33.4724,-28.69118 -87.17727,-64.61805 -21.4502,-14.34952 -44.506303,-30.90703 -51.235778,-36.79448 -13.162424,-11.51547 -24.470817,-24.86877 -24.470817,-28.89589 0,-1.66808 4.04183,-4.17949 12.235409,-7.60253 6.729474,-2.81137 17.053101,-8.74257 22.941391,-13.18044 10.144806,-7.64589 10.680778,-8.35799 10.225269,-13.58508 -0.868745,-9.96903 3.349382,-16.30394 24.797736,-37.24202 l 20.36711,-19.88253 -6.6966,20.64725 c -13.40901,41.34338 -15.20815,54.13581 -9.4848,67.44012 1.79697,4.17717 3.52662,7.33545 3.84365,7.01841 0.31704,-0.31703 -0.54889,-3.263 -1.92429,-6.5466 -3.92552,-9.37168 -2.00638,-23.4783 7.15839,-52.61767 21.56241,-68.55783 21.53687,-68.45884 22.94443,-88.91488 2.03117,-29.51901 9.52291,-59.728053 20.53212,-82.792043 4.57344,-9.581273 6.81106,-12.039871 7.01565,-7.708552 0.0719,1.521718 1.27985,17.219839 2.6844,34.88471 l 2.55371,32.117945 -10.84707,26.00024 c -5.96589,14.30014 -13.79642,34.25915 -17.40115,44.35336 -3.60475,10.09421 -10.98498,27.20133 -16.40053,38.01581 -5.41554,10.8145 -9.61885,19.89031 -9.34066,20.16848 1.39113,1.39114 22.24755,-41.61641 29.4724,-60.7744 8.15284,-21.61867 22.58962,-55.65574 24.3552,-57.42133 0.50089,-0.50088 0.91071,3.16875 0.91071,8.15474 0,8.22427 -0.64805,10.03142 -6.9842,19.47643 -3.95197,5.89101 -10.1865,18.83203 -14.36018,29.80747 -4.0568,10.66807 -13.61396,32.02184 -21.23812,47.45283 -7.62415,15.43099 -14.29862,30.96713 -14.83211,34.52475 -2.16123,14.41208 6.83023,24.91389 41.35565,48.3023 13.67554,9.26418 27.56838,19.77718 30.87295,23.36223 3.30459,3.58505 10.41764,13.87163 15.80681,22.85907 5.38914,8.98745 10.01795,16.1213 10.28624,15.85303 0.26828,-0.2683 -3.99134,-9.80344 -9.46581,-21.18922 -11.04604,-22.97347 -13.42136,-25.60177 -39.08836,-43.25182 -21.83975,-15.0182 -35.75414,-26.30474 -39.75592,-32.24761 -7.22152,-10.7244 -3.87041,-21.76212 18.91099,-62.28813 3.71611,-6.61061 9.99862,-21.5747 13.96114,-33.25353 5.45473,-16.07695 9.03259,-23.83725 14.73114,-31.9517 4.13962,-5.89461 7.87566,-10.71747 8.30231,-10.71747 2.72055,0 17.02884,8.74931 27.25865,16.66831 7.34117,5.68286 13.54061,9.33193 15.85408,9.33193 2.08944,0 7.00374,-2.35251 10.92067,-5.2278 11.06244,-8.12057 29.61083,-19.24301 32.0907,-19.24301 1.23037,0 1.80126,0.43578 1.26865,0.96838 -0.53262,0.53261 1.06254,3.80176 3.54476,7.26478 2.48225,3.463 9.32536,17.19147 15.20692,30.50767 5.88156,13.31621 13.0422,28.11341 15.91253,32.88267 11.48998,19.09135 22.39188,45.15806 22.37459,53.49823 -0.0272,13.11388 -6.62996,22.67445 -20.46051,29.62604 -5.14511,2.58606 -13.20293,7.39039 -17.90622,10.67627 -9.04371,6.31823 -50.92621,49.32049 -55.62042,57.10745 -2.56372,4.2528 -2.3876,4.18337 2.40858,-0.94966 2.84599,-3.04589 10.33634,-9.69358 16.64522,-14.77268 6.30889,-5.07911 15.60015,-13.4889 20.64726,-18.68844 10.71815,-11.04188 23.32692,-20.03772 36.49638,-26.03867 10.8838,-4.95944 16.3736,-10.21412 20.73335,-19.84542 5.76544,-12.73671 4.15086,-21.03508 -10.26638,-52.7652 -28.25976,-62.19536 -35.93108,-78.51276 -39.31613,-83.6279 -2.95981,-4.47258 -3.82366,-7.75488 -3.82366,-14.52846 0,-4.89572 0.56985,-8.11046 1.29359,-7.29757 0.71146,0.79913 3.47215,7.99126 6.13483,15.98251 4.28874,12.87136 41.41388,89.31585 42.73465,87.99508 0.28519,-0.28517 -7.05572,-16.24334 -16.31311,-35.4626 -9.25738,-19.21924 -19.59032,-42.99705 -22.96208,-52.83958 -3.37174,-9.84251 -7.0775,-19.47789 -8.23498,-21.41196 -1.76762,-2.95351 -1.80326,-8.16873 -0.2226,-32.575567 1.03507,-15.982502 1.94406,-32.131605 2.01996,-35.886897 0.12052,-5.965404 0.41683,-6.544934 2.34547,-4.588278 3.72328,3.777346 12.89159,26.955217 17.75213,44.878057 2.53698,9.354994 6.25383,27.332705 8.25968,39.950475 2.34257,14.73605 7.50391,36.36446 14.43062,60.47104 15.44109,53.73856 17.38916,62.69008 16.74238,76.93218 -0.47767,10.51848 -0.31377,11.47287 1.31529,7.6598 4.19433,-9.81745 1.39382,-30.39054 -9.32767,-68.52269 -3.92018,-13.94251 -4.18724,-17.70548 -0.80115,-11.28836 1.03671,1.96471 7.21057,9.07814 13.71972,15.80761 6.50913,6.72948 14.66381,16.30689 18.12153,21.28316 5.21586,7.50656 6.28673,10.28832 6.28673,16.33069 v 7.28294 l 11.48234,7.67986 c 6.31527,4.22391 15.59545,9.17957 20.62259,11.01256 12.45207,4.54025 13.18932,5.7713 7.86112,13.12667 -12.6611,17.47814 -30.3202,31.63946 -75.90756,60.87242 -42.45445,27.22397 -77.88099,52.75314 -101.70684,73.29221 l -11.47069,9.88832 -3.39661,-3.16693 -3.39663,-3.16696 -10.45548,4.67503 c -11.69774,5.23047 -22.87221,7.35911 -26.33993,5.0175 z m 91.76557,-47.80852 c 9.67362,-7.1699 29.97675,-21.13624 45.11807,-31.03629 61.08997,-39.94328 62.4613,-40.93706 78.5841,-56.9487 l 15.87764,-15.76815 -14.42138,-7.23276 c -7.93176,-3.97804 -17.31349,-9.52337 -20.84828,-12.32297 -4.09246,-3.24129 -6.42688,-4.31415 -6.42688,-2.95368 0,2.92297 6.63225,8.90157 17.51789,15.7914 l 9.10604,5.76348 -11.71583,11.05207 c -6.44372,6.07866 -18.45622,15.59784 -26.69445,21.15377 -15.58587,10.51121 -34.5948,19.32115 -33.06026,15.32221 1.15826,-3.01839 -4.0704,-2.73957 -8.72535,0.46528 -3.56105,2.45171 -3.65915,2.45171 -1.68247,0 1.92571,-2.38851 1.42726,-2.60351 -6.03549,-2.60351 -6.29785,0 -9.4481,0.91028 -13.95211,4.03156 -3.19965,2.21737 -5.81755,4.26623 -5.81755,4.55303 0,0.2868 1.70252,1.63699 3.78338,3.00041 3.55684,2.33054 4.12923,2.27568 9.55892,-0.91599 l 5.77552,-3.39496 -4.43495,3.74288 -4.43495,3.74287 4.87159,3.46888 c 2.67938,1.90788 5.93559,3.06059 7.23602,2.56157 3.90416,-1.49816 54.20663,-34.486 63.7302,-41.7936 4.86736,-3.7348 12.97526,-10.61006 18.01757,-15.27836 14.02882,-12.9882 13.0692,-7.92275 -1.08124,5.70748 -8.46314,8.15201 -22.66545,18.72718 -44.35335,33.02593 -32.58198,21.48114 -59.05064,40.33705 -60.96068,43.42756 -0.58647,0.94893 -12.87111,10.54685 -27.2992,21.32869 -14.42809,10.78184 -27.90741,21.4127 -29.95404,23.62411 -2.67058,2.8856 -4.61029,3.73858 -6.87043,3.02124 -2.76099,-0.87631 -2.89607,-0.69448 -1.09568,1.47488 1.83534,2.21144 3.7032,1.12218 17.5764,-10.24987 8.53756,-6.99836 23.43761,-18.59055 33.11123,-25.76046 z m -73.41245,12.21259 c -16.5244,-14.80268 -51.16281,-40.67216 -85.02758,-63.50229 -35.391516,-23.8594 -53.414395,-37.81549 -60.342787,-46.7267 -5.922641,-7.61765 -1.721079,-6.37233 7.328352,2.17207 13.746589,12.9794 20.124418,17.71891 58.025295,43.11982 34.79293,23.31798 51.44265,35.62597 76.52453,56.56935 6.91176,5.77131 13.31745,10.02937 14.23491,9.46235 1.98626,-1.2276 -4.32585,-7.07485 -24.253,-22.4669 l -14.27499,-11.02623 5.86315,-2.02634 c 3.22473,-1.11449 7.14373,-3.30409 8.7089,-4.86579 2.77308,-2.76695 2.61685,-2.82635 -6.1177,-2.32627 l -8.96346,0.51319 7.64713,-2.03155 c 4.20592,-1.11733 6.27064,-2.16764 4.58827,-2.33396 -1.73749,-0.17179 -2.22887,-0.63705 -1.13754,-1.07704 3.09054,-1.24598 0.55456,-3.57012 -3.92336,-3.5956 -3.17545,-0.0181 -3.59449,-0.35292 -1.8343,-1.46574 1.6181,-1.02301 1.80634,-1.91734 0.64751,-3.07617 -1.15881,-1.15882 -3.96485,-1.13392 -9.65165,0.0857 -4.4098,0.94573 -8.42916,1.30818 -8.9319,0.80542 -0.50275,-0.50273 0.0609,-0.91791 1.2526,-0.92261 1.19168,-0.005 4.76522,-0.73014 7.94118,-1.61212 6.38239,-1.77241 6.30477,-4.48385 -0.12939,-4.52046 -2.79643,-0.0159 -3.46989,-0.43291 -2.101,-1.3009 3.68152,-2.33447 -21.98407,-21.62341 -28.75228,-21.60871 -3.05927,0.006 -1.74104,1.27425 6.41259,6.16643 9.5386,5.72314 12.99344,8.62304 11.68399,9.80728 -0.29452,0.26635 -2.94434,0.93472 -5.88849,1.48525 -5.31658,0.99418 -5.32699,0.98535 -1.52943,-1.29657 l 3.82357,-2.29753 -4.58828,-0.0956 c -2.52355,-0.0526 -11.08493,-0.72386 -19.02526,-1.4917 l -14.43698,-1.3961 -14.62212,-9.99605 c -14.580267,-9.96747 -35.521811,-27.4491 -39.238867,-32.75596 -1.750627,-2.49938 -1.277514,-3.12857 4.446424,-5.91332 7.641364,-3.71759 23.587222,-17.6743 21.129343,-18.4936 -0.949086,-0.31636 -4.530619,1.64639 -7.95895,4.36169 -3.428331,2.71528 -12.203,8.00219 -19.499235,11.74865 -7.296249,3.74647 -13.533524,7.06915 -13.860607,7.38372 -1.219152,1.17254 23.948717,25.79945 35.006789,34.25436 6.308882,4.82373 24.547293,17.33915 40.529793,27.81208 30.38087,19.90779 60.88052,41.65734 76.47129,54.5323 10.80968,8.92671 13.80257,8.88142 3.82357,-0.0578 z m -40.05184,-60.3398 c 1.10405,-0.44181 2.42318,-0.38748 2.93141,0.12067 0.50821,0.50821 -0.39511,0.86969 -2.00737,0.80329 -1.78171,-0.0734 -2.1441,-0.4358 -0.92404,-0.92402 z m 55.55034,43.43445 c -4.13387,-6.68874 -19.23108,-20.97772 -22.16428,-20.97772 -6.86167,0 -6.73463,2.01031 0.35018,5.54082 4.07962,2.03297 11.12697,7.66535 15.66076,12.51641 4.53378,4.85105 8.4938,8.65895 8.80006,8.46199 0.30623,-0.19694 -0.88478,-2.69062 -2.64672,-5.5415 z m 51.79625,2.1372 c 0,-1.42405 -20.27628,-18.52664 -21.96458,-18.52664 -0.53724,0 -0.97682,1.00111 -0.97682,2.2247 0,1.22359 4.29156,5.69716 9.53679,9.94127 9.04253,7.31665 13.40461,9.38652 13.40461,6.36067 z m 11.08833,-6.81638 c 1.47208,-1.15841 2.6765,-2.79524 2.6765,-3.63737 0,-2.00785 -21.91894,-18.77887 -24.5431,-18.77887 -2.36683,0 -9.10427,5.9884 -9.10427,8.09211 0,0.79266 1.37743,1.081 3.06096,0.64074 1.68353,-0.44024 2.67201,-0.17113 2.19662,0.59807 -1.25183,2.02551 3.62234,6.40442 6.0793,5.46161 1.47972,-0.56783 1.84215,0.11731 1.25329,2.36916 -0.7164,2.73952 -0.27747,3.06266 3.24534,2.38923 3.17617,-0.60716 3.71748,-0.34944 2.45671,1.16969 -1.87229,2.25598 0.5792,4.55563 3.15764,2.96207 0.86202,-0.53276 1.46875,-0.40132 1.34831,0.29209 -0.70959,4.08483 1.54861,3.65419 8.1727,-1.55853 z m -44.92367,-21.36992 c 2.59127,-9.93933 6.03289,-19.91883 7.64803,-22.17668 3.45245,-4.8263 18.4414,-19.15849 37.68559,-36.03435 13.39566,-11.74709 35.8417,-35.61955 35.88985,-38.17059 0.0315,-1.66754 -7.89034,4.6614 -27.24942,21.77031 -16.77257,14.82305 -21.86824,18.14744 -11.2806,7.35942 10.48468,-10.68312 7.32405,-10.27513 -3.75287,0.48443 -10.07736,9.78863 -9.20299,8.04428 3.96034,-7.90076 l 6.77142,-8.2024 -10.50766,9.94127 c -12.09621,11.44421 -11.83256,10.91481 5.27346,-10.58791 10.62119,-13.35114 11.68346,-15.1505 6.53859,-11.07568 -6.40802,5.07525 -19.79854,19.77359 -30.53391,33.51611 -11.10915,14.22098 -20.63413,30.92689 -24.92548,43.71691 l -4.18593,12.47585 -1.78307,-6.87533 c -5.02637,-19.38112 -10.19101,-34.05973 -16.17854,-45.98163 -6.88237,-13.70361 -21.28266,-33.97943 -29.79605,-41.95328 -4.40886,-4.12945 -4.21255,-3.59415 1.96328,5.35299 3.77408,5.4677 9.43492,14.07072 12.57959,19.11783 l 5.7176,9.17656 -11.7591,-12.23541 c -6.4675,-6.72948 -10.36426,-10.10955 -8.65947,-7.5113 1.70479,2.59826 4.16411,5.60756 5.46514,6.68734 2.59417,2.15295 3.29373,5.4017 0.83611,3.88281 -2.48949,-1.53859 -1.74319,0.21678 1.0583,2.48923 1.75832,1.42627 2.2196,1.4863 1.43916,0.18727 -1.93016,-3.21278 -0.17204,-2.13833 3.73601,2.2832 3.33933,3.7781 3.36584,3.90652 0.26659,1.29238 -4.80207,-4.05046 -4.30345,-1.24552 0.76471,4.30182 2.31326,2.53198 -0.95589,0.2063 -7.26477,-5.16816 l -11.47069,-9.77175 11.47069,12.04392 c 13.74212,14.42885 11.11221,12.76927 -12.08065,-7.62339 -9.58849,-8.43082 -19.89939,-17.39351 -22.91311,-19.91706 l -5.47951,-4.58828 5.32475,7.54898 c 5.75683,8.16156 18.01873,20.84122 42.2474,43.6868 20.33422,19.17342 24.46571,25.48524 27.29259,41.69576 1.2264,7.03272 3.17968,15.15331 4.34063,18.04579 1.16095,2.89248 2.60281,6.63554 3.20417,8.31791 1.59579,4.46441 2.8258,1.57595 8.34683,-19.60093 z m 65.98354,1.99197 9.36799,-6.36166 -9.58608,-6.75017 c -10.43152,-7.3455 -11.48704,-7.65849 -15.51608,-4.60115 -2.53538,1.92391 -2.46727,2.20668 1.09326,4.53962 2.08837,1.36836 4.85363,2.48794 6.145,2.48794 1.29138,0 2.34795,1.03236 2.34795,2.29413 0,3.34809 -2.76311,2.8149 -7.92605,-1.52942 -2.49922,-2.10296 -5.35154,-3.8217 -6.33849,-3.81944 -0.98694,0.002 -4.89152,2.83094 -8.67685,6.2859 -3.78533,3.45496 -5.73214,5.47849 -4.32624,4.49672 2.20306,-1.53843 2.43379,-1.31703 1.67022,1.6028 -0.73871,2.82489 -0.37121,3.25319 2.21184,2.57772 2.20776,-0.57734 3.04613,-0.0974 2.91804,1.67024 -0.0988,1.36417 0.68058,2.30826 1.73206,2.09796 1.05148,-0.21029 1.91178,0.59266 1.91178,1.78434 0,5.63847 8.29332,3.19235 22.97165,-6.77553 z m -16.62453,-2.96182 c 0.65721,-1.97165 2.75497,-2.3258 2.94415,-0.49707 0.0632,0.60986 -0.71119,1.38413 -1.72061,1.72061 -1.00942,0.33647 -1.56001,-0.21412 -1.22354,-1.22354 z m -79.29074,-0.26657 c -3.14731,-5.44304 -7.81203,-9.45766 -27.23379,-23.43834 -28.56509,-20.56248 -34.45401,-24.27025 -41.59875,-26.19129 l -7.34287,-1.9743 5.99026,-0.10324 c 3.29463,-0.0567 5.53823,-0.55523 4.98579,-1.10767 -0.55244,-0.55245 -7.65963,-1.06863 -15.79373,-1.14707 l -14.78927,-0.1427 -1.66722,-4.86086 c -2.56541,-7.47959 -3.85761,-7.61188 -2.23511,-0.22885 0.80004,3.64052 2.63159,7.54128 4.0701,8.66834 2.43037,1.90415 2.40928,2.0124 -0.2981,1.52943 -2.23039,-0.3979 -3.67438,-3.38878 -6.15821,-12.75519 -3.39429,-12.79973 -10.01245,-30.3672 -11.049497,-29.33015 -1.453383,1.45338 10.042507,44.56489 12.329327,46.23706 1.6644,1.21704 4.55178,1.39164 8.94822,0.54106 11.50806,-2.22645 24.37036,-1.53675 31.47609,1.68778 6.02834,2.73563 37.8903,26.86209 54.78382,41.48333 3.75627,3.25103 7.17074,5.91096 7.58774,5.91096 0.41699,0 -0.48518,-2.15027 -2.0048,-4.77837 z m -88.01063,-51.36267 c 1.90247,-0.36582 4.65543,-0.35193 6.11771,0.0309 1.46227,0.3828 -0.0944,0.68212 -3.45905,0.66514 -3.36474,-0.017 -4.56113,-0.33018 -2.65866,-0.69601 z m 190.75818,17.65379 c 11.63746,-5.58406 17.68637,-7.08117 39.36747,-9.7435 6.987,-0.85797 7.28434,-1.10295 8.85963,-7.29939 1.50879,-5.93494 6.52285,-23.3531 8.54539,-29.68562 0.47891,-1.49944 -1.29467,1.05909 -3.9413,5.68561 -2.64661,4.62651 -5.91725,12.36923 -7.26809,17.20604 -1.50176,5.37717 -3.29249,8.7942 -4.60871,8.7942 -1.74417,0 -1.69661,-0.45603 0.25075,-2.40339 2.23551,-2.23551 3.40531,-8.30259 1.60082,-8.30259 -0.44141,0 -1.42644,1.64089 -2.18893,3.64641 -1.17119,3.08045 -3.24245,4.01032 -13.34463,5.99101 l -11.95826,2.34459 10.70598,-0.44329 c 5.88829,-0.24382 8.64126,-0.14575 6.11771,0.21785 -24.4811,3.52767 -51.06249,15.91673 -69.58889,32.43401 -4.30029,3.83393 -2.37273,3.07936 9.80157,-3.837 8.33502,-4.73521 20.77729,-11.30744 27.64949,-14.60494 z m 14.13521,-12.90784 c -0.50822,-0.50821 -1.82735,-0.56254 -2.9314,-0.12067 -1.22007,0.48822 -0.85767,0.85063 0.92403,0.92402 1.61226,0.0664 2.51559,-0.29508 2.00737,-0.80329 z m 41.64972,-50.04834 c 8.13595,-15.7695 7.99821,-18.35978 -1.52345,-28.64886 l -7.70015,-8.32077 3.11187,6.43913 c 1.71154,3.54153 3.11188,8.5719 3.11188,11.17861 0,2.92446 0.61576,4.35891 1.60795,3.7457 0.88436,-0.54657 0.47774,1.64961 -0.9036,4.88038 -4.19744,9.81721 -4.16105,10.76719 0.14942,3.89973 2.26551,-3.60947 4.44734,-6.23446 4.84851,-5.8333 1.0567,1.05671 -5.96341,15.87435 -12.4773,26.33635 -5.14433,8.26234 -5.22665,8.56172 -1.00303,3.64803 2.53067,-2.94415 7.38074,-10.7404 10.77794,-17.325 z m -109.22805,12.55955 c 7.94919,-8.04129 19.09014,-27.4803 17.47704,-30.49438 -0.88287,-1.6497 -0.53331,-3.65391 1.02548,-5.87939 3.15429,-4.50338 3.8604,-10.86241 1.08804,-9.79856 -2.96473,1.13768 -2.59516,-0.28215 1.97641,-7.59316 3.79076,-6.06229 3.82574,-6.27707 0.55549,-3.41082 l -3.49001,3.05885 2.53227,-4.95058 c 2.31735,-4.5304 2.32892,-5.43728 0.13627,-10.68511 -2.85915,-6.84294 -7.5394,-12.12073 -13.49575,-15.21879 -3.98843,-2.07452 -5.01795,-1.98783 -11.98438,1.00905 -7.20589,3.09989 -7.99807,3.15007 -14.53961,0.92114 -8.91269,-3.03686 -10.4178,-2.17622 -21.16357,12.10157 -8.96879,11.91672 -12.91113,15.80928 -10.70879,10.57355 2.53878,-6.0355 1.6139,-8.47937 -4.61253,-12.18798 -5.72977,-3.41278 -6.44971,-3.51165 -9.58406,-1.31627 -2.94405,2.06208 -3.29752,3.41406 -2.69257,10.29885 0.66878,7.61122 0.605,7.77369 -1.60992,4.10158 -2.47332,-4.10051 -2.45982,-4.0533 3.50178,12.23541 3.53969,9.67137 3.55022,9.83747 0.38804,6.11771 l -3.25041,-3.82357 3.1997,5.78655 c 1.75983,3.1826 3.0821,7.31205 2.93836,9.17656 -0.27014,3.50407 14.41507,27.44811 19.57014,31.90885 4.30826,3.72799 7.57153,4.24873 23.32719,3.7224 13.95805,-0.46626 14.42084,-0.60101 19.41542,-5.65346 z m -35.0602,-15.31986 c 3.57513,-3.95048 1.36965,-5.56404 -2.67154,-1.95455 -3.25033,2.90314 -3.26434,2.89908 -2.16566,-0.62877 0.7632,-2.4506 0.26936,-4.4751 -1.59377,-6.53383 -2.66013,-2.93944 -2.61817,-2.94901 2.87188,-0.65512 7.15779,2.99072 26.46132,3.0113 31.66996,0.0338 5.00387,-2.86047 6.96514,-2.86396 4.59504,-0.008 -1.04347,1.2573 -1.51036,3.7653 -1.03755,5.57331 0.58891,2.25202 0.36431,2.79198 -0.71319,1.71449 -0.86505,-0.86506 -2.97871,-1.20518 -4.69703,-0.75583 -3.04359,0.79591 -3.03039,0.88948 0.51133,3.6263 3.63496,2.80885 3.63433,2.80911 -4.01159,1.7216 -8.50921,-1.2103 -12.89369,-1.22127 -20.32691,-0.0508 -4.84344,0.76265 -4.93484,0.68436 -2.43097,-2.08239 z M 232.3484,239.241 c -3.96869,-1.41874 -9.74417,-1.94841 -16.44133,-1.50785 -5.67799,0.37352 -10.32362,0.12924 -10.32362,-0.54302 0,-1.47126 3.07755,-2.40756 12.2354,-3.72242 11.21166,-1.60975 12.65313,-2.24211 10.64007,-4.6677 -4.63684,-5.58704 -11.76517,-19.10777 -10.48955,-19.89614 0.79094,-0.48883 4.78612,1.56892 8.87818,4.57276 4.09205,3.00383 9.11668,5.46153 11.16582,5.46153 2.06648,0 6.58878,-2.45068 10.15457,-5.50286 10.10238,-8.64727 12.11463,-5.91091 4.66757,6.34723 -3.39412,5.58682 -5.85211,10.47687 -5.46221,10.86677 0.3899,0.38991 5.33502,1.36405 10.98917,2.16478 11.07243,1.56806 13.48026,2.44061 12.24593,4.4378 -0.43463,0.70326 -4.84782,0.91072 -9.80707,0.46103 -5.93898,-0.53853 -11.28994,-0.044 -15.67603,1.44873 -5.80834,1.97678 -7.44085,1.98692 -12.7769,0.0794 z m 31.94887,-25.98206 c -2.43056,-3.16937 -5.24039,-7.32084 -6.24406,-9.22548 -3.57669,-6.78739 3.73562,-0.82373 8.0804,6.59007 5.09901,8.70081 4.01177,10.26115 -1.83634,2.63541 z m -153.72793,47.35608 c -3.28831,-6.51918 -6.34418,-14.2619 -6.79082,-17.20604 -0.76358,-5.0334 -0.53809,-4.85079 3.77678,3.05885 4.83264,8.85873 6.13262,9.38945 2.68941,1.09794 -1.12407,-2.70682 -2.50133,-6.98623 -3.0606,-9.50978 l -1.01682,-4.58828 3.15442,5.35299 c 1.73494,2.94414 2.76515,4.08462 2.28936,2.53441 -2.45018,-7.98313 -2.4874,-10.41828 -0.22848,-14.94636 1.3467,-2.69956 2.20209,-5.15476 1.90084,-5.456 -0.30125,-0.30125 -3.40132,2.54806 -6.88905,6.33179 -7.220363,7.83317 -7.702361,10.98027 -3.41127,22.2735 2.52876,6.65516 11.84038,22.91003 13.12404,22.91003 0.24252,0 -2.24949,-5.33387 -5.53781,-11.85305 z m 231.31972,-30.47381 c -1.80294,-3.10047 -2.23833,-2.10809 -0.76246,1.73794 0.5245,1.36685 1.27583,2.16301 1.66961,1.76923 0.39378,-0.39378 -0.0138,-1.97201 -0.90715,-3.50717 z M 226.99541,147.78778 c -5.4677,-4.55459 -13.89866,-10.40838 -18.73547,-13.00839 -9.2231,-4.95787 -10.11133,-6.13914 -6.72771,-8.94728 2.64261,-2.19319 10.66653,3.05433 26.24551,17.16416 8.23179,7.45551 11.61266,9.6782 12.51323,8.22666 1.39715,-2.25187 21.93104,-19.0327 28.47304,-23.26887 3.973,-2.57268 4.48602,-2.59452 6.79137,-0.28917 1.37156,1.37156 2.19058,2.73175 1.82006,3.02266 -0.37053,0.29093 -4.10262,2.4947 -8.29356,4.89729 -4.19093,2.40257 -12.72458,8.03098 -18.96364,12.50758 -6.23908,4.4766 -11.75728,8.10263 -12.26266,8.05784 -0.5054,-0.0448 -5.39247,-3.8079 -10.86017,-8.36248 z m -4.44973,-12.74188 -12.86158,-11.90174 6.86834,-5.74122 c 3.77759,-3.15767 9.73735,-7.4521 13.24393,-9.54317 l 6.3756,-3.80194 v 21.49865 c 0,11.82425 -0.17206,21.47446 -0.38236,21.44489 -0.2103,-0.0295 -6.17007,-5.40953 -13.24393,-11.95547 z m 18.21457,-9.35703 c 0,-16.86431 0.42178,-21.401 1.91178,-20.56312 6.32656,3.5577 22.55903,16.84201 22.55903,18.46182 0,1.83833 -8.71496,10.59457 -19.50018,19.59253 l -4.97063,4.14695 z m 32.88266,-4.39681 c -8.04804,-8.87876 -22.66145,-20.41226 -30.86913,-24.363176 -4.76404,-2.293252 -5.10989,-2.201502 -16.05897,4.260646 -6.15455,3.6324 -15.83573,11.30418 -21.51372,17.04842 -9.72258,9.83598 -10.32242,10.19976 -10.30275,6.24813 0.0453,-9.10721 1.59758,-10.79409 22.09507,-24.01133 11.14568,-7.18697 20.93634,-13.067231 21.75703,-13.067231 1.75352,0 36.66958,23.516311 40.72749,27.430381 1.98264,1.91234 2.63839,4.42317 2.29414,8.78419 l -0.48203,6.10644 z m 10.23943,0.52754 c 0.0312,-2.52355 0.37394,-3.37076 0.76171,-1.88267 0.38777,1.48808 0.36228,3.55281 -0.0567,4.58827 -0.41888,1.03547 -0.73614,-0.18204 -0.70497,-2.7056 z m -17.23761,-3.44121 -3.70781,-4.20592 4.20593,3.70781 c 2.31325,2.0393 4.20592,3.93197 4.20592,4.20592 0,1.1995 -1.23853,0.22326 -4.70404,-3.70781 z m -54.94358,-2.48923 c 0,-0.31758 1.20442,-1.52201 2.6765,-2.67649 2.42576,-1.90241 2.47985,-1.84831 0.57745,0.57745 -1.998,2.54764 -3.25395,3.35782 -3.25395,2.09904 z m 46.50218,-4.39318 -2.91354,-3.44121 3.44121,2.91354 c 1.89267,1.60244 3.44121,3.15099 3.44121,3.44121 0,1.22392 -1.23087,0.32034 -3.96888,-2.91354 z m -66.40053,-5.8628 c -0.009,-1.19168 -1.38519,-17.640824 -3.05886,-36.553661 -3.53508,-39.947172 -3.46467,-38.260766 -1.5974,-38.260766 0.79508,0 1.70339,3.269149 2.01846,7.264774 0.56779,7.200798 0.57526,7.187492 0.84851,-1.510247 0.2687,-8.552979 0.44015,-8.879083 6.77574,-12.887846 7.98467,-5.052199 29.45934,-15.1999258 35.1768,-16.6225675 l 4.20592,-1.0465404 V 42.897824 79.779338 l -17.97076,11.683454 c -9.88392,6.425899 -19.00312,11.755518 -20.26489,11.843578 -1.88074,0.13123 -2.73797,-4.938528 -4.7571,-28.13426 -1.35463,-15.56191 -2.55905,-25.424109 -2.6765,-21.916003 -0.11746,3.508121 0.52036,16.825828 1.41732,29.59493 0.89698,12.769087 1.2411,23.606293 0.76472,24.082673 -0.47637,0.47639 -0.87326,-0.10889 -0.88196,-1.30053 z m 92.35535,-24.363768 0.7881,-26.744554 -2.05438,24.95199 c -1.12991,13.723601 -2.29668,25.180312 -2.59282,25.459362 -0.29615,0.27904 -9.31352,-5.249508 -20.03862,-12.285681 L 240.76025,79.857476 v -36.75477 c 0,-22.528568 0.56977,-36.7547697 1.47205,-36.7547697 3.05707,0 19.02378,6.6313317 27.34515,11.3570587 16.82748,9.556359 15.50235,7.62656 15.82108,23.04056 l 0.28495,13.779303 0.894,-13.000122 c 0.61281,-8.91114 1.30767,-12.128471 2.20919,-10.228878 1.28461,2.706793 -3.12049,74.421992 -4.66631,75.967812 -0.41267,0.41267 -0.39566,-11.284743 0.0378,-25.994258 z M 246.0232,103.38211 c -2.85088,-2.28403 -2.83213,-2.31226 0.47239,-0.71089 1.89267,0.91718 3.44121,1.9875 3.44121,2.3785 0,1.17035 -0.79317,0.83238 -3.9136,-1.66761 z m -12.23541,-2.89009 c 3.40056,-2.724414 6.37217,-3.057722 7.72634,-0.866608 0.52516,0.849718 -0.0528,1.133058 -1.31965,0.646938 -1.23974,-0.475728 -3.85639,-0.0858 -5.81479,0.8666 -3.39635,1.65164 -3.42366,1.62177 -0.5919,-0.64693 z m 4.67832,-16.143354 c -2.49359,-1.071531 -2.58093,-1.334301 -0.47263,-1.421938 1.42243,-0.05919 3.0116,0.580754 3.53148,1.421938 1.0869,1.758657 1.03375,1.758657 -3.05885,0 z"
     id="path825"
     inkscape:connector-curvature="0" />
</svg>
