  0
SECTION
  2
HEADER
  9
$ACADVER
  1
AC1014
  9
$HANDSEED
  5
FFFF
  9
$MEASUREMENT
 70
     1
  0
ENDSEC
  0
SECTION
  2
TABLES
  0
TABLE
  2
VPORT
  5
8
330
0
100
AcDbSymbolTable
 70
     4
  0
VPORT
  5
2E
330
8
100
AcDbSymbolTableRecord
100
AcDbViewportTableRecord
  2
*ACTIVE
 70
     0
 10
0.0
 20
0.0
 11
1.0
 21
1.0
 12
210.0
 22
148.5
 13
0.0
 23
0.0
 14
10.0
 24
10.0
 15
10.0
 25
10.0
 16
0.0
 26
0.0
 36
1.0
 17
0.0
 27
0.0
 37
0.0
 40
341.0
 41
1.24
 42
50.0
 43
0.0
 44
0.0
 50
0.0
 51
0.0
 71
     0
 72
   100
 73
     1
 74
     3
 75
     0
 76
     0
 77
     0
 78
     0
  0
ENDTAB
  0
TABLE
  2
LTYPE
  5
5
330
0
100
AcDbSymbolTable
 70
     1
  0
LTYPE
  5
14
330
5
100
AcDbSymbolTableRecord
100
AcDbLinetypeTableRecord
  2
BYBLOCK
 70
     0
  3

 72
    65
 73
     0
 40
0.0
  0
LTYPE
  5
15
330
5
100
AcDbSymbolTableRecord
100
AcDbLinetypeTableRecord
  2
BYLAYER
 70
     0
  3

 72
    65
 73
     0
 40
0.0
  0
LTYPE
  5
16
330
5
100
AcDbSymbolTableRecord
100
AcDbLinetypeTableRecord
  2
CONTINUOUS
 70
     0
  3
Solid line
 72
    65
 73
     0
 40
0.0
  0
ENDTAB
  0
TABLE
  2
LAYER
  5
2
100
AcDbSymbolTable
 70
1
  0
LAYER
  5
50
100
AcDbSymbolTableRecord
100
AcDbLayerTableRecord
  2
0
 70
0
  6
CONTINUOUS
  0
ENDTAB
  0
TABLE
  2
STYLE
  5
3
330
0
100
AcDbSymbolTable
 70
     1
  0
STYLE
  5
11
330
3
100
AcDbSymbolTableRecord
100
AcDbTextStyleTableRecord
  2
STANDARD
 70
     0
 40
0.0
 41
1.0
 50
0.0
 71
     0
 42
2.5
  3
txt
  4

  0
ENDTAB
  0
TABLE
  2
VIEW
  5
6
330
0
100
AcDbSymbolTable
 70
     0
  0
ENDTAB
  0
TABLE
  2
UCS
  5
7
330
0
100
AcDbSymbolTable
 70
     0
  0
ENDTAB
  0
TABLE
  2
APPID
  5
9
330
0
100
AcDbSymbolTable
 70
     2
  0
APPID
  5
12
330
9
100
AcDbSymbolTableRecord
100
AcDbRegAppTableRecord
  2
ACAD
 70
     0
  0
ENDTAB
  0
TABLE
  2
DIMSTYLE
  5
A
330
0
100
AcDbSymbolTable
 70
     1
  0
DIMSTYLE
105
27
330
A
100
AcDbSymbolTableRecord
100
AcDbDimStyleTableRecord
  2
ISO-25
 70
     0
  3

  4

  5

  6

  7

 40
1.0
 41
2.5
 42
0.625
 43
3.75
 44
1.25
 45
0.0
 46
0.0
 47
0.0
 48
0.0
140
2.5
141
2.5
142
0.0
143
0.03937007874016
144
1.0
145
0.0
146
1.0
147
0.625
 71
     0
 72
     0
 73
     0
 74
     0
 75
     0
 76
     0
 77
     1
 78
     8
170
     0
171
     3
172
     1
173
     0
174
     0
175
     0
176
     0
177
     0
178
     0
270
     2
271
     2
272
     2
273
     2
274
     3
340
11
275
     0
280
     0
281
     0
282
     0
283
     0
284
     8
285
     0
286
     0
287
     3
288
     0
  0
ENDTAB
  0
TABLE
  2
BLOCK_RECORD
  5
1
330
0
100
AcDbSymbolTable
 70
     1
  0
BLOCK_RECORD
  5
1F
330
1
100
AcDbSymbolTableRecord
100
AcDbBlockTableRecord
  2
*MODEL_SPACE
  0
BLOCK_RECORD
  5
1B
330
1
100
AcDbSymbolTableRecord
100
AcDbBlockTableRecord
  2
*PAPER_SPACE
  0
ENDTAB
  0
ENDSEC
  0
SECTION
  2
BLOCKS
  0
BLOCK
  5
20
330
1F
100
AcDbEntity
  8
0
100
AcDbBlockBegin
  2
*MODEL_SPACE
 70
     0
 10
0.0
 20
0.0
 30
0.0
  3
*MODEL_SPACE
  1

  0
ENDBLK
  5
21
330
1F
100
AcDbEntity
  8
0
100
AcDbBlockEnd
  0
BLOCK
  5
1C
330
1B
100
AcDbEntity
 67
     1
  8
0
100
AcDbBlockBegin
  2
*PAPER_SPACE
  1

  0
ENDBLK
  5
1D
330
1B
100
AcDbEntity
 67
     1
  8
0
100
AcDbBlockEnd
  0
ENDSEC
  0
SECTION
  2
ENTITIES
  0
SPLINE
  5
100
100
AcDbEntity
  8
0
 62
7
100
AcDbSpline
 70
8
 71
3
 72
8
 73
4
 74
0
 40
0
 40
0
 40
0
 40
0
 40
1
 40
1
 40
1
 40
1
 10
50.347344
 20
5.402513
 30
0.0
 10
49.862903
 20
5.729638
 30
0.0
 10
49.954755
 20
5.813641
 30
0.0
 10
50.802292
 20
5.818586
 30
0.0
  0
SPLINE
  5
101
100
AcDbEntity
  8
0
 62
7
100
AcDbSpline
 70
8
 71
3
 72
8
 73
4
 74
0
 40
0
 40
0
 40
0
 40
0
 40
1
 40
1
 40
1
 40
1
 10
50.802292
 20
5.818586
 30
0.0
 10
52.480531
 20
5.828376
 30
0.0
 10
55.097094
 20
6.900896
 30
0.0
 10
57.726663
 20
8.656856
 30
0.0
  0
SPLINE
  5
102
100
AcDbEntity
  8
0
 62
7
100
AcDbSpline
 70
8
 71
3
 72
8
 73
4
 74
0
 40
0
 40
0
 40
0
 40
0
 40
1
 40
1
 40
1
 40
1
 10
57.726663
 20
8.656856
 30
0.0
 10
60.304535
 20
10.378293
 30
0.0
 10
60.682665
 20
10.552799
 30
0.0
 10
60.222890
 20
9.808862
 30
0.0
  0
SPLINE
  5
103
100
AcDbEntity
  8
0
 62
7
100
AcDbSpline
 70
8
 71
3
 72
8
 73
4
 74
0
 40
0
 40
0
 40
0
 40
0
 40
1
 40
1
 40
1
 40
1
 10
60.222890
 20
9.808862
 30
0.0
 10
60.028112
 20
9.493707
 30
0.0
 10
60.119102
 20
9.450273
 30
0.0
 10
60.502502
 20
9.675399
 30
0.0
  0
SPLINE
  5
104
100
AcDbEntity
  8
0
 62
7
100
AcDbSpline
 70
8
 71
3
 72
8
 73
4
 74
0
 40
0
 40
0
 40
0
 40
0
 40
1
 40
1
 40
1
 40
1
 10
60.502502
 20
9.675399
 30
0.0
 10
64.543549
 20
12.048182
 30
0.0
 10
71.476101
 20
17.635401
 30
0.0
 10
70.986577
 20
18.124928
 30
0.0
  0
SPLINE
  5
105
100
AcDbEntity
  8
0
 62
7
100
AcDbSpline
 70
8
 71
3
 72
8
 73
4
 74
0
 40
0
 40
0
 40
0
 40
0
 40
1
 40
1
 40
1
 40
1
 10
70.986577
 20
18.124928
 30
0.0
 10
70.749968
 20
18.361537
 30
0.0
 10
69.877181
 20
17.826412
 30
0.0
 10
68.671443
 20
16.705465
 30
0.0
  0
SPLINE
  5
106
100
AcDbEntity
  8
0
 62
7
100
AcDbSpline
 70
8
 71
3
 72
8
 73
4
 74
0
 40
0
 40
0
 40
0
 40
0
 40
1
 40
1
 40
1
 40
1
 10
68.671443
 20
16.705465
 30
0.0
 10
65.812200
 20
14.047284
 30
0.0
 10
60.873014
 20
10.136668
 30
0.0
 10
60.652915
 20
10.356770
 30
0.0
  0
SPLINE
  5
107
100
AcDbEntity
  8
0
 62
7
100
AcDbSpline
 70
8
 71
3
 72
8
 73
4
 74
0
 40
0
 40
0
 40
0
 40
0
 40
1
 40
1
 40
1
 40
1
 10
60.652915
 20
10.356770
 30
0.0
 10
60.547635
 20
10.462050
 30
0.0
 10
61.964327
 20
11.745229
 30
0.0
 10
63.801126
 20
13.208279
 30
0.0
  0
SPLINE
  5
108
100
AcDbEntity
  8
0
 62
7
100
AcDbSpline
 70
8
 71
3
 72
8
 73
4
 74
0
 40
0
 40
0
 40
0
 40
0
 40
1
 40
1
 40
1
 40
1
 10
63.801126
 20
13.208279
 30
0.0
 10
68.001579
 20
16.554023
 30
0.0
 10
70.587958
 20
19.178581
 30
0.0
 10
69.684573
 20
19.178581
 30
0.0
  0
SPLINE
  5
109
100
AcDbEntity
  8
0
 62
7
100
AcDbSpline
 70
8
 71
3
 72
8
 73
4
 74
0
 40
0
 40
0
 40
0
 40
0
 40
1
 40
1
 40
1
 40
1
 10
69.684573
 20
19.178581
 30
0.0
 10
69.324104
 20
19.178581
 30
0.0
 10
68.965647
 20
19.369168
 30
0.0
 10
68.888002
 20
19.602107
 30
0.0
  0
SPLINE
  5
10a
100
AcDbEntity
  8
0
 62
7
100
AcDbSpline
 70
8
 71
3
 72
8
 73
4
 74
0
 40
0
 40
0
 40
0
 40
0
 40
1
 40
1
 40
1
 40
1
 10
68.888002
 20
19.602107
 30
0.0
 10
68.810355
 20
19.835047
 30
0.0
 10
67.930218
 20
19.338125
 30
0.0
 10
66.932144
 20
18.497837
 30
0.0
  0
LINE
  5
10b
100
AcDbEntity
  8
0
 62
7
100
AcDbLine
 10
66.932144
 20
18.497837
 30
0.0
 11
65.117460
 21
16.970046
 31
0.0
  0
LINE
  5
10c
100
AcDbEntity
  8
0
 62
7
100
AcDbLine
 10
65.117460
 20
16.970046
 30
0.0
 11
66.648691
 21
18.697693
 31
0.0
  0
SPLINE
  5
10d
100
AcDbEntity
  8
0
 62
7
100
AcDbSpline
 70
8
 71
3
 72
8
 73
4
 74
0
 40
0
 40
0
 40
0
 40
0
 40
1
 40
1
 40
1
 40
1
 10
66.648691
 20
18.697693
 30
0.0
 10
68.118811
 20
20.356392
 30
0.0
 10
68.295672
 20
21.201887
 30
0.0
 10
67.172521
 20
21.201887
 30
0.0
  0
SPLINE
  5
10e
100
AcDbEntity
  8
0
 62
7
100
AcDbSpline
 70
8
 71
3
 72
8
 73
4
 74
0
 40
0
 40
0
 40
0
 40
0
 40
1
 40
1
 40
1
 40
1
 10
67.172521
 20
21.201887
 30
0.0
 10
66.882410
 20
21.201887
 30
0.0
 10
65.725088
 20
19.972728
 30
0.0
 10
64.600694
 20
18.470426
 30
0.0
  0
SPLINE
  5
10f
100
AcDbEntity
  8
0
 62
7
100
AcDbSpline
 70
8
 71
3
 72
8
 73
4
 74
0
 40
0
 40
0
 40
0
 40
0
 40
1
 40
1
 40
1
 40
1
 10
64.600694
 20
18.470426
 30
0.0
 10
63.476297
 20
16.968122
 30
0.0
 10
61.693333
 20
14.919530
 30
0.0
 10
60.638548
 20
13.917995
 30
0.0
  0
SPLINE
  5
110
100
AcDbEntity
  8
0
 62
7
100
AcDbSpline
 70
8
 71
3
 72
8
 73
4
 74
0
 40
0
 40
0
 40
0
 40
0
 40
1
 40
1
 40
1
 40
1
 10
60.638548
 20
13.917995
 30
0.0
 10
59.400782
 20
12.742711
 30
0.0
 10
60.105947
 20
13.765651
 30
0.0
 10
62.627267
 20
16.802900
 30
0.0
  0
SPLINE
  5
111
100
AcDbEntity
  8
0
 62
7
100
AcDbSpline
 70
8
 71
3
 72
8
 73
4
 74
0
 40
0
 40
0
 40
0
 40
0
 40
1
 40
1
 40
1
 40
1
 10
62.627267
 20
16.802900
 30
0.0
 10
64.775845
 20
19.391134
 30
0.0
 10
66.533771
 20
21.621825
 30
0.0
 10
66.533771
 20
21.759993
 30
0.0
  0
SPLINE
  5
112
100
AcDbEntity
  8
0
 62
7
100
AcDbSpline
 70
8
 71
3
 72
8
 73
4
 74
0
 40
0
 40
0
 40
0
 40
0
 40
1
 40
1
 40
1
 40
1
 10
66.533771
 20
21.759993
 30
0.0
 10
66.533771
 20
22.597992
 30
0.0
 10
65.317450
 20
21.440869
 30
0.0
 10
61.374457
 20
16.851782
 30
0.0
  0
SPLINE
  5
113
100
AcDbEntity
  8
0
 62
7
100
AcDbSpline
 70
8
 71
3
 72
8
 73
4
 74
0
 40
0
 40
0
 40
0
 40
0
 40
1
 40
1
 40
1
 40
1
 10
61.374457
 20
16.851782
 30
0.0
 10
57.015331
 20
11.778376
 30
0.0
 10
51.878673
 20
6.634103
 30
0.0
 10
51.171902
 20
6.634103
 30
0.0
  0
SPLINE
  5
114
100
AcDbEntity
  8
0
 62
7
100
AcDbSpline
 70
8
 71
3
 72
8
 73
4
 74
0
 40
0
 40
0
 40
0
 40
0
 40
1
 40
1
 40
1
 40
1
 10
51.171902
 20
6.634103
 30
0.0
 10
50.974002
 20
6.634103
 30
0.0
 10
51.891153
 20
7.663356
 30
0.0
 10
53.210011
 20
8.921334
 30
0.0
  0
SPLINE
  5
115
100
AcDbEntity
  8
0
 62
7
100
AcDbSpline
 70
8
 71
3
 72
8
 73
4
 74
0
 40
0
 40
0
 40
0
 40
0
 40
1
 40
1
 40
1
 40
1
 10
53.210011
 20
8.921334
 30
0.0
 10
54.528869
 20
10.179311
 30
0.0
 10
55.607933
 20
11.422196
 30
0.0
 10
55.607933
 20
11.683300
 30
0.0
  0
SPLINE
  5
116
100
AcDbEntity
  8
0
 62
7
100
AcDbSpline
 70
8
 71
3
 72
8
 73
4
 74
0
 40
0
 40
0
 40
0
 40
0
 40
1
 40
1
 40
1
 40
1
 10
55.607933
 20
11.683300
 30
0.0
 10
55.607933
 20
12.710035
 30
0.0
 10
46.751694
 20
19.274508
 30
0.0
 10
32.542281
 20
28.780159
 30
0.0
  0
SPLINE
  5
117
100
AcDbEntity
  8
0
 62
7
100
AcDbSpline
 70
8
 71
3
 72
8
 73
4
 74
0
 40
0
 40
0
 40
0
 40
0
 40
1
 40
1
 40
1
 40
1
 10
32.542281
 20
28.780159
 30
0.0
 10
26.866915
 20
32.576803
 30
0.0
 10
20.766655
 20
36.957644
 30
0.0
 10
18.986148
 20
38.515365
 30
0.0
  0
SPLINE
  5
118
100
AcDbEntity
  8
0
 62
7
100
AcDbSpline
 70
8
 71
3
 72
8
 73
4
 74
0
 40
0
 40
0
 40
0
 40
0
 40
1
 40
1
 40
1
 40
1
 10
18.986148
 20
38.515365
 30
0.0
 10
15.503590
 20
41.562166
 30
0.0
 10
12.511578
 20
45.095227
 30
0.0
 10
12.511578
 20
46.160736
 30
0.0
  0
SPLINE
  5
119
100
AcDbEntity
  8
0
 62
7
100
AcDbSpline
 70
8
 71
3
 72
8
 73
4
 74
0
 40
0
 40
0
 40
0
 40
0
 40
1
 40
1
 40
1
 40
1
 10
12.511578
 20
46.160736
 30
0.0
 10
12.511578
 20
46.602082
 30
0.0
 10
13.580979
 20
47.266559
 30
0.0
 10
15.748863
 20
48.172238
 30
0.0
  0
SPLINE
  5
11a
100
AcDbEntity
  8
0
 62
7
100
AcDbSpline
 70
8
 71
3
 72
8
 73
4
 74
0
 40
0
 40
0
 40
0
 40
0
 40
1
 40
1
 40
1
 40
1
 10
15.748863
 20
48.172238
 30
0.0
 10
17.529370
 20
48.916080
 30
0.0
 10
20.260829
 20
50.485376
 30
0.0
 10
21.818773
 20
51.659563
 30
0.0
  0
SPLINE
  5
11b
100
AcDbEntity
  8
0
 62
7
100
AcDbSpline
 70
8
 71
3
 72
8
 73
4
 74
0
 40
0
 40
0
 40
0
 40
0
 40
1
 40
1
 40
1
 40
1
 10
21.818773
 20
51.659563
 30
0.0
 10
24.502919
 20
53.682538
 30
0.0
 10
24.644728
 20
53.870948
 30
0.0
 10
24.524208
 20
55.253949
 30
0.0
  0
SPLINE
  5
11c
100
AcDbEntity
  8
0
 62
7
100
AcDbSpline
 70
8
 71
3
 72
8
 73
4
 74
0
 40
0
 40
0
 40
0
 40
0
 40
1
 40
1
 40
1
 40
1
 10
24.524208
 20
55.253949
 30
0.0
 10
24.294353
 20
57.891588
 30
0.0
 10
25.410399
 20
59.567699
 30
0.0
 10
31.085276
 20
65.107566
 30
0.0
  0
LINE
  5
11d
100
AcDbEntity
  8
0
 62
7
100
AcDbLine
 10
31.085276
 20
65.107566
 30
0.0
 11
36.474074
 21
70.368152
 31
0.0
  0
LINE
  5
11e
100
AcDbEntity
  8
0
 62
7
100
AcDbLine
 10
36.474074
 20
70.368152
 30
0.0
 11
34.702265
 21
64.905234
 31
0.0
  0
SPLINE
  5
11f
100
AcDbEntity
  8
0
 62
7
100
AcDbSpline
 70
8
 71
3
 72
8
 73
4
 74
0
 40
0
 40
0
 40
0
 40
0
 40
1
 40
1
 40
1
 40
1
 10
34.702265
 20
64.905234
 30
0.0
 10
31.154464
 20
53.966465
 30
0.0
 10
30.678442
 20
50.581801
 30
0.0
 10
32.192745
 20
47.061703
 30
0.0
  0
SPLINE
  5
120
100
AcDbEntity
  8
0
 62
7
100
AcDbSpline
 70
8
 71
3
 72
8
 73
4
 74
0
 40
0
 40
0
 40
0
 40
0
 40
1
 40
1
 40
1
 40
1
 10
32.192745
 20
47.061703
 30
0.0
 10
32.668193
 20
45.956493
 30
0.0
 10
33.125830
 20
45.120865
 30
0.0
 10
33.209711
 20
45.204748
 30
0.0
  0
SPLINE
  5
121
100
AcDbEntity
  8
0
 62
7
100
AcDbSpline
 70
8
 71
3
 72
8
 73
4
 74
0
 40
0
 40
0
 40
0
 40
0
 40
1
 40
1
 40
1
 40
1
 10
33.209711
 20
45.204748
 30
0.0
 10
33.293594
 20
45.288629
 30
0.0
 10
33.064483
 20
46.068084
 30
0.0
 10
32.700576
 20
46.936870
 30
0.0
  0
SPLINE
  5
122
100
AcDbEntity
  8
0
 62
7
100
AcDbSpline
 70
8
 71
3
 72
8
 73
4
 74
0
 40
0
 40
0
 40
0
 40
0
 40
1
 40
1
 40
1
 40
1
 10
32.700576
 20
46.936870
 30
0.0
 10
31.661948
 20
49.416460
 30
0.0
 10
32.169721
 20
53.148836
 30
0.0
 10
34.594566
 20
60.858628
 30
0.0
  0
SPLINE
  5
123
100
AcDbEntity
  8
0
 62
7
100
AcDbSpline
 70
8
 71
3
 72
8
 73
4
 74
0
 40
0
 40
0
 40
0
 40
0
 40
1
 40
1
 40
1
 40
1
 10
34.594566
 20
60.858628
 30
0.0
 10
40.299620
 20
78.997886
 30
0.0
 10
40.292863
 20
78.971695
 30
0.0
 10
40.665280
 20
84.384022
 30
0.0
  0
SPLINE
  5
124
100
AcDbEntity
  8
0
 62
7
100
AcDbSpline
 70
8
 71
3
 72
8
 73
4
 74
0
 40
0
 40
0
 40
0
 40
0
 40
1
 40
1
 40
1
 40
1
 10
40.665280
 20
84.384022
 30
0.0
 10
41.202693
 20
92.194260
 30
0.0
 10
43.184883
 20
100.187069
 30
0.0
 10
46.097736
 20
106.289416
 30
0.0
  0
SPLINE
  5
125
100
AcDbEntity
  8
0
 62
7
100
AcDbSpline
 70
8
 71
3
 72
8
 73
4
 74
0
 40
0
 40
0
 40
0
 40
0
 40
1
 40
1
 40
1
 40
1
 10
46.097736
 20
106.289416
 30
0.0
 10
47.307792
 20
108.824462
 30
0.0
 10
47.899829
 20
109.474966
 30
0.0
 10
47.953960
 20
108.328971
 30
0.0
  0
SPLINE
  5
126
100
AcDbEntity
  8
0
 62
7
100
AcDbSpline
 70
8
 71
3
 72
8
 73
4
 74
0
 40
0
 40
0
 40
0
 40
0
 40
1
 40
1
 40
1
 40
1
 10
47.953960
 20
108.328971
 30
0.0
 10
47.972984
 20
107.926350
 30
0.0
 10
48.292587
 20
103.772888
 30
0.0
 10
48.664208
 20
99.099058
 30
0.0
  0
LINE
  5
127
100
AcDbEntity
  8
0
 62
7
100
AcDbLine
 10
48.664208
 20
99.099058
 30
0.0
 11
49.339877
 21
90.601185
 31
0.0
  0
LINE
  5
128
100
AcDbEntity
  8
0
 62
7
100
AcDbLine
 10
49.339877
 20
90.601185
 30
0.0
 11
46.469923
 21
83.721955
 31
0.0
  0
SPLINE
  5
129
100
AcDbEntity
  8
0
 62
7
100
AcDbSpline
 70
8
 71
3
 72
8
 73
4
 74
0
 40
0
 40
0
 40
0
 40
0
 40
1
 40
1
 40
1
 40
1
 10
46.469923
 20
83.721955
 30
0.0
 10
44.891448
 20
79.938377
 30
0.0
 10
42.819620
 20
74.657556
 30
0.0
 10
41.865869
 20
71.986796
 30
0.0
  0
SPLINE
  5
12a
100
AcDbEntity
  8
0
 62
7
100
AcDbSpline
 70
8
 71
3
 72
8
 73
4
 74
0
 40
0
 40
0
 40
0
 40
0
 40
1
 40
1
 40
1
 40
1
 10
41.865869
 20
71.986796
 30
0.0
 10
40.912112
 20
69.316036
 30
0.0
 10
38.959426
 20
64.789778
 30
0.0
 10
37.526562
 20
61.928447
 30
0.0
  0
SPLINE
  5
12b
100
AcDbEntity
  8
0
 62
7
100
AcDbSpline
 70
8
 71
3
 72
8
 73
4
 74
0
 40
0
 40
0
 40
0
 40
0
 40
1
 40
1
 40
1
 40
1
 10
37.526562
 20
61.928447
 30
0.0
 10
36.093701
 20
59.067110
 30
0.0
 10
34.981575
 20
56.665802
 30
0.0
 10
35.055179
 20
56.592203
 30
0.0
  0
SPLINE
  5
12c
100
AcDbEntity
  8
0
 62
7
100
AcDbSpline
 70
8
 71
3
 72
8
 73
4
 74
0
 40
0
 40
0
 40
0
 40
0
 40
1
 40
1
 40
1
 40
1
 10
35.055179
 20
56.592203
 30
0.0
 10
35.423249
 20
56.224131
 30
0.0
 10
40.941510
 20
67.603211
 30
0.0
 10
42.853085
 20
72.672096
 30
0.0
  0
SPLINE
  5
12d
100
AcDbEntity
  8
0
 62
7
100
AcDbSpline
 70
8
 71
3
 72
8
 73
4
 74
0
 40
0
 40
0
 40
0
 40
0
 40
1
 40
1
 40
1
 40
1
 10
42.853085
 20
72.672096
 30
0.0
 10
45.010190
 20
78.392036
 30
0.0
 10
48.829922
 20
87.397677
 30
0.0
 10
49.297065
 20
87.864822
 30
0.0
  0
SPLINE
  5
12e
100
AcDbEntity
  8
0
 62
7
100
AcDbSpline
 70
8
 71
3
 72
8
 73
4
 74
0
 40
0
 40
0
 40
0
 40
0
 40
1
 40
1
 40
1
 40
1
 10
49.297065
 20
87.864822
 30
0.0
 10
49.429592
 20
87.997347
 30
0.0
 10
49.538023
 20
87.026424
 30
0.0
 10
49.538023
 20
85.707214
 30
0.0
  0
SPLINE
  5
12f
100
AcDbEntity
  8
0
 62
7
100
AcDbSpline
 70
8
 71
3
 72
8
 73
4
 74
0
 40
0
 40
0
 40
0
 40
0
 40
1
 40
1
 40
1
 40
1
 10
49.538023
 20
85.707214
 30
0.0
 10
49.538023
 20
83.531209
 30
0.0
 10
49.366560
 20
83.053068
 30
0.0
 10
47.690121
 20
80.554076
 30
0.0
  0
SPLINE
  5
130
100
AcDbEntity
  8
0
 62
7
100
AcDbSpline
 70
8
 71
3
 72
8
 73
4
 74
0
 40
0
 40
0
 40
0
 40
0
 40
1
 40
1
 40
1
 40
1
 10
47.690121
 20
80.554076
 30
0.0
 10
46.644495
 20
78.995413
 30
0.0
 10
44.994942
 20
75.571434
 30
0.0
 10
43.890656
 20
72.667516
 30
0.0
  0
SPLINE
  5
131
100
AcDbEntity
  8
0
 62
7
100
AcDbSpline
 70
8
 71
3
 72
8
 73
4
 74
0
 40
0
 40
0
 40
0
 40
0
 40
1
 40
1
 40
1
 40
1
 10
43.890656
 20
72.667516
 30
0.0
 10
42.817295
 20
69.844923
 30
0.0
 10
40.288630
 20
64.195071
 30
0.0
 10
38.271404
 20
60.112288
 30
0.0
  0
SPLINE
  5
132
100
AcDbEntity
  8
0
 62
7
100
AcDbSpline
 70
8
 71
3
 72
8
 73
4
 74
0
 40
0
 40
0
 40
0
 40
0
 40
1
 40
1
 40
1
 40
1
 10
38.271404
 20
60.112288
 30
0.0
 10
36.254181
 20
56.029506
 30
0.0
 10
34.488227
 20
51.918902
 30
0.0
 10
34.347075
 20
50.977615
 30
0.0
  0
SPLINE
  5
133
100
AcDbEntity
  8
0
 62
7
100
AcDbSpline
 70
8
 71
3
 72
8
 73
4
 74
0
 40
0
 40
0
 40
0
 40
0
 40
1
 40
1
 40
1
 40
1
 10
34.347075
 20
50.977615
 30
0.0
 10
33.775250
 20
47.164419
 30
0.0
 10
36.154240
 20
44.385815
 30
0.0
 10
45.289090
 20
38.197632
 30
0.0
  0
SPLINE
  5
134
100
AcDbEntity
  8
0
 62
7
100
AcDbSpline
 70
8
 71
3
 72
8
 73
4
 74
0
 40
0
 40
0
 40
0
 40
0
 40
1
 40
1
 40
1
 40
1
 10
45.289090
 20
38.197632
 30
0.0
 10
48.907410
 20
35.746484
 30
0.0
 10
52.583224
 20
32.964920
 30
0.0
 10
53.457558
 20
32.016376
 30
0.0
  0
SPLINE
  5
135
100
AcDbEntity
  8
0
 62
7
100
AcDbSpline
 70
8
 71
3
 72
8
 73
4
 74
0
 40
0
 40
0
 40
0
 40
0
 40
1
 40
1
 40
1
 40
1
 10
53.457558
 20
32.016376
 30
0.0
 10
54.331898
 20
31.067831
 30
0.0
 10
56.213892
 20
28.346174
 30
0.0
 10
57.639777
 20
25.968247
 30
0.0
  0
SPLINE
  5
136
100
AcDbEntity
  8
0
 62
7
100
AcDbSpline
 70
8
 71
3
 72
8
 73
4
 74
0
 40
0
 40
0
 40
0
 40
0
 40
1
 40
1
 40
1
 40
1
 10
57.639777
 20
25.968247
 30
0.0
 10
59.065653
 20
23.590317
 30
0.0
 10
60.290359
 20
21.702820
 30
0.0
 10
60.361344
 20
21.773799
 30
0.0
  0
SPLINE
  5
137
100
AcDbEntity
  8
0
 62
7
100
AcDbSpline
 70
8
 71
3
 72
8
 73
4
 74
0
 40
0
 40
0
 40
0
 40
0
 40
1
 40
1
 40
1
 40
1
 10
60.361344
 20
21.773799
 30
0.0
 10
60.432327
 20
21.844787
 30
0.0
 10
59.305302
 20
24.367626
 30
0.0
 10
57.856849
 20
27.380114
 30
0.0
  0
SPLINE
  5
138
100
AcDbEntity
  8
0
 62
7
100
AcDbSpline
 70
8
 71
3
 72
8
 73
4
 74
0
 40
0
 40
0
 40
0
 40
0
 40
1
 40
1
 40
1
 40
1
 10
57.856849
 20
27.380114
 30
0.0
 10
54.934251
 20
33.458511
 30
0.0
 10
54.305781
 20
34.153915
 30
0.0
 10
47.514720
 20
38.823824
 30
0.0
  0
SPLINE
  5
139
100
AcDbEntity
  8
0
 62
7
100
AcDbSpline
 70
8
 71
3
 72
8
 73
4
 74
0
 40
0
 40
0
 40
0
 40
0
 40
1
 40
1
 40
1
 40
1
 10
47.514720
 20
38.823824
 30
0.0
 10
41.736287
 20
42.797389
 30
0.0
 10
38.054771
 20
45.783620
 30
0.0
 10
36.995967
 20
47.356004
 30
0.0
  0
SPLINE
  5
13a
100
AcDbEntity
  8
0
 62
7
100
AcDbSpline
 70
8
 71
3
 72
8
 73
4
 74
0
 40
0
 40
0
 40
0
 40
0
 40
1
 40
1
 40
1
 40
1
 10
36.995967
 20
47.356004
 30
0.0
 10
35.085273
 20
50.193501
 30
0.0
 10
35.971921
 20
53.113898
 30
0.0
 10
41.999499
 20
63.836405
 30
0.0
  0
SPLINE
  5
13b
100
AcDbEntity
  8
0
 62
7
100
AcDbSpline
 70
8
 71
3
 72
8
 73
4
 74
0
 40
0
 40
0
 40
0
 40
0
 40
1
 40
1
 40
1
 40
1
 10
41.999499
 20
63.836405
 30
0.0
 10
42.982720
 20
65.585462
 30
0.0
 10
44.644968
 20
69.544710
 30
0.0
 10
45.693384
 20
72.634734
 30
0.0
  0
SPLINE
  5
13c
100
AcDbEntity
  8
0
 62
7
100
AcDbSpline
 70
8
 71
3
 72
8
 73
4
 74
0
 40
0
 40
0
 40
0
 40
0
 40
1
 40
1
 40
1
 40
1
 10
45.693384
 20
72.634734
 30
0.0
 10
47.136615
 20
76.888427
 30
0.0
 10
48.083257
 20
78.941673
 30
0.0
 10
49.590998
 20
81.088621
 30
0.0
  0
SPLINE
  5
13d
100
AcDbEntity
  8
0
 62
7
100
AcDbSpline
 70
8
 71
3
 72
8
 73
4
 74
0
 40
0
 40
0
 40
0
 40
0
 40
1
 40
1
 40
1
 40
1
 10
49.590998
 20
81.088621
 30
0.0
 10
50.686273
 20
82.648237
 30
0.0
 10
51.674767
 20
83.924285
 30
0.0
 10
51.787651
 20
83.924285
 30
0.0
  0
SPLINE
  5
13e
100
AcDbEntity
  8
0
 62
7
100
AcDbSpline
 70
8
 71
3
 72
8
 73
4
 74
0
 40
0
 40
0
 40
0
 40
0
 40
1
 40
1
 40
1
 40
1
 10
51.787651
 20
83.924285
 30
0.0
 10
52.507463
 20
83.924285
 30
0.0
 10
56.293198
 20
81.609363
 30
0.0
 10
58.999835
 20
79.514128
 30
0.0
  0
SPLINE
  5
13f
100
AcDbEntity
  8
0
 62
7
100
AcDbSpline
 70
8
 71
3
 72
8
 73
4
 74
0
 40
0
 40
0
 40
0
 40
0
 40
1
 40
1
 40
1
 40
1
 10
58.999835
 20
79.514128
 30
0.0
 10
60.942187
 20
78.010538
 30
0.0
 10
62.582455
 20
77.045055
 30
0.0
 10
63.194561
 20
77.045055
 30
0.0
  0
SPLINE
  5
140
100
AcDbEntity
  8
0
 62
7
100
AcDbSpline
 70
8
 71
3
 72
8
 73
4
 74
0
 40
0
 40
0
 40
0
 40
0
 40
1
 40
1
 40
1
 40
1
 10
63.194561
 20
77.045055
 30
0.0
 10
63.747392
 20
77.045055
 30
0.0
 10
65.047633
 20
77.667490
 30
0.0
 10
66.083988
 20
78.428244
 30
0.0
  0
SPLINE
  5
141
100
AcDbEntity
  8
0
 62
7
100
AcDbSpline
 70
8
 71
3
 72
8
 73
4
 74
0
 40
0
 40
0
 40
0
 40
0
 40
1
 40
1
 40
1
 40
1
 10
66.083988
 20
78.428244
 30
0.0
 10
69.010925
 20
80.576811
 30
0.0
 10
73.918520
 20
83.519623
 30
0.0
 10
74.574652
 20
83.519623
 30
0.0
  0
SPLINE
  5
142
100
AcDbEntity
  8
0
 62
7
100
AcDbSpline
 70
8
 71
3
 72
8
 73
4
 74
0
 40
0
 40
0
 40
0
 40
0
 40
1
 40
1
 40
1
 40
1
 10
74.574652
 20
83.519623
 30
0.0
 10
74.900187
 20
83.519623
 30
0.0
 10
75.051235
 20
83.404323
 30
0.0
 10
74.910316
 20
83.263406
 30
0.0
  0
SPLINE
  5
143
100
AcDbEntity
  8
0
 62
7
100
AcDbSpline
 70
8
 71
3
 72
8
 73
4
 74
0
 40
0
 40
0
 40
0
 40
0
 40
1
 40
1
 40
1
 40
1
 10
74.910316
 20
83.263406
 30
0.0
 10
74.769393
 20
83.122486
 30
0.0
 10
75.191446
 20
82.257524
 30
0.0
 10
75.848200
 20
81.341266
 30
0.0
  0
SPLINE
  5
144
100
AcDbEntity
  8
0
 62
7
100
AcDbSpline
 70
8
 71
3
 72
8
 73
4
 74
0
 40
0
 40
0
 40
0
 40
0
 40
1
 40
1
 40
1
 40
1
 10
75.848200
 20
81.341266
 30
0.0
 10
76.504962
 20
80.425014
 30
0.0
 10
78.315535
 20
76.792690
 30
0.0
 10
79.871697
 20
73.269446
 30
0.0
  0
SPLINE
  5
145
100
AcDbEntity
  8
0
 62
7
100
AcDbSpline
 70
8
 71
3
 72
8
 73
4
 74
0
 40
0
 40
0
 40
0
 40
0
 40
1
 40
1
 40
1
 40
1
 10
79.871697
 20
73.269446
 30
0.0
 10
81.427860
 20
69.746199
 30
0.0
 10
83.322446
 20
65.831106
 30
0.0
 10
84.081887
 20
64.569239
 30
0.0
  0
SPLINE
  5
146
100
AcDbEntity
  8
0
 62
7
100
AcDbSpline
 70
8
 71
3
 72
8
 73
4
 74
0
 40
0
 40
0
 40
0
 40
0
 40
1
 40
1
 40
1
 40
1
 10
84.081887
 20
64.569239
 30
0.0
 10
87.121945
 20
59.517987
 30
0.0
 10
90.006406
 20
52.621170
 30
0.0
 10
90.001831
 20
50.414500
 30
0.0
  0
SPLINE
  5
147
100
AcDbEntity
  8
0
 62
7
100
AcDbSpline
 70
8
 71
3
 72
8
 73
4
 74
0
 40
0
 40
0
 40
0
 40
0
 40
1
 40
1
 40
1
 40
1
 10
90.001831
 20
50.414500
 30
0.0
 10
89.994634
 20
46.944786
 30
0.0
 10
88.247654
 20
44.415218
 30
0.0
 10
84.588321
 20
42.575944
 30
0.0
  0
SPLINE
  5
148
100
AcDbEntity
  8
0
 62
7
100
AcDbSpline
 70
8
 71
3
 72
8
 73
4
 74
0
 40
0
 40
0
 40
0
 40
0
 40
1
 40
1
 40
1
 40
1
 10
84.588321
 20
42.575944
 30
0.0
 10
83.227011
 20
41.891715
 30
0.0
 10
81.095046
 20
40.620570
 30
0.0
 10
79.850634
 20
39.751181
 30
0.0
  0
SPLINE
  5
149
100
AcDbEntity
  8
0
 62
7
100
AcDbSpline
 70
8
 71
3
 72
8
 73
4
 74
0
 40
0
 40
0
 40
0
 40
0
 40
1
 40
1
 40
1
 40
1
 10
79.850634
 20
39.751181
 30
0.0
 10
77.457819
 20
38.079482
 30
0.0
 10
66.376408
 20
26.701801
 30
0.0
 10
65.134398
 20
24.641502
 30
0.0
  0
SPLINE
  5
14a
100
AcDbEntity
  8
0
 62
7
100
AcDbSpline
 70
8
 71
3
 72
8
 73
4
 74
0
 40
0
 40
0
 40
0
 40
0
 40
1
 40
1
 40
1
 40
1
 10
65.134398
 20
24.641502
 30
0.0
 10
64.456081
 20
23.516282
 30
0.0
 10
64.502679
 20
23.534652
 30
0.0
 10
65.771668
 20
24.892766
 30
0.0
  0
SPLINE
  5
14b
100
AcDbEntity
  8
0
 62
7
100
AcDbSpline
 70
8
 71
3
 72
8
 73
4
 74
0
 40
0
 40
0
 40
0
 40
0
 40
1
 40
1
 40
1
 40
1
 10
65.771668
 20
24.892766
 30
0.0
 10
66.524670
 20
25.698658
 30
0.0
 10
68.506492
 20
27.457525
 30
0.0
 10
70.175716
 20
28.801371
 30
0.0
  0
SPLINE
  5
14c
100
AcDbEntity
  8
0
 62
7
100
AcDbSpline
 70
8
 71
3
 72
8
 73
4
 74
0
 40
0
 40
0
 40
0
 40
0
 40
1
 40
1
 40
1
 40
1
 10
70.175716
 20
28.801371
 30
0.0
 10
71.844943
 20
30.145218
 30
0.0
 10
74.303256
 20
32.370309
 30
0.0
 10
75.638637
 20
33.746020
 30
0.0
  0
SPLINE
  5
14d
100
AcDbEntity
  8
0
 62
7
100
AcDbSpline
 70
8
 71
3
 72
8
 73
4
 74
0
 40
0
 40
0
 40
0
 40
0
 40
1
 40
1
 40
1
 40
1
 10
75.638637
 20
33.746020
 30
0.0
 10
78.474480
 20
36.667518
 30
0.0
 10
81.810551
 20
39.047667
 30
0.0
 10
85.294970
 20
40.635418
 30
0.0
  0
SPLINE
  5
14e
100
AcDbEntity
  8
0
 62
7
100
AcDbSpline
 70
8
 71
3
 72
8
 73
4
 74
0
 40
0
 40
0
 40
0
 40
0
 40
1
 40
1
 40
1
 40
1
 10
85.294970
 20
40.635418
 30
0.0
 10
88.174642
 20
41.947603
 30
0.0
 10
89.627152
 20
43.337904
 30
0.0
 10
90.780669
 20
45.886185
 30
0.0
  0
SPLINE
  5
14f
100
AcDbEntity
  8
0
 62
7
100
AcDbSpline
 70
8
 71
3
 72
8
 73
4
 74
0
 40
0
 40
0
 40
0
 40
0
 40
1
 40
1
 40
1
 40
1
 10
90.780669
 20
45.886185
 30
0.0
 10
92.306108
 20
49.256106
 30
0.0
 10
91.878917
 20
51.451717
 30
0.0
 10
88.064356
 20
59.846977
 30
0.0
  0
SPLINE
  5
150
100
AcDbEntity
  8
0
 62
7
100
AcDbSpline
 70
8
 71
3
 72
8
 73
4
 74
0
 40
0
 40
0
 40
0
 40
0
 40
1
 40
1
 40
1
 40
1
 10
88.064356
 20
59.846977
 30
0.0
 10
80.587295
 20
76.302833
 30
0.0
 10
78.557591
 20
80.620145
 30
0.0
 10
77.661964
 20
81.973525
 30
0.0
  0
SPLINE
  5
151
100
AcDbEntity
  8
0
 62
7
100
AcDbSpline
 70
8
 71
3
 72
8
 73
4
 74
0
 40
0
 40
0
 40
0
 40
0
 40
1
 40
1
 40
1
 40
1
 10
77.661964
 20
81.973525
 30
0.0
 10
76.878847
 20
83.156895
 30
0.0
 10
76.650287
 20
84.025337
 30
0.0
 10
76.650287
 20
85.817514
 30
0.0
  0
SPLINE
  5
152
100
AcDbEntity
  8
0
 62
7
100
AcDbSpline
 70
8
 71
3
 72
8
 73
4
 74
0
 40
0
 40
0
 40
0
 40
0
 40
1
 40
1
 40
1
 40
1
 10
76.650287
 20
85.817514
 30
0.0
 10
76.650287
 20
87.112840
 30
0.0
 10
76.801060
 20
87.963406
 30
0.0
 10
76.992549
 20
87.748329
 30
0.0
  0
SPLINE
  5
153
100
AcDbEntity
  8
0
 62
7
100
AcDbSpline
 70
8
 71
3
 72
8
 73
4
 74
0
 40
0
 40
0
 40
0
 40
0
 40
1
 40
1
 40
1
 40
1
 10
76.992549
 20
87.748329
 30
0.0
 10
77.180790
 20
87.536893
 30
0.0
 10
77.911222
 20
85.633975
 30
0.0
 10
78.615723
 20
83.519623
 30
0.0
  0
SPLINE
  5
154
100
AcDbEntity
  8
0
 62
7
100
AcDbSpline
 70
8
 71
3
 72
8
 73
4
 74
0
 40
0
 40
0
 40
0
 40
0
 40
1
 40
1
 40
1
 40
1
 10
78.615723
 20
83.519623
 30
0.0
 10
79.750452
 20
80.114076
 30
0.0
 10
89.573145
 20
59.888139
 30
0.0
 10
89.922599
 20
60.237592
 30
0.0
  0
SPLINE
  5
155
100
AcDbEntity
  8
0
 62
7
100
AcDbSpline
 70
8
 71
3
 72
8
 73
4
 74
0
 40
0
 40
0
 40
0
 40
0
 40
1
 40
1
 40
1
 40
1
 10
89.922599
 20
60.237592
 30
0.0
 10
89.998055
 20
60.313044
 30
0.0
 10
88.055773
 20
64.535309
 30
0.0
 10
85.606422
 20
69.620405
 30
0.0
  0
SPLINE
  5
156
100
AcDbEntity
  8
0
 62
7
100
AcDbSpline
 70
8
 71
3
 72
8
 73
4
 74
0
 40
0
 40
0
 40
0
 40
0
 40
1
 40
1
 40
1
 40
1
 10
85.606422
 20
69.620405
 30
0.0
 10
83.157074
 20
74.705496
 30
0.0
 10
80.423150
 20
80.996708
 30
0.0
 10
79.531038
 20
83.600877
 30
0.0
  0
SPLINE
  5
157
100
AcDbEntity
  8
0
 62
7
100
AcDbSpline
 70
8
 71
3
 72
8
 73
4
 74
0
 40
0
 40
0
 40
0
 40
0
 40
1
 40
1
 40
1
 40
1
 10
79.531038
 20
83.600877
 30
0.0
 10
78.638932
 20
86.205041
 30
0.0
 10
77.658450
 20
88.754402
 30
0.0
 10
77.352200
 20
89.266124
 30
0.0
  0
SPLINE
  5
158
100
AcDbEntity
  8
0
 62
7
100
AcDbSpline
 70
8
 71
3
 72
8
 73
4
 74
0
 40
0
 40
0
 40
0
 40
0
 40
1
 40
1
 40
1
 40
1
 10
77.352200
 20
89.266124
 30
0.0
 10
76.884517
 20
90.047574
 30
0.0
 10
76.875087
 20
91.427434
 30
0.0
 10
77.293304
 20
97.885076
 30
0.0
  0
SPLINE
  5
159
100
AcDbEntity
  8
0
 62
7
100
AcDbSpline
 70
8
 71
3
 72
8
 73
4
 74
0
 40
0
 40
0
 40
0
 40
0
 40
1
 40
1
 40
1
 40
1
 10
77.293304
 20
97.885076
 30
0.0
 10
77.567166
 20
102.113780
 30
0.0
 10
77.807670
 20
106.386563
 30
0.0
 10
77.827751
 20
107.380151
 30
0.0
  0
SPLINE
  5
15a
100
AcDbEntity
  8
0
 62
7
100
AcDbSpline
 70
8
 71
3
 72
8
 73
4
 74
0
 40
0
 40
0
 40
0
 40
0
 40
1
 40
1
 40
1
 40
1
 10
77.827751
 20
107.380151
 30
0.0
 10
77.859639
 20
108.958497
 30
0.0
 10
77.938038
 20
109.111831
 30
0.0
 10
78.448324
 20
108.594133
 30
0.0
  0
SPLINE
  5
15b
100
AcDbEntity
  8
0
 62
7
100
AcDbSpline
 70
8
 71
3
 72
8
 73
4
 74
0
 40
0
 40
0
 40
0
 40
0
 40
1
 40
1
 40
1
 40
1
 10
78.448324
 20
108.594133
 30
0.0
 10
79.433442
 20
107.594710
 30
0.0
 10
81.859224
 20
101.462232
 30
0.0
 10
83.145241
 20
96.720147
 30
0.0
  0
SPLINE
  5
15c
100
AcDbEntity
  8
0
 62
7
100
AcDbSpline
 70
8
 71
3
 72
8
 73
4
 74
0
 40
0
 40
0
 40
0
 40
0
 40
1
 40
1
 40
1
 40
1
 10
83.145241
 20
96.720147
 30
0.0
 10
83.816484
 20
94.244972
 30
0.0
 10
84.799900
 20
89.488369
 30
0.0
 10
85.330615
 20
86.149918
 30
0.0
  0
SPLINE
  5
15d
100
AcDbEntity
  8
0
 62
7
100
AcDbSpline
 70
8
 71
3
 72
8
 73
4
 74
0
 40
0
 40
0
 40
0
 40
0
 40
1
 40
1
 40
1
 40
1
 10
85.330615
 20
86.149918
 30
0.0
 10
85.950420
 20
82.251004
 30
0.0
 10
87.316024
 20
76.528488
 30
0.0
 10
89.148716
 20
70.150289
 30
0.0
  0
SPLINE
  5
15e
100
AcDbEntity
  8
0
 62
7
100
AcDbSpline
 70
8
 71
3
 72
8
 73
4
 74
0
 40
0
 40
0
 40
0
 40
0
 40
1
 40
1
 40
1
 40
1
 10
89.148716
 20
70.150289
 30
0.0
 10
93.234171
 20
55.931962
 30
0.0
 10
93.749598
 20
53.563539
 30
0.0
 10
93.578471
 20
49.795317
 30
0.0
  0
SPLINE
  5
15f
100
AcDbEntity
  8
0
 62
7
100
AcDbSpline
 70
8
 71
3
 72
8
 73
4
 74
0
 40
0
 40
0
 40
0
 40
0
 40
1
 40
1
 40
1
 40
1
 10
93.578471
 20
49.795317
 30
0.0
 10
93.452087
 20
47.012302
 30
0.0
 10
93.495453
 20
46.759787
 30
0.0
 10
93.926475
 20
47.768661
 30
0.0
  0
SPLINE
  5
160
100
AcDbEntity
  8
0
 62
7
100
AcDbSpline
 70
8
 71
3
 72
8
 73
4
 74
0
 40
0
 40
0
 40
0
 40
0
 40
1
 40
1
 40
1
 40
1
 10
93.926475
 20
47.768661
 30
0.0
 10
95.036225
 20
50.366195
 30
0.0
 10
94.295256
 20
55.809491
 30
0.0
 10
91.458529
 20
65.898623
 30
0.0
  0
SPLINE
  5
161
100
AcDbEntity
  8
0
 62
7
100
AcDbSpline
 70
8
 71
3
 72
8
 73
4
 74
0
 40
0
 40
0
 40
0
 40
0
 40
1
 40
1
 40
1
 40
1
 10
91.458529
 20
65.898623
 30
0.0
 10
90.421315
 20
69.587578
 30
0.0
 10
90.350655
 20
70.583197
 30
0.0
 10
91.246558
 20
68.885334
 30
0.0
  0
SPLINE
  5
162
100
AcDbEntity
  8
0
 62
7
100
AcDbSpline
 70
8
 71
3
 72
8
 73
4
 74
0
 40
0
 40
0
 40
0
 40
0
 40
1
 40
1
 40
1
 40
1
 10
91.246558
 20
68.885334
 30
0.0
 10
91.520854
 20
68.365505
 30
0.0
 10
93.154354
 20
66.483410
 30
0.0
 10
94.876567
 20
64.702904
 30
0.0
  0
SPLINE
  5
163
100
AcDbEntity
  8
0
 62
7
100
AcDbSpline
 70
8
 71
3
 72
8
 73
4
 74
0
 40
0
 40
0
 40
0
 40
0
 40
1
 40
1
 40
1
 40
1
 10
94.876567
 20
64.702904
 30
0.0
 10
96.598774
 20
62.922396
 30
0.0
 10
98.756367
 20
60.388373
 30
0.0
 10
99.671222
 20
59.071735
 30
0.0
  0
SPLINE
  5
164
100
AcDbEntity
  8
0
 62
7
100
AcDbSpline
 70
8
 71
3
 72
8
 73
4
 74
0
 40
0
 40
0
 40
0
 40
0
 40
1
 40
1
 40
1
 40
1
 10
99.671222
 20
59.071735
 30
0.0
 10
101.051251
 20
57.085624
 30
0.0
 10
101.334586
 20
56.349617
 30
0.0
 10
101.334586
 20
54.750907
 30
0.0
  0
LINE
  5
165
100
AcDbEntity
  8
0
 62
7
100
AcDbLine
 10
101.334586
 20
54.750907
 30
0.0
 11
101.334586
 21
52.823962
 31
0.0
  0
LINE
  5
166
100
AcDbEntity
  8
0
 62
7
100
AcDbLine
 10
101.334586
 20
52.823962
 30
0.0
 11
104.372621
 21
50.791999
 31
0.0
  0
SPLINE
  5
167
100
AcDbEntity
  8
0
 62
7
100
AcDbSpline
 70
8
 71
3
 72
8
 73
4
 74
0
 40
0
 40
0
 40
0
 40
0
 40
1
 40
1
 40
1
 40
1
 10
104.372621
 20
50.791999
 30
0.0
 10
106.043536
 20
49.674423
 30
0.0
 10
108.498917
 20
48.363238
 30
0.0
 10
109.829015
 20
47.878260
 30
0.0
  0
SPLINE
  5
168
100
AcDbEntity
  8
0
 62
7
100
AcDbSpline
 70
8
 71
3
 72
8
 73
4
 74
0
 40
0
 40
0
 40
0
 40
0
 40
1
 40
1
 40
1
 40
1
 10
109.829015
 20
47.878260
 30
0.0
 10
113.123625
 20
46.676985
 30
0.0
 10
113.318689
 20
46.351270
 30
0.0
 10
111.908936
 20
44.405162
 30
0.0
  0
SPLINE
  5
169
100
AcDbEntity
  8
0
 62
7
100
AcDbSpline
 70
8
 71
3
 72
8
 73
4
 74
0
 40
0
 40
0
 40
0
 40
0
 40
1
 40
1
 40
1
 40
1
 10
111.908936
 20
44.405162
 30
0.0
 10
108.559020
 20
39.780737
 30
0.0
 10
103.886717
 20
36.033888
 30
0.0
 10
91.825061
 20
28.299334
 30
0.0
  0
SPLINE
  5
16a
100
AcDbEntity
  8
0
 62
7
100
AcDbSpline
 70
8
 71
3
 72
8
 73
4
 74
0
 40
0
 40
0
 40
0
 40
0
 40
1
 40
1
 40
1
 40
1
 10
91.825061
 20
28.299334
 30
0.0
 10
80.592322
 20
21.096326
 30
0.0
 10
71.219050
 20
14.341733
 30
0.0
 10
64.915127
 20
8.907438
 30
0.0
  0
LINE
  5
16b
100
AcDbEntity
  8
0
 62
7
100
AcDbLine
 10
64.915127
 20
8.907438
 30
0.0
 11
61.880174
 21
6.291153
 31
0.0
  0
LINE
  5
16c
100
AcDbEntity
  8
0
 62
7
100
AcDbLine
 10
61.880174
 20
6.291153
 30
0.0
 11
60.981488
 21
7.129070
 31
0.0
  0
LINE
  5
16d
100
AcDbEntity
  8
0
 62
7
100
AcDbLine
 10
60.981488
 20
7.129070
 30
0.0
 11
60.082796
 21
7.966995
 31
0.0
  0
LINE
  5
16e
100
AcDbEntity
  8
0
 62
7
100
AcDbLine
 10
60.082796
 20
7.966995
 30
0.0
 11
57.316450
 21
6.730060
 31
0.0
  0
SPLINE
  5
16f
100
AcDbEntity
  8
0
 62
7
100
AcDbSpline
 70
8
 71
3
 72
8
 73
4
 74
0
 40
0
 40
0
 40
0
 40
0
 40
1
 40
1
 40
1
 40
1
 10
57.316450
 20
6.730060
 30
0.0
 10
54.221423
 20
5.346165
 30
0.0
 10
51.264845
 20
4.782962
 30
0.0
 10
50.347344
 20
5.402513
 30
0.0
  0
LINE
  5
170
100
AcDbEntity
  8
0
 62
7
100
AcDbLine
 10
50.347344
 20
5.402513
 30
0.0
 11
50.347344
 21
5.402513
 31
0.0
  0
SPLINE
  5
171
100
AcDbEntity
  8
0
 62
7
100
AcDbSpline
 70
8
 71
3
 72
8
 73
4
 74
0
 40
0
 40
0
 40
0
 40
0
 40
1
 40
1
 40
1
 40
1
 10
74.626984
 20
18.051850
 30
0.0
 10
77.186462
 20
19.948886
 30
0.0
 10
82.558332
 20
23.644147
 30
0.0
 10
86.564473
 20
26.263535
 30
0.0
  0
SPLINE
  5
172
100
AcDbEntity
  8
0
 62
7
100
AcDbSpline
 70
8
 71
3
 72
8
 73
4
 74
0
 40
0
 40
0
 40
0
 40
0
 40
1
 40
1
 40
1
 40
1
 10
86.564473
 20
26.263535
 30
0.0
 10
102.727860
 20
36.831861
 30
0.0
 10
103.090691
 20
37.094798
 30
0.0
 10
107.356515
 20
41.331211
 30
0.0
  0
LINE
  5
173
100
AcDbEntity
  8
0
 62
7
100
AcDbLine
 10
107.356515
 20
41.331211
 30
0.0
 11
111.557474
 21
45.503201
 31
0.0
  0
LINE
  5
174
100
AcDbEntity
  8
0
 62
7
100
AcDbLine
 10
111.557474
 20
45.503201
 30
0.0
 11
107.741817
 21
47.416869
 31
0.0
  0
SPLINE
  5
175
100
AcDbEntity
  8
0
 62
7
100
AcDbSpline
 70
8
 71
3
 72
8
 73
4
 74
0
 40
0
 40
0
 40
0
 40
0
 40
1
 40
1
 40
1
 40
1
 10
107.741817
 20
47.416869
 30
0.0
 10
105.643206
 20
48.469392
 30
0.0
 10
103.160957
 20
49.936594
 30
0.0
 10
102.225710
 20
50.677321
 30
0.0
  0
SPLINE
  5
176
100
AcDbEntity
  8
0
 62
7
100
AcDbSpline
 70
8
 71
3
 72
8
 73
4
 74
0
 40
0
 40
0
 40
0
 40
0
 40
1
 40
1
 40
1
 40
1
 10
102.225710
 20
50.677321
 30
0.0
 10
101.142914
 20
51.534912
 30
0.0
 10
100.525265
 20
51.818773
 30
0.0
 10
100.525265
 20
51.458816
 30
0.0
  0
SPLINE
  5
177
100
AcDbEntity
  8
0
 62
7
100
AcDbSpline
 70
8
 71
3
 72
8
 73
4
 74
0
 40
0
 40
0
 40
0
 40
0
 40
1
 40
1
 40
1
 40
1
 10
100.525265
 20
51.458816
 30
0.0
 10
100.525265
 20
50.685446
 30
0.0
 10
102.280048
 20
49.103609
 30
0.0
 10
105.160207
 20
47.280674
 30
0.0
  0
LINE
  5
178
100
AcDbEntity
  8
0
 62
7
100
AcDbLine
 10
105.160207
 20
47.280674
 30
0.0
 11
107.569513
 21
45.755754
 31
0.0
  0
LINE
  5
179
100
AcDbEntity
  8
0
 62
7
100
AcDbLine
 10
107.569513
 20
45.755754
 30
0.0
 11
104.469700
 21
42.831560
 31
0.0
  0
SPLINE
  5
17a
100
AcDbEntity
  8
0
 62
7
100
AcDbSpline
 70
8
 71
3
 72
8
 73
4
 74
0
 40
0
 40
0
 40
0
 40
0
 40
1
 40
1
 40
1
 40
1
 10
104.469700
 20
42.831560
 30
0.0
 10
102.764799
 20
41.223248
 30
0.0
 10
99.586492
 20
38.704632
 30
0.0
 10
97.406793
 20
37.234625
 30
0.0
  0
SPLINE
  5
17b
100
AcDbEntity
  8
0
 62
7
100
AcDbSpline
 70
8
 71
3
 72
8
 73
4
 74
0
 40
0
 40
0
 40
0
 40
0
 40
1
 40
1
 40
1
 40
1
 10
97.406793
 20
37.234625
 30
0.0
 10
93.283032
 20
34.453535
 30
0.0
 10
88.253586
 20
32.122571
 30
0.0
 10
88.659600
 20
33.180624
 30
0.0
  0
SPLINE
  5
17c
100
AcDbEntity
  8
0
 62
7
100
AcDbSpline
 70
8
 71
3
 72
8
 73
4
 74
0
 40
0
 40
0
 40
0
 40
0
 40
1
 40
1
 40
1
 40
1
 10
88.659600
 20
33.180624
 30
0.0
 10
88.966056
 20
33.979240
 30
0.0
 10
87.582640
 20
33.905469
 30
0.0
 10
86.351018
 20
33.057519
 30
0.0
  0
SPLINE
  5
17d
100
AcDbEntity
  8
0
 62
7
100
AcDbSpline
 70
8
 71
3
 72
8
 73
4
 74
0
 40
0
 40
0
 40
0
 40
0
 40
1
 40
1
 40
1
 40
1
 10
86.351018
 20
33.057519
 30
0.0
 10
85.408823
 20
32.408837
 30
0.0
 10
85.382868
 20
32.408837
 30
0.0
 10
85.905864
 20
33.057519
 30
0.0
  0
SPLINE
  5
17e
100
AcDbEntity
  8
0
 62
7
100
AcDbSpline
 70
8
 71
3
 72
8
 73
4
 74
0
 40
0
 40
0
 40
0
 40
0
 40
1
 40
1
 40
1
 40
1
 10
85.905864
 20
33.057519
 30
0.0
 10
86.415375
 20
33.689479
 30
0.0
 10
86.283493
 20
33.746364
 30
0.0
 10
84.308974
 20
33.746364
 30
0.0
  0
SPLINE
  5
17f
100
AcDbEntity
  8
0
 62
7
100
AcDbSpline
 70
8
 71
3
 72
8
 73
4
 74
0
 40
0
 40
0
 40
0
 40
0
 40
1
 40
1
 40
1
 40
1
 10
84.308974
 20
33.746364
 30
0.0
 10
82.642668
 20
33.746364
 30
0.0
 10
81.809164
 20
33.505519
 30
0.0
 10
80.617478
 20
32.679681
 30
0.0
  0
SPLINE
  5
180
100
AcDbEntity
  8
0
 62
7
100
AcDbSpline
 70
8
 71
3
 72
8
 73
4
 74
0
 40
0
 40
0
 40
0
 40
0
 40
1
 40
1
 40
1
 40
1
 10
80.617478
 20
32.679681
 30
0.0
 10
79.770904
 20
32.093002
 30
0.0
 10
79.078252
 20
31.550907
 30
0.0
 10
79.078252
 20
31.475025
 30
0.0
  0
SPLINE
  5
181
100
AcDbEntity
  8
0
 62
7
100
AcDbSpline
 70
8
 71
3
 72
8
 73
4
 74
0
 40
0
 40
0
 40
0
 40
0
 40
1
 40
1
 40
1
 40
1
 10
79.078252
 20
31.475025
 30
0.0
 10
79.078252
 20
31.399142
 30
0.0
 10
79.528710
 20
31.041905
 30
0.0
 10
80.079271
 20
30.681166
 30
0.0
  0
SPLINE
  5
182
100
AcDbEntity
  8
0
 62
7
100
AcDbSpline
 70
8
 71
3
 72
8
 73
4
 74
0
 40
0
 40
0
 40
0
 40
0
 40
1
 40
1
 40
1
 40
1
 10
80.079271
 20
30.681166
 30
0.0
 10
81.020351
 20
30.064544
 30
0.0
 10
81.171796
 20
30.079059
 30
0.0
 10
82.608402
 20
30.923522
 30
0.0
  0
LINE
  5
183
100
AcDbEntity
  8
0
 62
7
100
AcDbLine
 10
82.608402
 20
30.923522
 30
0.0
 11
84.136508
 21
31.821772
 31
0.0
  0
LINE
  5
184
100
AcDbEntity
  8
0
 62
7
100
AcDbLine
 10
84.136508
 20
31.821772
 30
0.0
 11
82.963094
 21
30.831468
 31
0.0
  0
LINE
  5
185
100
AcDbEntity
  8
0
 62
7
100
AcDbLine
 10
82.963094
 20
30.831468
 30
0.0
 11
81.789680
 21
29.841167
 31
0.0
  0
LINE
  5
186
100
AcDbEntity
  8
0
 62
7
100
AcDbLine
 10
81.789680
 20
29.841167
 30
0.0
 11
83.078622
 21
28.923359
 31
0.0
  0
SPLINE
  5
187
100
AcDbEntity
  8
0
 62
7
100
AcDbSpline
 70
8
 71
3
 72
8
 73
4
 74
0
 40
0
 40
0
 40
0
 40
0
 40
1
 40
1
 40
1
 40
1
 10
83.078622
 20
28.923359
 30
0.0
 10
83.787541
 20
28.418566
 30
0.0
 10
84.649080
 20
28.113578
 30
0.0
 10
84.993152
 20
28.245611
 30
0.0
  0
SPLINE
  5
188
100
AcDbEntity
  8
0
 62
7
100
AcDbSpline
 70
8
 71
3
 72
8
 73
4
 74
0
 40
0
 40
0
 40
0
 40
0
 40
1
 40
1
 40
1
 40
1
 10
84.993152
 20
28.245611
 30
0.0
 10
86.026128
 20
28.641999
 30
0.0
 10
99.335323
 20
37.370031
 30
0.0
 10
101.855100
 20
39.303500
 30
0.0
  0
SPLINE
  5
189
100
AcDbEntity
  8
0
 62
7
100
AcDbSpline
 70
8
 71
3
 72
8
 73
4
 74
0
 40
0
 40
0
 40
0
 40
0
 40
1
 40
1
 40
1
 40
1
 10
101.855100
 20
39.303500
 30
0.0
 10
103.142923
 20
40.291666
 30
0.0
 10
105.288138
 20
42.110745
 30
0.0
 10
106.622249
 20
43.345900
 30
0.0
  0
SPLINE
  5
18a
100
AcDbEntity
  8
0
 62
7
100
AcDbSpline
 70
8
 71
3
 72
8
 73
4
 74
0
 40
0
 40
0
 40
0
 40
0
 40
1
 40
1
 40
1
 40
1
 10
106.622249
 20
43.345900
 30
0.0
 10
110.334041
 20
46.782361
 30
0.0
 10
110.080141
 20
45.442127
 30
0.0
 10
106.336171
 20
41.835796
 30
0.0
  0
SPLINE
  5
18b
100
AcDbEntity
  8
0
 62
7
100
AcDbSpline
 70
8
 71
3
 72
8
 73
4
 74
0
 40
0
 40
0
 40
0
 40
0
 40
1
 40
1
 40
1
 40
1
 10
106.336171
 20
41.835796
 30
0.0
 10
104.096965
 20
39.678910
 30
0.0
 10
100.339271
 20
36.880896
 30
0.0
 10
94.601014
 20
33.097685
 30
0.0
  0
SPLINE
  5
18c
100
AcDbEntity
  8
0
 62
7
100
AcDbSpline
 70
8
 71
3
 72
8
 73
4
 74
0
 40
0
 40
0
 40
0
 40
0
 40
1
 40
1
 40
1
 40
1
 10
94.601014
 20
33.097685
 30
0.0
 10
85.980365
 20
27.414134
 30
0.0
 10
78.977199
 20
22.425174
 30
0.0
 10
78.471835
 20
21.607477
 30
0.0
  0
SPLINE
  5
18d
100
AcDbEntity
  8
0
 62
7
100
AcDbSpline
 70
8
 71
3
 72
8
 73
4
 74
0
 40
0
 40
0
 40
0
 40
0
 40
1
 40
1
 40
1
 40
1
 10
78.471835
 20
21.607477
 30
0.0
 10
78.316664
 20
21.356406
 30
0.0
 10
75.066354
 20
18.816956
 30
0.0
 10
71.248921
 20
15.964261
 30
0.0
  0
SPLINE
  5
18e
100
AcDbEntity
  8
0
 62
7
100
AcDbSpline
 70
8
 71
3
 72
8
 73
4
 74
0
 40
0
 40
0
 40
0
 40
0
 40
1
 40
1
 40
1
 40
1
 10
71.248921
 20
15.964261
 30
0.0
 10
67.431489
 20
13.111566
 30
0.0
 10
63.865086
 20
10.298818
 30
0.0
 10
63.323582
 20
9.713716
 30
0.0
  0
SPLINE
  5
18f
100
AcDbEntity
  8
0
 62
7
100
AcDbSpline
 70
8
 71
3
 72
8
 73
4
 74
0
 40
0
 40
0
 40
0
 40
0
 40
1
 40
1
 40
1
 40
1
 10
63.323582
 20
9.713716
 30
0.0
 10
62.616991
 20
8.950234
 30
0.0
 10
62.103776
 20
8.724550
 30
0.0
 10
61.505781
 20
8.914346
 30
0.0
  0
SPLINE
  5
190
100
AcDbEntity
  8
0
 62
7
100
AcDbSpline
 70
8
 71
3
 72
8
 73
4
 74
0
 40
0
 40
0
 40
0
 40
0
 40
1
 40
1
 40
1
 40
1
 10
61.505781
 20
8.914346
 30
0.0
 10
60.775269
 20
9.146203
 30
0.0
 10
60.739529
 20
9.098094
 30
0.0
 10
61.215882
 20
8.524117
 30
0.0
  0
SPLINE
  5
191
100
AcDbEntity
  8
0
 62
7
100
AcDbSpline
 70
8
 71
3
 72
8
 73
4
 74
0
 40
0
 40
0
 40
0
 40
0
 40
1
 40
1
 40
1
 40
1
 10
61.215882
 20
8.524117
 30
0.0
 10
61.701482
 20
7.939007
 30
0.0
 10
62.195687
 20
8.227207
 30
0.0
 10
65.866304
 20
11.236062
 30
0.0
  0
SPLINE
  5
192
100
AcDbEntity
  8
0
 62
7
100
AcDbSpline
 70
8
 71
3
 72
8
 73
4
 74
0
 40
0
 40
0
 40
0
 40
0
 40
1
 40
1
 40
1
 40
1
 10
65.866304
 20
11.236062
 30
0.0
 10
68.125200
 20
13.087711
 30
0.0
 10
72.067505
 20
16.154812
 30
0.0
 10
74.626984
 20
18.051850
 30
0.0
  0
LINE
  5
193
100
AcDbEntity
  8
0
 62
7
100
AcDbLine
 10
74.626984
 20
18.051850
 30
0.0
 11
74.626984
 21
18.051850
 31
0.0
  0
SPLINE
  5
194
100
AcDbEntity
  8
0
 62
7
100
AcDbSpline
 70
8
 71
3
 72
8
 73
4
 74
0
 40
0
 40
0
 40
0
 40
0
 40
1
 40
1
 40
1
 40
1
 10
55.203274
 20
14.820602
 30
0.0
 10
50.831193
 20
18.737145
 30
0.0
 10
41.666447
 20
25.581778
 30
0.0
 10
32.706394
 20
31.622250
 30
0.0
  0
SPLINE
  5
195
100
AcDbEntity
  8
0
 62
7
100
AcDbSpline
 70
8
 71
3
 72
8
 73
4
 74
0
 40
0
 40
0
 40
0
 40
0
 40
1
 40
1
 40
1
 40
1
 10
32.706394
 20
31.622250
 30
0.0
 10
23.342389
 20
37.935049
 30
0.0
 10
18.573835
 20
41.627598
 30
0.0
 10
16.740698
 20
43.985355
 30
0.0
  0
SPLINE
  5
196
100
AcDbEntity
  8
0
 62
7
100
AcDbSpline
 70
8
 71
3
 72
8
 73
4
 74
0
 40
0
 40
0
 40
0
 40
0
 40
1
 40
1
 40
1
 40
1
 10
16.740698
 20
43.985355
 30
0.0
 10
15.173666
 20
46.000858
 30
0.0
 10
16.285330
 20
45.671368
 30
0.0
 10
18.679658
 20
43.410662
 30
0.0
  0
SPLINE
  5
197
100
AcDbEntity
  8
0
 62
7
100
AcDbSpline
 70
8
 71
3
 72
8
 73
4
 74
0
 40
0
 40
0
 40
0
 40
0
 40
1
 40
1
 40
1
 40
1
 10
18.679658
 20
43.410662
 30
0.0
 10
22.316776
 20
39.976529
 30
0.0
 10
24.004244
 20
38.722534
 30
0.0
 10
34.032184
 20
32.001876
 30
0.0
  0
SPLINE
  5
198
100
AcDbEntity
  8
0
 62
7
100
AcDbSpline
 70
8
 71
3
 72
8
 73
4
 74
0
 40
0
 40
0
 40
0
 40
0
 40
1
 40
1
 40
1
 40
1
 10
34.032184
 20
32.001876
 30
0.0
 10
43.237813
 20
25.832328
 30
0.0
 10
47.643051
 20
22.575839
 30
0.0
 10
54.279298
 20
17.034570
 30
0.0
  0
SPLINE
  5
199
100
AcDbEntity
  8
0
 62
7
100
AcDbSpline
 70
8
 71
3
 72
8
 73
4
 74
0
 40
0
 40
0
 40
0
 40
0
 40
1
 40
1
 40
1
 40
1
 10
54.279298
 20
17.034570
 30
0.0
 10
56.108035
 20
15.507577
 30
0.0
 10
57.802874
 20
14.380966
 30
0.0
 10
58.045618
 20
14.530990
 30
0.0
  0
SPLINE
  5
19a
100
AcDbEntity
  8
0
 62
7
100
AcDbSpline
 70
8
 71
3
 72
8
 73
4
 74
0
 40
0
 40
0
 40
0
 40
0
 40
1
 40
1
 40
1
 40
1
 10
58.045618
 20
14.530990
 30
0.0
 10
58.571150
 20
14.855792
 30
0.0
 10
56.901070
 20
16.402877
 30
0.0
 10
51.628679
 20
20.475357
 30
0.0
  0
LINE
  5
19b
100
AcDbEntity
  8
0
 62
7
100
AcDbLine
 10
51.628679
 20
20.475357
 30
0.0
 11
47.851754
 21
23.392713
 31
0.0
  0
LINE
  5
19c
100
AcDbEntity
  8
0
 62
7
100
AcDbLine
 10
47.851754
 20
23.392713
 30
0.0
 11
49.403046
 21
23.928849
 31
0.0
  0
SPLINE
  5
19d
100
AcDbEntity
  8
0
 62
7
100
AcDbSpline
 70
8
 71
3
 72
8
 73
4
 74
0
 40
0
 40
0
 40
0
 40
0
 40
1
 40
1
 40
1
 40
1
 10
49.403046
 20
23.928849
 30
0.0
 10
50.256256
 20
24.223725
 30
0.0
 10
51.293158
 20
24.803056
 30
0.0
 10
51.707276
 20
25.216256
 30
0.0
  0
SPLINE
  5
19e
100
AcDbEntity
  8
0
 62
7
100
AcDbSpline
 70
8
 71
3
 72
8
 73
4
 74
0
 40
0
 40
0
 40
0
 40
0
 40
1
 40
1
 40
1
 40
1
 10
51.707276
 20
25.216256
 30
0.0
 10
52.440987
 20
25.948345
 30
0.0
 10
52.399651
 20
25.964061
 30
0.0
 10
50.088635
 20
25.831748
 30
0.0
  0
LINE
  5
19f
100
AcDbEntity
  8
0
 62
7
100
AcDbLine
 10
50.088635
 20
25.831748
 30
0.0
 11
47.717052
 21
25.695967
 31
0.0
  0
LINE
  5
1a0
100
AcDbEntity
  8
0
 62
7
100
AcDbLine
 10
47.717052
 20
25.695967
 30
0.0
 11
49.740356
 21
26.233481
 31
0.0
  0
SPLINE
  5
1a1
100
AcDbEntity
  8
0
 62
7
100
AcDbSpline
 70
8
 71
3
 72
8
 73
4
 74
0
 40
0
 40
0
 40
0
 40
0
 40
1
 40
1
 40
1
 40
1
 10
49.740356
 20
26.233481
 30
0.0
 10
50.853172
 20
26.529108
 30
0.0
 10
51.399462
 20
26.807002
 30
0.0
 10
50.954335
 20
26.851008
 30
0.0
  0
SPLINE
  5
1a2
100
AcDbEntity
  8
0
 62
7
100
AcDbSpline
 70
8
 71
3
 72
8
 73
4
 74
0
 40
0
 40
0
 40
0
 40
0
 40
1
 40
1
 40
1
 40
1
 10
50.954335
 20
26.851008
 30
0.0
 10
50.494624
 20
26.896461
 30
0.0
 10
50.364613
 20
27.019561
 30
0.0
 10
50.653361
 20
27.135975
 30
0.0
  0
SPLINE
  5
1a3
100
AcDbEntity
  8
0
 62
7
100
AcDbSpline
 70
8
 71
3
 72
8
 73
4
 74
0
 40
0
 40
0
 40
0
 40
0
 40
1
 40
1
 40
1
 40
1
 10
50.653361
 20
27.135975
 30
0.0
 10
51.471067
 20
27.465640
 30
0.0
 10
50.800089
 20
28.080569
 30
0.0
 10
49.615306
 20
28.087310
 30
0.0
  0
SPLINE
  5
1a4
100
AcDbEntity
  8
0
 62
7
100
AcDbSpline
 70
8
 71
3
 72
8
 73
4
 74
0
 40
0
 40
0
 40
0
 40
0
 40
1
 40
1
 40
1
 40
1
 10
49.615306
 20
28.087310
 30
0.0
 10
48.775134
 20
28.092099
 30
0.0
 10
48.664263
 20
28.180687
 30
0.0
 10
49.129980
 20
28.475121
 30
0.0
  0
SPLINE
  5
1a5
100
AcDbEntity
  8
0
 62
7
100
AcDbSpline
 70
8
 71
3
 72
8
 73
4
 74
0
 40
0
 40
0
 40
0
 40
0
 40
1
 40
1
 40
1
 40
1
 10
49.129980
 20
28.475121
 30
0.0
 10
49.558103
 20
28.745792
 30
0.0
 10
49.607908
 20
28.982417
 30
0.0
 10
49.301301
 20
29.289024
 30
0.0
  0
SPLINE
  5
1a6
100
AcDbEntity
  8
0
 62
7
100
AcDbSpline
 70
8
 71
3
 72
8
 73
4
 74
0
 40
0
 40
0
 40
0
 40
0
 40
1
 40
1
 40
1
 40
1
 10
49.301301
 20
29.289024
 30
0.0
 10
48.994699
 20
29.595629
 30
0.0
 10
48.252268
 20
29.589040
 30
0.0
 10
46.747635
 20
29.266349
 30
0.0
  0
SPLINE
  5
1a7
100
AcDbEntity
  8
0
 62
7
100
AcDbSpline
 70
8
 71
3
 72
8
 73
4
 74
0
 40
0
 40
0
 40
0
 40
0
 40
1
 40
1
 40
1
 40
1
 10
46.747635
 20
29.266349
 30
0.0
 10
45.580875
 20
29.016125
 30
0.0
 10
44.517420
 20
28.920227
 30
0.0
 10
44.384403
 20
29.053249
 30
0.0
  0
SPLINE
  5
1a8
100
AcDbEntity
  8
0
 62
7
100
AcDbSpline
 70
8
 71
3
 72
8
 73
4
 74
0
 40
0
 40
0
 40
0
 40
0
 40
1
 40
1
 40
1
 40
1
 10
44.384403
 20
29.053249
 30
0.0
 10
44.251384
 20
29.186263
 30
0.0
 10
44.400516
 20
29.296112
 30
0.0
 10
44.715820
 20
29.297356
 30
0.0
  0
SPLINE
  5
1a9
100
AcDbEntity
  8
0
 62
7
100
AcDbSpline
 70
8
 71
3
 72
8
 73
4
 74
0
 40
0
 40
0
 40
0
 40
0
 40
1
 40
1
 40
1
 40
1
 10
44.715820
 20
29.297356
 30
0.0
 10
45.031119
 20
29.298679
 30
0.0
 10
45.976618
 20
29.490539
 30
0.0
 10
46.816924
 20
29.723896
 30
0.0
  0
SPLINE
  5
1aa
100
AcDbEntity
  8
0
 62
7
100
AcDbSpline
 70
8
 71
3
 72
8
 73
4
 74
0
 40
0
 40
0
 40
0
 40
0
 40
1
 40
1
 40
1
 40
1
 10
46.816924
 20
29.723896
 30
0.0
 10
48.505598
 20
30.192846
 30
0.0
 10
48.485061
 20
30.910248
 30
0.0
 10
46.782690
 20
30.919934
 30
0.0
  0
SPLINE
  5
1ab
100
AcDbEntity
  8
0
 62
7
100
AcDbSpline
 70
8
 71
3
 72
8
 73
4
 74
0
 40
0
 40
0
 40
0
 40
0
 40
1
 40
1
 40
1
 40
1
 10
46.782690
 20
30.919934
 30
0.0
 10
46.042801
 20
30.924141
 30
0.0
 10
45.864615
 20
31.034475
 30
0.0
 10
46.226800
 20
31.264131
 30
0.0
  0
SPLINE
  5
1ac
100
AcDbEntity
  8
0
 62
7
100
AcDbSpline
 70
8
 71
3
 72
8
 73
4
 74
0
 40
0
 40
0
 40
0
 40
0
 40
1
 40
1
 40
1
 40
1
 10
46.226800
 20
31.264131
 30
0.0
 10
47.200869
 20
31.881793
 30
0.0
 10
40.410182
 20
36.985324
 30
0.0
 10
38.619426
 20
36.981435
 30
0.0
  0
SPLINE
  5
1ad
100
AcDbEntity
  8
0
 62
7
100
AcDbSpline
 70
8
 71
3
 72
8
 73
4
 74
0
 40
0
 40
0
 40
0
 40
0
 40
1
 40
1
 40
1
 40
1
 10
38.619426
 20
36.981435
 30
0.0
 10
37.809994
 20
36.979848
 30
0.0
 10
38.158776
 20
36.644290
 30
0.0
 10
40.316091
 20
35.349901
 30
0.0
  0
SPLINE
  5
1ae
100
AcDbEntity
  8
0
 62
7
100
AcDbSpline
 70
8
 71
3
 72
8
 73
4
 74
0
 40
0
 40
0
 40
0
 40
0
 40
1
 40
1
 40
1
 40
1
 10
40.316091
 20
35.349901
 30
0.0
 10
42.839845
 20
33.835653
 30
0.0
 10
43.753938
 20
33.068388
 30
0.0
 10
43.407480
 20
32.755058
 30
0.0
  0
SPLINE
  5
1af
100
AcDbEntity
  8
0
 62
7
100
AcDbSpline
 70
8
 71
3
 72
8
 73
4
 74
0
 40
0
 40
0
 40
0
 40
0
 40
1
 40
1
 40
1
 40
1
 10
43.407480
 20
32.755058
 30
0.0
 10
43.329554
 20
32.684586
 30
0.0
 10
42.628456
 20
32.507746
 30
0.0
 10
41.849483
 20
32.362085
 30
0.0
  0
SPLINE
  5
1b0
100
AcDbEntity
  8
0
 62
7
100
AcDbSpline
 70
8
 71
3
 72
8
 73
4
 74
0
 40
0
 40
0
 40
0
 40
0
 40
1
 40
1
 40
1
 40
1
 10
41.849483
 20
32.362085
 30
0.0
 10
40.442805
 20
32.099042
 30
0.0
 10
40.440051
 20
32.101378
 30
0.0
 10
41.444822
 20
32.705136
 30
0.0
  0
LINE
  5
1b1
100
AcDbEntity
  8
0
 62
7
100
AcDbLine
 10
41.444822
 20
32.705136
 30
0.0
 11
42.456475
 21
33.313024
 31
0.0
  0
LINE
  5
1b2
100
AcDbEntity
  8
0
 62
7
100
AcDbLine
 10
42.456475
 20
33.313024
 30
0.0
 11
41.242492
 21
33.338318
 31
0.0
  0
SPLINE
  5
1b3
100
AcDbEntity
  8
0
 62
7
100
AcDbSpline
 70
8
 71
3
 72
8
 73
4
 74
0
 40
0
 40
0
 40
0
 40
0
 40
1
 40
1
 40
1
 40
1
 10
41.242492
 20
33.338318
 30
0.0
 10
40.574803
 20
33.352236
 30
0.0
 10
38.309604
 20
33.529840
 30
0.0
 10
36.208726
 20
33.732997
 30
0.0
  0
LINE
  5
1b4
100
AcDbEntity
  8
0
 62
7
100
AcDbLine
 10
36.208726
 20
33.732997
 30
0.0
 11
32.388941
 21
34.102382
 31
0.0
  0
LINE
  5
1b5
100
AcDbEntity
  8
0
 62
7
100
AcDbLine
 10
32.388941
 20
34.102382
 30
0.0
 11
28.520172
 21
36.747170
 31
0.0
  0
SPLINE
  5
1b6
100
AcDbEntity
  8
0
 62
7
100
AcDbSpline
 70
8
 71
3
 72
8
 73
4
 74
0
 40
0
 40
0
 40
0
 40
0
 40
1
 40
1
 40
1
 40
1
 10
28.520172
 20
36.747170
 30
0.0
 10
24.662477
 20
39.384397
 30
0.0
 10
19.121693
 20
44.009745
 30
0.0
 10
18.138222
 20
45.413851
 30
0.0
  0
SPLINE
  5
1b7
100
AcDbEntity
  8
0
 62
7
100
AcDbSpline
 70
8
 71
3
 72
8
 73
4
 74
0
 40
0
 40
0
 40
0
 40
0
 40
1
 40
1
 40
1
 40
1
 10
18.138222
 20
45.413851
 30
0.0
 10
17.675036
 20
46.075145
 30
0.0
 10
17.800213
 20
46.241619
 30
0.0
 10
19.314672
 20
46.978417
 30
0.0
  0
SPLINE
  5
1b8
100
AcDbEntity
  8
0
 62
7
100
AcDbSpline
 70
8
 71
3
 72
8
 73
4
 74
0
 40
0
 40
0
 40
0
 40
0
 40
1
 40
1
 40
1
 40
1
 10
19.314672
 20
46.978417
 30
0.0
 10
21.336449
 20
47.962029
 30
0.0
 10
25.555458
 20
51.654742
 30
0.0
 10
24.905144
 20
51.871515
 30
0.0
  0
SPLINE
  5
1b9
100
AcDbEntity
  8
0
 62
7
100
AcDbSpline
 70
8
 71
3
 72
8
 73
4
 74
0
 40
0
 40
0
 40
0
 40
0
 40
1
 40
1
 40
1
 40
1
 10
24.905144
 20
51.871515
 30
0.0
 10
24.654031
 20
51.955219
 30
0.0
 10
23.706418
 20
51.435908
 30
0.0
 10
22.799338
 20
50.717485
 30
0.0
  0
SPLINE
  5
1ba
100
AcDbEntity
  8
0
 62
7
100
AcDbSpline
 70
8
 71
3
 72
8
 73
4
 74
0
 40
0
 40
0
 40
0
 40
0
 40
1
 40
1
 40
1
 40
1
 10
22.799338
 20
50.717485
 30
0.0
 10
21.892259
 20
49.999067
 30
0.0
 10
19.570628
 20
48.600239
 30
0.0
 10
17.640166
 20
47.608988
 30
0.0
  0
SPLINE
  5
1bb
100
AcDbEntity
  8
0
 62
7
100
AcDbSpline
 70
8
 71
3
 72
8
 73
4
 74
0
 40
0
 40
0
 40
0
 40
0
 40
1
 40
1
 40
1
 40
1
 10
17.640166
 20
47.608988
 30
0.0
 10
15.709700
 20
46.617734
 30
0.0
 10
14.059421
 20
45.738609
 30
0.0
 10
13.972880
 20
45.655379
 30
0.0
  0
SPLINE
  5
1bc
100
AcDbEntity
  8
0
 62
7
100
AcDbSpline
 70
8
 71
3
 72
8
 73
4
 74
0
 40
0
 40
0
 40
0
 40
0
 40
1
 40
1
 40
1
 40
1
 10
13.972880
 20
45.655379
 30
0.0
 10
13.650313
 20
45.345144
 30
0.0
 10
20.309312
 20
38.829274
 30
0.0
 10
23.235093
 20
36.592246
 30
0.0
  0
SPLINE
  5
1bd
100
AcDbEntity
  8
0
 62
7
100
AcDbSpline
 70
8
 71
3
 72
8
 73
4
 74
0
 40
0
 40
0
 40
0
 40
0
 40
1
 40
1
 40
1
 40
1
 10
23.235093
 20
36.592246
 30
0.0
 10
24.904318
 20
35.315968
 30
0.0
 10
29.729897
 20
32.004596
 30
0.0
 10
33.958600
 20
29.233634
 30
0.0
  0
SPLINE
  5
1be
100
AcDbEntity
  8
0
 62
7
100
AcDbSpline
 70
8
 71
3
 72
8
 73
4
 74
0
 40
0
 40
0
 40
0
 40
0
 40
1
 40
1
 40
1
 40
1
 10
33.958600
 20
29.233634
 30
0.0
 10
41.996872
 20
23.966364
 30
0.0
 10
50.066571
 20
18.211796
 30
0.0
 10
54.191629
 20
14.805296
 30
0.0
  0
SPLINE
  5
1bf
100
AcDbEntity
  8
0
 62
7
100
AcDbSpline
 70
8
 71
3
 72
8
 73
4
 74
0
 40
0
 40
0
 40
0
 40
0
 40
1
 40
1
 40
1
 40
1
 10
54.191629
 20
14.805296
 30
0.0
 10
57.051690
 20
12.443438
 30
0.0
 10
57.843559
 20
12.455421
 30
0.0
 10
55.203282
 20
14.820589
 30
0.0
  0
LINE
  5
1c0
100
AcDbEntity
  8
0
 62
7
100
AcDbLine
 10
55.203282
 20
14.820589
 30
0.0
 11
55.203274
 21
14.820602
 31
0.0
  0
SPLINE
  5
1c1
100
AcDbEntity
  8
0
 62
7
100
AcDbSpline
 70
8
 71
3
 72
8
 73
4
 74
0
 40
0
 40
0
 40
0
 40
0
 40
1
 40
1
 40
1
 40
1
 10
44.606225
 20
30.785507
 30
0.0
 10
44.898338
 20
30.902403
 30
0.0
 10
45.247358
 20
30.888028
 30
0.0
 10
45.381827
 20
30.753580
 30
0.0
  0
SPLINE
  5
1c2
100
AcDbEntity
  8
0
 62
7
100
AcDbSpline
 70
8
 71
3
 72
8
 73
4
 74
0
 40
0
 40
0
 40
0
 40
0
 40
1
 40
1
 40
1
 40
1
 10
45.381827
 20
30.753580
 30
0.0
 10
45.516291
 20
30.619116
 30
0.0
 10
45.277287
 20
30.523475
 30
0.0
 10
44.850710
 20
30.541043
 30
0.0
  0
SPLINE
  5
1c3
100
AcDbEntity
  8
0
 62
7
100
AcDbSpline
 70
8
 71
3
 72
8
 73
4
 74
0
 40
0
 40
0
 40
0
 40
0
 40
1
 40
1
 40
1
 40
1
 10
44.850710
 20
30.541043
 30
0.0
 10
44.379299
 20
30.560463
 30
0.0
 10
44.283417
 20
30.656348
 30
0.0
 10
44.606225
 20
30.785523
 30
0.0
  0
LINE
  5
1c4
100
AcDbEntity
  8
0
 62
7
100
AcDbLine
 10
44.606225
 20
30.785523
 30
0.0
 11
44.606225
 21
30.785507
 31
0.0
  0
SPLINE
  5
1c5
100
AcDbEntity
  8
0
 62
7
100
AcDbSpline
 70
8
 71
3
 72
8
 73
4
 74
0
 40
0
 40
0
 40
0
 40
0
 40
1
 40
1
 40
1
 40
1
 10
59.303918
 20
19.293476
 30
0.0
 10
58.210165
 20
21.063205
 30
0.0
 10
54.215695
 20
24.843831
 30
0.0
 10
53.439619
 20
24.843831
 30
0.0
  0
SPLINE
  5
1c6
100
AcDbEntity
  8
0
 62
7
100
AcDbSpline
 70
8
 71
3
 72
8
 73
4
 74
0
 40
0
 40
0
 40
0
 40
0
 40
1
 40
1
 40
1
 40
1
 10
53.439619
 20
24.843831
 30
0.0
 10
51.624136
 20
24.843831
 30
0.0
 10
51.657749
 20
24.311937
 30
0.0
 10
53.532271
 20
23.377823
 30
0.0
  0
SPLINE
  5
1c7
100
AcDbEntity
  8
0
 62
7
100
AcDbSpline
 70
8
 71
3
 72
8
 73
4
 74
0
 40
0
 40
0
 40
0
 40
0
 40
1
 40
1
 40
1
 40
1
 10
53.532271
 20
23.377823
 30
0.0
 10
54.611671
 20
22.839933
 30
0.0
 10
56.476282
 20
21.349699
 30
0.0
 10
57.675847
 20
20.066189
 30
0.0
  0
SPLINE
  5
1c8
100
AcDbEntity
  8
0
 62
7
100
AcDbSpline
 70
8
 71
3
 72
8
 73
4
 74
0
 40
0
 40
0
 40
0
 40
0
 40
1
 40
1
 40
1
 40
1
 10
57.675847
 20
20.066189
 30
0.0
 10
58.875410
 20
18.782682
 30
0.0
 10
59.923165
 20
17.775175
 30
0.0
 10
60.004196
 20
17.827288
 30
0.0
  0
SPLINE
  5
1c9
100
AcDbEntity
  8
0
 62
7
100
AcDbSpline
 70
8
 71
3
 72
8
 73
4
 74
0
 40
0
 40
0
 40
0
 40
0
 40
1
 40
1
 40
1
 40
1
 10
60.004196
 20
17.827288
 30
0.0
 10
60.085220
 20
17.879395
 30
0.0
 10
59.770098
 20
18.539181
 30
0.0
 10
59.303918
 20
19.293476
 30
0.0
  0
LINE
  5
1ca
100
AcDbEntity
  8
0
 62
7
100
AcDbLine
 10
59.303918
 20
19.293476
 30
0.0
 11
59.303918
 21
19.293476
 31
0.0
  0
SPLINE
  5
1cb
100
AcDbEntity
  8
0
 62
7
100
AcDbSpline
 70
8
 71
3
 72
8
 73
4
 74
0
 40
0
 40
0
 40
0
 40
0
 40
1
 40
1
 40
1
 40
1
 10
73.008342
 20
18.728009
 30
0.0
 10
73.008342
 20
19.104789
 30
0.0
 10
67.643577
 20
23.629849
 30
0.0
 10
67.196881
 20
23.629849
 30
0.0
  0
SPLINE
  5
1cc
100
AcDbEntity
  8
0
 62
7
100
AcDbSpline
 70
8
 71
3
 72
8
 73
4
 74
0
 40
0
 40
0
 40
0
 40
0
 40
1
 40
1
 40
1
 40
1
 10
67.196881
 20
23.629849
 30
0.0
 10
67.054736
 20
23.629849
 30
0.0
 10
66.938430
 20
23.364972
 30
0.0
 10
66.938430
 20
23.041230
 30
0.0
  0
SPLINE
  5
1cd
100
AcDbEntity
  8
0
 62
7
100
AcDbSpline
 70
8
 71
3
 72
8
 73
4
 74
0
 40
0
 40
0
 40
0
 40
0
 40
1
 40
1
 40
1
 40
1
 10
66.938430
 20
23.041230
 30
0.0
 10
66.938430
 20
22.717489
 30
0.0
 10
68.073906
 20
21.533857
 30
0.0
 10
69.461706
 20
20.410936
 30
0.0
  0
SPLINE
  5
1ce
100
AcDbEntity
  8
0
 62
7
100
AcDbSpline
 70
8
 71
3
 72
8
 73
4
 74
0
 40
0
 40
0
 40
0
 40
0
 40
1
 40
1
 40
1
 40
1
 10
69.461706
 20
20.410936
 30
0.0
 10
71.854209
 20
18.475072
 30
0.0
 10
73.008342
 20
17.927419
 30
0.0
 10
73.008342
 20
18.728009
 30
0.0
  0
LINE
  5
1cf
100
AcDbEntity
  8
0
 62
7
100
AcDbLine
 10
73.008342
 20
18.728009
 30
0.0
 11
73.008342
 21
18.728009
 31
0.0
  0
SPLINE
  5
1d0
100
AcDbEntity
  8
0
 62
7
100
AcDbSpline
 70
8
 71
3
 72
8
 73
4
 74
0
 40
0
 40
0
 40
0
 40
0
 40
1
 40
1
 40
1
 40
1
 10
75.942130
 20
20.531509
 30
0.0
 10
76.331617
 20
20.838005
 30
0.0
 10
76.650287
 20
21.271083
 30
0.0
 10
76.650287
 20
21.493897
 30
0.0
  0
SPLINE
  5
1d1
100
AcDbEntity
  8
0
 62
7
100
AcDbSpline
 70
8
 71
3
 72
8
 73
4
 74
0
 40
0
 40
0
 40
0
 40
0
 40
1
 40
1
 40
1
 40
1
 10
76.650287
 20
21.493897
 30
0.0
 10
76.650287
 20
22.025140
 30
0.0
 10
70.850901
 20
26.462473
 30
0.0
 10
70.156592
 20
26.462473
 30
0.0
  0
SPLINE
  5
1d2
100
AcDbEntity
  8
0
 62
7
100
AcDbSpline
 70
8
 71
3
 72
8
 73
4
 74
0
 40
0
 40
0
 40
0
 40
0
 40
1
 40
1
 40
1
 40
1
 10
70.156592
 20
26.462473
 30
0.0
 10
69.530368
 20
26.462473
 30
0.0
 10
67.747754
 20
24.878042
 30
0.0
 10
67.747754
 20
24.321435
 30
0.0
  0
SPLINE
  5
1d3
100
AcDbEntity
  8
0
 62
7
100
AcDbSpline
 70
8
 71
3
 72
8
 73
4
 74
0
 40
0
 40
0
 40
0
 40
0
 40
1
 40
1
 40
1
 40
1
 10
67.747754
 20
24.321435
 30
0.0
 10
67.747754
 20
24.111711
 30
0.0
 10
68.112199
 20
24.035421
 30
0.0
 10
68.557633
 20
24.151906
 30
0.0
  0
SPLINE
  5
1d4
100
AcDbEntity
  8
0
 62
7
100
AcDbSpline
 70
8
 71
3
 72
8
 73
4
 74
0
 40
0
 40
0
 40
0
 40
0
 40
1
 40
1
 40
1
 40
1
 10
68.557633
 20
24.151906
 30
0.0
 10
69.003067
 20
24.268386
 30
0.0
 10
69.264602
 20
24.197184
 30
0.0
 10
69.138822
 20
23.993667
 30
0.0
  0
SPLINE
  5
1d5
100
AcDbEntity
  8
0
 62
7
100
AcDbSpline
 70
8
 71
3
 72
8
 73
4
 74
0
 40
0
 40
0
 40
0
 40
0
 40
1
 40
1
 40
1
 40
1
 10
69.138822
 20
23.993667
 30
0.0
 10
68.807609
 20
23.457751
 30
0.0
 10
70.097233
 20
22.299164
 30
0.0
 10
70.747303
 20
22.548616
 30
0.0
  0
SPLINE
  5
1d6
100
AcDbEntity
  8
0
 62
7
100
AcDbSpline
 70
8
 71
3
 72
8
 73
4
 74
0
 40
0
 40
0
 40
0
 40
0
 40
1
 40
1
 40
1
 40
1
 10
70.747303
 20
22.548616
 30
0.0
 10
71.138812
 20
22.698854
 30
0.0
 10
71.234705
 20
22.517577
 30
0.0
 10
71.078903
 20
21.921776
 30
0.0
  0
SPLINE
  5
1d7
100
AcDbEntity
  8
0
 62
7
100
AcDbSpline
 70
8
 71
3
 72
8
 73
4
 74
0
 40
0
 40
0
 40
0
 40
0
 40
1
 40
1
 40
1
 40
1
 10
71.078903
 20
21.921776
 30
0.0
 10
70.889355
 20
21.196944
 30
0.0
 10
71.005489
 20
21.111447
 30
0.0
 10
71.937566
 20
21.289625
 30
0.0
  0
SPLINE
  5
1d8
100
AcDbEntity
  8
0
 62
7
100
AcDbSpline
 70
8
 71
3
 72
8
 73
4
 74
0
 40
0
 40
0
 40
0
 40
0
 40
1
 40
1
 40
1
 40
1
 10
71.937566
 20
21.289625
 30
0.0
 10
72.777927
 20
21.450270
 30
0.0
 10
72.921149
 20
21.382081
 30
0.0
 10
72.587570
 20
20.980145
 30
0.0
  0
SPLINE
  5
1d9
100
AcDbEntity
  8
0
 62
7
100
AcDbSpline
 70
8
 71
3
 72
8
 73
4
 74
0
 40
0
 40
0
 40
0
 40
0
 40
1
 40
1
 40
1
 40
1
 10
72.587570
 20
20.980145
 30
0.0
 10
72.092194
 20
20.383250
 30
0.0
 10
72.740817
 20
19.774801
 30
0.0
 10
73.423029
 20
20.196430
 30
0.0
  0
SPLINE
  5
1da
100
AcDbEntity
  8
0
 62
7
100
AcDbSpline
 70
8
 71
3
 72
8
 73
4
 74
0
 40
0
 40
0
 40
0
 40
0
 40
1
 40
1
 40
1
 40
1
 10
73.423029
 20
20.196430
 30
0.0
 10
73.651105
 20
20.337390
 30
0.0
 10
73.811636
 20
20.302613
 30
0.0
 10
73.779769
 20
20.119148
 30
0.0
  0
SPLINE
  5
1db
100
AcDbEntity
  8
0
 62
7
100
AcDbSpline
 70
8
 71
3
 72
8
 73
4
 74
0
 40
0
 40
0
 40
0
 40
0
 40
1
 40
1
 40
1
 40
1
 10
73.779769
 20
20.119148
 30
0.0
 10
73.592024
 20
19.038370
 30
0.0
 10
74.189506
 20
19.152310
 30
0.0
 10
75.942130
 20
20.531509
 30
0.0
  0
LINE
  5
1dc
100
AcDbEntity
  8
0
 62
7
100
AcDbLine
 10
75.942130
 20
20.531509
 30
0.0
 11
75.942130
 21
20.531509
 31
0.0
  0
SPLINE
  5
1dd
100
AcDbEntity
  8
0
 62
7
100
AcDbSpline
 70
8
 71
3
 72
8
 73
4
 74
0
 40
0
 40
0
 40
0
 40
0
 40
1
 40
1
 40
1
 40
1
 10
64.056076
 20
26.185634
 30
0.0
 10
64.741682
 20
28.815415
 30
0.0
 10
65.652278
 20
31.455824
 30
0.0
 10
66.079617
 20
32.053213
 30
0.0
  0
SPLINE
  5
1de
100
AcDbEntity
  8
0
 62
7
100
AcDbSpline
 70
8
 71
3
 72
8
 73
4
 74
0
 40
0
 40
0
 40
0
 40
0
 40
1
 40
1
 40
1
 40
1
 10
66.079617
 20
32.053213
 30
0.0
 10
66.993078
 20
33.330172
 30
0.0
 10
70.958904
 20
37.122230
 30
0.0
 10
76.050596
 20
41.587302
 30
0.0
  0
SPLINE
  5
1df
100
AcDbEntity
  8
0
 62
7
100
AcDbSpline
 70
8
 71
3
 72
8
 73
4
 74
0
 40
0
 40
0
 40
0
 40
0
 40
1
 40
1
 40
1
 40
1
 10
76.050596
 20
41.587302
 30
0.0
 10
79.594864
 20
44.695386
 30
0.0
 10
85.533712
 20
51.011641
 30
0.0
 10
85.546451
 20
51.686603
 30
0.0
  0
SPLINE
  5
1e0
100
AcDbEntity
  8
0
 62
7
100
AcDbSpline
 70
8
 71
3
 72
8
 73
4
 74
0
 40
0
 40
0
 40
0
 40
0
 40
1
 40
1
 40
1
 40
1
 10
85.546451
 20
51.686603
 30
0.0
 10
85.554786
 20
52.127807
 30
0.0
 10
83.458799
 20
50.453275
 30
0.0
 10
78.336709
 20
45.926542
 30
0.0
  0
SPLINE
  5
1e1
100
AcDbEntity
  8
0
 62
7
100
AcDbSpline
 70
8
 71
3
 72
8
 73
4
 74
0
 40
0
 40
0
 40
0
 40
0
 40
1
 40
1
 40
1
 40
1
 10
78.336709
 20
45.926542
 30
0.0
 10
73.898967
 20
42.004610
 30
0.0
 10
72.550738
 20
41.125032
 30
0.0
 10
75.352051
 20
43.979362
 30
0.0
  0
SPLINE
  5
1e2
100
AcDbEntity
  8
0
 62
7
100
AcDbSpline
 70
8
 71
3
 72
8
 73
4
 74
0
 40
0
 40
0
 40
0
 40
0
 40
1
 40
1
 40
1
 40
1
 10
75.352051
 20
43.979362
 30
0.0
 10
78.126122
 20
46.805938
 30
0.0
 10
77.289872
 20
46.697991
 30
0.0
 10
74.359104
 20
43.851190
 30
0.0
  0
SPLINE
  5
1e3
100
AcDbEntity
  8
0
 62
7
100
AcDbSpline
 70
8
 71
3
 72
8
 73
4
 74
0
 40
0
 40
0
 40
0
 40
0
 40
1
 40
1
 40
1
 40
1
 10
74.359104
 20
43.851190
 30
0.0
 10
71.692802
 20
41.261282
 30
0.0
 10
71.924146
 20
41.722808
 30
0.0
 10
75.406944
 20
45.941600
 30
0.0
  0
LINE
  5
1e4
100
AcDbEntity
  8
0
 62
7
100
AcDbLine
 10
75.406944
 20
45.941600
 30
0.0
 11
77.198549
 21
48.111818
 31
0.0
  0
LINE
  5
1e5
100
AcDbEntity
  8
0
 62
7
100
AcDbLine
 10
77.198549
 20
48.111818
 30
0.0
 11
74.418397
 21
45.481524
 31
0.0
  0
SPLINE
  5
1e6
100
AcDbEntity
  8
0
 62
7
100
AcDbSpline
 70
8
 71
3
 72
8
 73
4
 74
0
 40
0
 40
0
 40
0
 40
0
 40
1
 40
1
 40
1
 40
1
 10
74.418397
 20
45.481524
 30
0.0
 10
71.217941
 20
42.453577
 30
0.0
 10
71.287699
 20
42.593647
 30
0.0
 10
75.813666
 20
48.282908
 30
0.0
  0
SPLINE
  5
1e7
100
AcDbEntity
  8
0
 62
7
100
AcDbSpline
 70
8
 71
3
 72
8
 73
4
 74
0
 40
0
 40
0
 40
0
 40
0
 40
1
 40
1
 40
1
 40
1
 10
75.813666
 20
48.282908
 30
0.0
 10
78.623856
 20
51.815397
 30
0.0
 10
78.904915
 20
52.291478
 30
0.0
 10
77.543668
 20
51.213348
 30
0.0
  0
SPLINE
  5
1e8
100
AcDbEntity
  8
0
 62
7
100
AcDbSpline
 70
8
 71
3
 72
8
 73
4
 74
0
 40
0
 40
0
 40
0
 40
0
 40
1
 40
1
 40
1
 40
1
 10
77.543668
 20
51.213348
 30
0.0
 10
75.848213
 20
49.870522
 30
0.0
 10
72.305305
 20
45.981586
 30
0.0
 10
69.464905
 20
42.345545
 30
0.0
  0
SPLINE
  5
1e9
100
AcDbEntity
  8
0
 62
7
100
AcDbSpline
 70
8
 71
3
 72
8
 73
4
 74
0
 40
0
 40
0
 40
0
 40
0
 40
1
 40
1
 40
1
 40
1
 10
69.464905
 20
42.345545
 30
0.0
 10
66.525609
 20
38.582910
 30
0.0
 10
64.005458
 20
34.162805
 30
0.0
 10
62.870039
 20
30.778779
 30
0.0
  0
LINE
  5
1ea
100
AcDbEntity
  8
0
 62
7
100
AcDbLine
 10
62.870039
 20
30.778779
 30
0.0
 11
61.762511
 21
27.477877
 31
0.0
  0
LINE
  5
1eb
100
AcDbEntity
  8
0
 62
7
100
AcDbLine
 10
61.762511
 20
27.477877
 30
0.0
 11
61.290741
 21
29.296975
 31
0.0
  0
SPLINE
  5
1ec
100
AcDbEntity
  8
0
 62
7
100
AcDbSpline
 70
8
 71
3
 72
8
 73
4
 74
0
 40
0
 40
0
 40
0
 40
0
 40
1
 40
1
 40
1
 40
1
 10
61.290741
 20
29.296975
 30
0.0
 10
59.960847
 20
34.424896
 30
0.0
 10
58.594369
 20
38.308612
 30
0.0
 10
57.010169
 20
41.462947
 30
0.0
  0
SPLINE
  5
1ed
100
AcDbEntity
  8
0
 62
7
100
AcDbSpline
 70
8
 71
3
 72
8
 73
4
 74
0
 40
0
 40
0
 40
0
 40
0
 40
1
 40
1
 40
1
 40
1
 10
57.010169
 20
41.462947
 30
0.0
 10
55.189208
 20
45.088694
 30
0.0
 10
51.379132
 20
50.453338
 30
0.0
 10
49.126631
 20
52.563086
 30
0.0
  0
SPLINE
  5
1ee
100
AcDbEntity
  8
0
 62
7
100
AcDbSpline
 70
8
 71
3
 72
8
 73
4
 74
0
 40
0
 40
0
 40
0
 40
0
 40
1
 40
1
 40
1
 40
1
 10
49.126631
 20
52.563086
 30
0.0
 10
47.960120
 20
53.655669
 30
0.0
 10
48.012060
 20
53.514038
 30
0.0
 10
49.646082
 20
51.146774
 30
0.0
  0
SPLINE
  5
1ef
100
AcDbEntity
  8
0
 62
7
100
AcDbSpline
 70
8
 71
3
 72
8
 73
4
 74
0
 40
0
 40
0
 40
0
 40
0
 40
1
 40
1
 40
1
 40
1
 10
49.646082
 20
51.146774
 30
0.0
 10
50.644641
 20
49.700112
 30
0.0
 10
52.142404
 20
47.423896
 30
0.0
 10
52.974432
 20
46.088515
 30
0.0
  0
LINE
  5
1f0
100
AcDbEntity
  8
0
 62
7
100
AcDbLine
 10
52.974432
 20
46.088515
 30
0.0
 11
54.487213
 21
43.660550
 31
0.0
  0
LINE
  5
1f1
100
AcDbEntity
  8
0
 62
7
100
AcDbLine
 10
54.487213
 20
43.660550
 30
0.0
 11
51.375951
 21
46.897836
 31
0.0
  0
SPLINE
  5
1f2
100
AcDbEntity
  8
0
 62
7
100
AcDbSpline
 70
8
 71
3
 72
8
 73
4
 74
0
 40
0
 40
0
 40
0
 40
0
 40
1
 40
1
 40
1
 40
1
 10
51.375951
 20
46.897836
 30
0.0
 10
49.664759
 20
48.678344
 30
0.0
 10
48.633741
 20
49.572654
 30
0.0
 10
49.084800
 20
48.885200
 30
0.0
  0
SPLINE
  5
1f3
100
AcDbEntity
  8
0
 62
7
100
AcDbSpline
 70
8
 71
3
 72
8
 73
4
 74
0
 40
0
 40
0
 40
0
 40
0
 40
1
 40
1
 40
1
 40
1
 10
49.084800
 20
48.885200
 30
0.0
 10
49.535859
 20
48.197744
 30
0.0
 10
50.186554
 20
47.401533
 30
0.0
 10
50.530785
 20
47.115842
 30
0.0
  0
SPLINE
  5
1f4
100
AcDbEntity
  8
0
 62
7
100
AcDbSpline
 70
8
 71
3
 72
8
 73
4
 74
0
 40
0
 40
0
 40
0
 40
0
 40
1
 40
1
 40
1
 40
1
 10
50.530785
 20
47.115842
 30
0.0
 10
51.217159
 20
46.546207
 30
0.0
 10
51.402251
 20
45.686642
 30
0.0
 10
50.752006
 20
46.088515
 30
0.0
  0
SPLINE
  5
1f5
100
AcDbEntity
  8
0
 62
7
100
AcDbSpline
 70
8
 71
3
 72
8
 73
4
 74
0
 40
0
 40
0
 40
0
 40
0
 40
1
 40
1
 40
1
 40
1
 10
50.752006
 20
46.088515
 30
0.0
 10
50.093328
 20
46.495600
 30
0.0
 10
50.290787
 20
46.031159
 30
0.0
 10
51.032014
 20
45.429906
 30
0.0
  0
SPLINE
  5
1f6
100
AcDbEntity
  8
0
 62
7
100
AcDbSpline
 70
8
 71
3
 72
8
 73
4
 74
0
 40
0
 40
0
 40
0
 40
0
 40
1
 40
1
 40
1
 40
1
 10
51.032014
 20
45.429906
 30
0.0
 10
51.497236
 20
45.052539
 30
0.0
 10
51.619283
 20
45.036656
 30
0.0
 10
51.412792
 20
45.380358
 30
0.0
  0
SPLINE
  5
1f7
100
AcDbEntity
  8
0
 62
7
100
AcDbSpline
 70
8
 71
3
 72
8
 73
4
 74
0
 40
0
 40
0
 40
0
 40
0
 40
1
 40
1
 40
1
 40
1
 10
51.412792
 20
45.380358
 30
0.0
 10
50.902104
 20
46.230406
 30
0.0
 10
51.367273
 20
45.946124
 30
0.0
 10
52.401278
 20
44.776261
 30
0.0
  0
SPLINE
  5
1f8
100
AcDbEntity
  8
0
 62
7
100
AcDbSpline
 70
8
 71
3
 72
8
 73
4
 74
0
 40
0
 40
0
 40
0
 40
0
 40
1
 40
1
 40
1
 40
1
 10
52.401278
 20
44.776261
 30
0.0
 10
53.284809
 20
43.776639
 30
0.0
 10
53.291823
 20
43.742661
 30
0.0
 10
52.471813
 20
44.434319
 30
0.0
  0
SPLINE
  5
1f9
100
AcDbEntity
  8
0
 62
7
100
AcDbSpline
 70
8
 71
3
 72
8
 73
4
 74
0
 40
0
 40
0
 40
0
 40
0
 40
1
 40
1
 40
1
 40
1
 10
52.471813
 20
44.434319
 30
0.0
 10
51.201266
 20
45.506003
 30
0.0
 10
51.333192
 20
44.763863
 30
0.0
 10
52.674143
 20
43.296129
 30
0.0
  0
SPLINE
  5
1fa
100
AcDbEntity
  8
0
 62
7
100
AcDbSpline
 70
8
 71
3
 72
8
 73
4
 74
0
 40
0
 40
0
 40
0
 40
0
 40
1
 40
1
 40
1
 40
1
 10
52.674143
 20
43.296129
 30
0.0
 10
53.286193
 20
42.626209
 30
0.0
 10
52.421230
 20
43.241545
 30
0.0
 10
50.752006
 20
44.663538
 30
0.0
  0
LINE
  5
1fb
100
AcDbEntity
  8
0
 62
7
100
AcDbLine
 10
50.752006
 20
44.663538
 30
0.0
 11
47.717052
 21
47.248980
 31
0.0
  0
LINE
  5
1fc
100
AcDbEntity
  8
0
 62
7
100
AcDbLine
 10
47.717052
 20
47.248980
 30
0.0
 11
50.752006
 21
44.062360
 31
0.0
  0
SPLINE
  5
1fd
100
AcDbEntity
  8
0
 62
7
100
AcDbSpline
 70
8
 71
3
 72
8
 73
4
 74
0
 40
0
 40
0
 40
0
 40
0
 40
1
 40
1
 40
1
 40
1
 10
50.752006
 20
44.062360
 30
0.0
 10
54.387942
 20
40.244726
 30
0.0
 10
53.692111
 20
40.683824
 30
0.0
 10
47.555667
 20
46.079381
 30
0.0
  0
SPLINE
  5
1fe
100
AcDbEntity
  8
0
 62
7
100
AcDbSpline
 70
8
 71
3
 72
8
 73
4
 74
0
 40
0
 40
0
 40
0
 40
0
 40
1
 40
1
 40
1
 40
1
 10
47.555667
 20
46.079381
 30
0.0
 10
45.018713
 20
48.310036
 30
0.0
 10
42.290620
 20
50.681414
 30
0.0
 10
41.493240
 20
51.349103
 30
0.0
  0
LINE
  5
1ff
100
AcDbEntity
  8
0
 62
7
100
AcDbLine
 10
41.493240
 20
51.349103
 30
0.0
 11
40.043453
 21
52.563086
 31
0.0
  0
LINE
  5
200
100
AcDbEntity
  8
0
 62
7
100
AcDbLine
 10
40.043453
 20
52.563086
 30
0.0
 11
41.452293
 21
50.565752
 31
0.0
  0
SPLINE
  5
201
100
AcDbEntity
  8
0
 62
7
100
AcDbSpline
 70
8
 71
3
 72
8
 73
4
 74
0
 40
0
 40
0
 40
0
 40
0
 40
1
 40
1
 40
1
 40
1
 10
41.452293
 20
50.565752
 30
0.0
 10
42.975455
 20
48.406339
 30
0.0
 10
46.219749
 20
45.051512
 30
0.0
 10
52.630251
 20
39.006953
 30
0.0
  0
SPLINE
  5
202
100
AcDbEntity
  8
0
 62
7
100
AcDbSpline
 70
8
 71
3
 72
8
 73
4
 74
0
 40
0
 40
0
 40
0
 40
0
 40
1
 40
1
 40
1
 40
1
 10
52.630251
 20
39.006953
 30
0.0
 10
58.010347
 20
33.933986
 30
0.0
 10
59.103470
 20
32.263983
 30
0.0
 10
59.851415
 20
27.974950
 30
0.0
  0
SPLINE
  5
203
100
AcDbEntity
  8
0
 62
7
100
AcDbSpline
 70
8
 71
3
 72
8
 73
4
 74
0
 40
0
 40
0
 40
0
 40
0
 40
1
 40
1
 40
1
 40
1
 10
59.851415
 20
27.974950
 30
0.0
 10
60.175900
 20
26.114209
 30
0.0
 10
60.692706
 20
23.965637
 30
0.0
 10
60.999874
 20
23.200335
 30
0.0
  0
SPLINE
  5
204
100
AcDbEntity
  8
0
 62
7
100
AcDbSpline
 70
8
 71
3
 72
8
 73
4
 74
0
 40
0
 40
0
 40
0
 40
0
 40
1
 40
1
 40
1
 40
1
 10
60.999874
 20
23.200335
 30
0.0
 10
61.307042
 20
22.435033
 30
0.0
 10
61.688534
 20
21.444682
 30
0.0
 10
61.847644
 20
20.999554
 30
0.0
  0
SPLINE
  5
205
100
AcDbEntity
  8
0
 62
7
100
AcDbSpline
 70
8
 71
3
 72
8
 73
4
 74
0
 40
0
 40
0
 40
0
 40
0
 40
1
 40
1
 40
1
 40
1
 10
61.847644
 20
20.999554
 30
0.0
 10
62.269863
 20
19.818346
 30
0.0
 10
62.595303
 20
20.582584
 30
0.0
 10
64.056076
 20
26.185634
 30
0.0
  0
LINE
  5
206
100
AcDbEntity
  8
0
 62
7
100
AcDbLine
 10
64.056076
 20
26.185634
 30
0.0
 11
64.056076
 21
26.185634
 31
0.0
  0
LINE
  5
207
100
AcDbEntity
  8
0
 62
7
100
AcDbLine
 10
81.514220
 20
25.658592
 30
0.0
 11
83.992834
 21
27.341781
 31
0.0
  0
LINE
  5
208
100
AcDbEntity
  8
0
 62
7
100
AcDbLine
 10
83.992834
 20
27.341781
 30
0.0
 11
81.456517
 21
29.127763
 31
0.0
  0
SPLINE
  5
209
100
AcDbEntity
  8
0
 62
7
100
AcDbSpline
 70
8
 71
3
 72
8
 73
4
 74
0
 40
0
 40
0
 40
0
 40
0
 40
1
 40
1
 40
1
 40
1
 10
81.456517
 20
29.127763
 30
0.0
 10
78.696511
 20
31.071260
 30
0.0
 10
78.417238
 20
31.154072
 30
0.0
 10
77.351221
 20
30.345151
 30
0.0
  0
SPLINE
  5
20a
100
AcDbEntity
  8
0
 62
7
100
AcDbSpline
 70
8
 71
3
 72
8
 73
4
 74
0
 40
0
 40
0
 40
0
 40
0
 40
1
 40
1
 40
1
 40
1
 10
77.351221
 20
30.345151
 30
0.0
 10
76.680402
 20
29.836116
 30
0.0
 10
76.698423
 20
29.761300
 30
0.0
 10
77.640479
 20
29.144043
 30
0.0
  0
SPLINE
  5
20b
100
AcDbEntity
  8
0
 62
7
100
AcDbSpline
 70
8
 71
3
 72
8
 73
4
 74
0
 40
0
 40
0
 40
0
 40
0
 40
1
 40
1
 40
1
 40
1
 10
77.640479
 20
29.144043
 30
0.0
 10
78.193027
 20
28.781998
 30
0.0
 10
78.924669
 20
28.485776
 30
0.0
 10
79.266344
 20
28.485776
 30
0.0
  0
SPLINE
  5
20c
100
AcDbEntity
  8
0
 62
7
100
AcDbSpline
 70
8
 71
3
 72
8
 73
4
 74
0
 40
0
 40
0
 40
0
 40
0
 40
1
 40
1
 40
1
 40
1
 10
79.266344
 20
28.485776
 30
0.0
 10
79.608022
 20
28.485776
 30
0.0
 10
79.887572
 20
28.212630
 30
0.0
 10
79.887572
 20
27.878787
 30
0.0
  0
SPLINE
  5
20d
100
AcDbEntity
  8
0
 62
7
100
AcDbSpline
 70
8
 71
3
 72
8
 73
4
 74
0
 40
0
 40
0
 40
0
 40
0
 40
1
 40
1
 40
1
 40
1
 10
79.887572
 20
27.878787
 30
0.0
 10
79.887572
 20
26.992938
 30
0.0
 10
79.156500
 20
27.134011
 30
0.0
 10
77.790472
 20
28.283446
 30
0.0
  0
SPLINE
  5
20e
100
AcDbEntity
  8
0
 62
7
100
AcDbSpline
 70
8
 71
3
 72
8
 73
4
 74
0
 40
0
 40
0
 40
0
 40
0
 40
1
 40
1
 40
1
 40
1
 10
77.790472
 20
28.283446
 30
0.0
 10
77.129220
 20
28.839854
 30
0.0
 10
76.374543
 20
29.294604
 30
0.0
 10
76.113413
 20
29.294006
 30
0.0
  0
SPLINE
  5
20f
100
AcDbEntity
  8
0
 62
7
100
AcDbSpline
 70
8
 71
3
 72
8
 73
4
 74
0
 40
0
 40
0
 40
0
 40
0
 40
1
 40
1
 40
1
 40
1
 10
76.113413
 20
29.294006
 30
0.0
 10
75.852285
 20
29.293477
 30
0.0
 10
74.819198
 20
28.544987
 30
0.0
 10
73.817663
 20
27.630862
 30
0.0
  0
SPLINE
  5
210
100
AcDbEntity
  8
0
 62
7
100
AcDbSpline
 70
8
 71
3
 72
8
 73
4
 74
0
 40
0
 40
0
 40
0
 40
0
 40
1
 40
1
 40
1
 40
1
 10
73.817663
 20
27.630862
 30
0.0
 10
72.816128
 20
26.716737
 30
0.0
 10
72.301034
 20
26.181345
 30
0.0
 10
72.673012
 20
26.441105
 30
0.0
  0
SPLINE
  5
211
100
AcDbEntity
  8
0
 62
7
100
AcDbSpline
 70
8
 71
3
 72
8
 73
4
 74
0
 40
0
 40
0
 40
0
 40
0
 40
1
 40
1
 40
1
 40
1
 10
72.673012
 20
26.441105
 30
0.0
 10
73.255905
 20
26.848148
 30
0.0
 10
73.316952
 20
26.789569
 30
0.0
 10
73.114925
 20
26.017031
 30
0.0
  0
SPLINE
  5
212
100
AcDbEntity
  8
0
 62
7
100
AcDbSpline
 70
8
 71
3
 72
8
 73
4
 74
0
 40
0
 40
0
 40
0
 40
0
 40
1
 40
1
 40
1
 40
1
 10
73.114925
 20
26.017031
 30
0.0
 10
72.919474
 20
25.269612
 30
0.0
 10
73.016709
 20
25.156291
 30
0.0
 10
73.700140
 20
25.335009
 30
0.0
  0
SPLINE
  5
213
100
AcDbEntity
  8
0
 62
7
100
AcDbSpline
 70
8
 71
3
 72
8
 73
4
 74
0
 40
0
 40
0
 40
0
 40
0
 40
1
 40
1
 40
1
 40
1
 10
73.700140
 20
25.335009
 30
0.0
 10
74.284277
 20
25.487763
 30
0.0
 10
74.506096
 20
25.360779
 30
0.0
 10
74.472205
 20
24.893091
 30
0.0
  0
SPLINE
  5
214
100
AcDbEntity
  8
0
 62
7
100
AcDbSpline
 70
8
 71
3
 72
8
 73
4
 74
0
 40
0
 40
0
 40
0
 40
0
 40
1
 40
1
 40
1
 40
1
 10
74.472205
 20
24.893091
 30
0.0
 10
74.446064
 20
24.532155
 30
0.0
 10
74.652275
 20
24.282364
 30
0.0
 10
74.930479
 20
24.338006
 30
0.0
  0
SPLINE
  5
215
100
AcDbEntity
  8
0
 62
7
100
AcDbSpline
 70
8
 71
3
 72
8
 73
4
 74
0
 40
0
 40
0
 40
0
 40
0
 40
1
 40
1
 40
1
 40
1
 10
74.930479
 20
24.338006
 30
0.0
 10
75.208683
 20
24.393645
 30
0.0
 10
75.436305
 20
24.181198
 30
0.0
 10
75.436305
 20
23.865899
 30
0.0
  0
SPLINE
  5
216
100
AcDbEntity
  8
0
 62
7
100
AcDbSpline
 70
8
 71
3
 72
8
 73
4
 74
0
 40
0
 40
0
 40
0
 40
0
 40
1
 40
1
 40
1
 40
1
 10
75.436305
 20
23.865899
 30
0.0
 10
75.436305
 20
22.374054
 30
0.0
 10
77.630579
 20
23.021257
 30
0.0
 10
81.514220
 20
25.658592
 30
0.0
  0
LINE
  5
217
100
AcDbEntity
  8
0
 62
7
100
AcDbLine
 10
81.514220
 20
25.658592
 30
0.0
 11
81.514220
 21
25.658592
 31
0.0
  0
SPLINE
  5
218
100
AcDbEntity
  8
0
 62
7
100
AcDbSpline
 70
8
 71
3
 72
8
 73
4
 74
0
 40
0
 40
0
 40
0
 40
0
 40
1
 40
1
 40
1
 40
1
 10
77.115647
 20
26.442240
 30
0.0
 10
77.289533
 20
26.963906
 30
0.0
 10
77.844566
 20
27.057608
 30
0.0
 10
77.894620
 20
26.573756
 30
0.0
  0
SPLINE
  5
219
100
AcDbEntity
  8
0
 62
7
100
AcDbSpline
 70
8
 71
3
 72
8
 73
4
 74
0
 40
0
 40
0
 40
0
 40
0
 40
1
 40
1
 40
1
 40
1
 10
77.894620
 20
26.573756
 30
0.0
 10
77.911341
 20
26.412398
 30
0.0
 10
77.706451
 20
26.207539
 30
0.0
 10
77.439375
 20
26.118512
 30
0.0
  0
SPLINE
  5
21a
100
AcDbEntity
  8
0
 62
7
100
AcDbSpline
 70
8
 71
3
 72
8
 73
4
 74
0
 40
0
 40
0
 40
0
 40
0
 40
1
 40
1
 40
1
 40
1
 10
77.439375
 20
26.118512
 30
0.0
 10
77.172299
 20
26.029487
 30
0.0
 10
77.026622
 20
26.175164
 30
0.0
 10
77.115647
 20
26.442240
 30
0.0
  0
LINE
  5
21b
100
AcDbEntity
  8
0
 62
7
100
AcDbLine
 10
77.115647
 20
26.442240
 30
0.0
 11
77.115647
 21
26.442240
 31
0.0
  0
SPLINE
  5
21c
100
AcDbEntity
  8
0
 62
7
100
AcDbSpline
 70
8
 71
3
 72
8
 73
4
 74
0
 40
0
 40
0
 40
0
 40
0
 40
1
 40
1
 40
1
 40
1
 10
56.136639
 20
26.512770
 30
0.0
 10
55.303913
 20
27.952907
 30
0.0
 10
54.069706
 20
29.015109
 30
0.0
 10
48.931032
 20
32.714164
 30
0.0
  0
SPLINE
  5
21d
100
AcDbEntity
  8
0
 62
7
100
AcDbSpline
 70
8
 71
3
 72
8
 73
4
 74
0
 40
0
 40
0
 40
0
 40
0
 40
1
 40
1
 40
1
 40
1
 10
48.931032
 20
32.714164
 30
0.0
 10
41.373186
 20
38.154653
 30
0.0
 10
39.815076
 20
39.135667
 30
0.0
 10
37.924697
 20
39.643942
 30
0.0
  0
LINE
  5
21e
100
AcDbEntity
  8
0
 62
7
100
AcDbLine
 10
37.924697
 20
39.643942
 30
0.0
 11
35.981896
 21
40.166309
 31
0.0
  0
LINE
  5
21f
100
AcDbEntity
  8
0
 62
7
100
AcDbLine
 10
35.981896
 20
40.166309
 30
0.0
 11
37.566819
 21
40.193625
 31
0.0
  0
SPLINE
  5
220
100
AcDbEntity
  8
0
 62
7
100
AcDbSpline
 70
8
 71
3
 72
8
 73
4
 74
0
 40
0
 40
0
 40
0
 40
0
 40
1
 40
1
 40
1
 40
1
 10
37.566819
 20
40.193625
 30
0.0
 10
38.438523
 20
40.208627
 30
0.0
 10
39.032142
 20
40.340529
 30
0.0
 10
38.885975
 20
40.486696
 30
0.0
  0
SPLINE
  5
221
100
AcDbEntity
  8
0
 62
7
100
AcDbSpline
 70
8
 71
3
 72
8
 73
4
 74
0
 40
0
 40
0
 40
0
 40
0
 40
1
 40
1
 40
1
 40
1
 10
38.885975
 20
40.486696
 30
0.0
 10
38.739809
 20
40.632865
 30
0.0
 10
36.859365
 20
40.769438
 30
0.0
 10
34.707218
 20
40.790191
 30
0.0
  0
LINE
  5
222
100
AcDbEntity
  8
0
 62
7
100
AcDbLine
 10
34.707218
 20
40.790191
 30
0.0
 11
30.794224
 21
40.827947
 31
0.0
  0
LINE
  5
223
100
AcDbEntity
  8
0
 62
7
100
AcDbLine
 10
30.794224
 20
40.827947
 30
0.0
 11
30.353105
 21
42.114050
 31
0.0
  0
SPLINE
  5
224
100
AcDbEntity
  8
0
 62
7
100
AcDbSpline
 70
8
 71
3
 72
8
 73
4
 74
0
 40
0
 40
0
 40
0
 40
0
 40
1
 40
1
 40
1
 40
1
 10
30.353105
 20
42.114050
 30
0.0
 10
29.674340
 20
44.093025
 30
0.0
 10
29.332446
 20
44.128027
 30
0.0
 10
29.761732
 20
42.174600
 30
0.0
  0
SPLINE
  5
225
100
AcDbEntity
  8
0
 62
7
100
AcDbSpline
 70
8
 71
3
 72
8
 73
4
 74
0
 40
0
 40
0
 40
0
 40
0
 40
1
 40
1
 40
1
 40
1
 10
29.761732
 20
42.174600
 30
0.0
 10
29.973409
 20
41.211379
 30
0.0
 10
30.458007
 20
40.179303
 30
0.0
 10
30.838613
 20
39.881102
 30
0.0
  0
SPLINE
  5
226
100
AcDbEntity
  8
0
 62
7
100
AcDbSpline
 70
8
 71
3
 72
8
 73
4
 74
0
 40
0
 40
0
 40
0
 40
0
 40
1
 40
1
 40
1
 40
1
 10
30.838613
 20
39.881102
 30
0.0
 10
31.481648
 20
39.377295
 30
0.0
 10
31.476068
 20
39.348654
 30
0.0
 10
30.759740
 20
39.476440
 30
0.0
  0
SPLINE
  5
227
100
AcDbEntity
  8
0
 62
7
100
AcDbSpline
 70
8
 71
3
 72
8
 73
4
 74
0
 40
0
 40
0
 40
0
 40
0
 40
1
 40
1
 40
1
 40
1
 10
30.759740
 20
39.476440
 30
0.0
 10
30.169616
 20
39.581718
 30
0.0
 10
29.787561
 20
40.373055
 30
0.0
 10
29.130381
 20
42.851251
 30
0.0
  0
SPLINE
  5
228
100
AcDbEntity
  8
0
 62
7
100
AcDbSpline
 70
8
 71
3
 72
8
 73
4
 74
0
 40
0
 40
0
 40
0
 40
0
 40
1
 40
1
 40
1
 40
1
 10
29.130381
 20
42.851251
 30
0.0
 10
28.232308
 20
46.237846
 30
0.0
 10
26.481253
 20
50.885905
 30
0.0
 10
26.206868
 20
50.611519
 30
0.0
  0
SPLINE
  5
229
100
AcDbEntity
  8
0
 62
7
100
AcDbSpline
 70
8
 71
3
 72
8
 73
4
 74
0
 40
0
 40
0
 40
0
 40
0
 40
1
 40
1
 40
1
 40
1
 10
26.206868
 20
50.611519
 30
0.0
 10
25.822327
 20
50.226979
 30
0.0
 10
28.863948
 20
38.820392
 30
0.0
 10
29.469002
 20
38.377964
 30
0.0
  0
SPLINE
  5
22a
100
AcDbEntity
  8
0
 62
7
100
AcDbSpline
 70
8
 71
3
 72
8
 73
4
 74
0
 40
0
 40
0
 40
0
 40
0
 40
1
 40
1
 40
1
 40
1
 10
29.469002
 20
38.377964
 30
0.0
 10
29.909375
 20
38.055956
 30
0.0
 10
30.673328
 20
38.009759
 30
0.0
 10
31.836552
 20
38.234809
 30
0.0
  0
SPLINE
  5
22b
100
AcDbEntity
  8
0
 62
7
100
AcDbSpline
 70
8
 71
3
 72
8
 73
4
 74
0
 40
0
 40
0
 40
0
 40
0
 40
1
 40
1
 40
1
 40
1
 10
31.836552
 20
38.234809
 30
0.0
 10
34.881393
 20
38.823890
 30
0.0
 10
38.284543
 20
38.641407
 30
0.0
 10
40.164601
 20
37.788250
 30
0.0
  0
SPLINE
  5
22c
100
AcDbEntity
  8
0
 62
7
100
AcDbSpline
 70
8
 71
3
 72
8
 73
4
 74
0
 40
0
 40
0
 40
0
 40
0
 40
1
 40
1
 40
1
 40
1
 10
40.164601
 20
37.788250
 30
0.0
 10
41.759599
 20
37.064448
 30
0.0
 10
50.189742
 20
30.680989
 30
0.0
 10
54.659486
 20
26.812453
 30
0.0
  0
SPLINE
  5
22d
100
AcDbEntity
  8
0
 62
7
100
AcDbSpline
 70
8
 71
3
 72
8
 73
4
 74
0
 40
0
 40
0
 40
0
 40
0
 40
1
 40
1
 40
1
 40
1
 10
54.659486
 20
26.812453
 30
0.0
 10
55.653333
 20
25.952284
 30
0.0
 10
56.556744
 20
25.248511
 30
0.0
 10
56.667076
 20
25.248511
 30
0.0
  0
SPLINE
  5
22e
100
AcDbEntity
  8
0
 62
7
100
AcDbSpline
 70
8
 71
3
 72
8
 73
4
 74
0
 40
0
 40
0
 40
0
 40
0
 40
1
 40
1
 40
1
 40
1
 10
56.667076
 20
25.248511
 30
0.0
 10
56.777404
 20
25.248511
 30
0.0
 10
56.538705
 20
25.817437
 30
0.0
 10
56.136639
 20
26.512788
 30
0.0
  0
LINE
  5
22f
100
AcDbEntity
  8
0
 62
7
100
AcDbLine
 10
56.136639
 20
26.512788
 30
0.0
 11
56.136639
 21
26.512770
 31
0.0
  0
SPLINE
  5
230
100
AcDbEntity
  8
0
 62
7
100
AcDbSpline
 70
8
 71
3
 72
8
 73
4
 74
0
 40
0
 40
0
 40
0
 40
0
 40
1
 40
1
 40
1
 40
1
 10
32.850494
 20
40.102476
 30
0.0
 10
33.353856
 20
40.199266
 30
0.0
 10
34.082243
 20
40.195591
 30
0.0
 10
34.469138
 20
40.094300
 30
0.0
  0
SPLINE
  5
231
100
AcDbEntity
  8
0
 62
7
100
AcDbSpline
 70
8
 71
3
 72
8
 73
4
 74
0
 40
0
 40
0
 40
0
 40
0
 40
1
 40
1
 40
1
 40
1
 10
34.469138
 20
40.094300
 30
0.0
 10
34.856030
 20
39.993018
 30
0.0
 10
34.444161
 20
39.913823
 30
0.0
 10
33.553931
 20
39.918315
 30
0.0
  0
SPLINE
  5
232
100
AcDbEntity
  8
0
 62
7
100
AcDbSpline
 70
8
 71
3
 72
8
 73
4
 74
0
 40
0
 40
0
 40
0
 40
0
 40
1
 40
1
 40
1
 40
1
 10
33.553931
 20
39.918315
 30
0.0
 10
32.663677
 20
39.922813
 30
0.0
 10
32.347132
 20
40.005675
 30
0.0
 10
32.850494
 20
40.102468
 30
0.0
  0
LINE
  5
233
100
AcDbEntity
  8
0
 62
7
100
AcDbLine
 10
32.850494
 20
40.102468
 30
0.0
 11
32.850494
 21
40.102476
 31
0.0
  0
SPLINE
  5
234
100
AcDbEntity
  8
0
 62
7
100
AcDbSpline
 70
8
 71
3
 72
8
 73
4
 74
0
 40
0
 40
0
 40
0
 40
0
 40
1
 40
1
 40
1
 40
1
 10
83.321927
 20
35.431577
 30
0.0
 10
86.401005
 20
36.909027
 30
0.0
 10
88.001446
 20
37.305137
 30
0.0
 10
93.737904
 20
38.009545
 30
0.0
  0
SPLINE
  5
235
100
AcDbEntity
  8
0
 62
7
100
AcDbSpline
 70
8
 71
3
 72
8
 73
4
 74
0
 40
0
 40
0
 40
0
 40
0
 40
1
 40
1
 40
1
 40
1
 10
93.737904
 20
38.009545
 30
0.0
 10
95.586547
 20
38.236550
 30
0.0
 10
95.665218
 20
38.301367
 30
0.0
 10
96.082014
 20
39.940842
 30
0.0
  0
SPLINE
  5
236
100
AcDbEntity
  8
0
 62
7
100
AcDbSpline
 70
8
 71
3
 72
8
 73
4
 74
0
 40
0
 40
0
 40
0
 40
0
 40
1
 40
1
 40
1
 40
1
 10
96.082014
 20
39.940842
 30
0.0
 10
96.481215
 20
41.511128
 30
0.0
 10
97.807851
 20
46.119683
 30
0.0
 10
98.342982
 20
47.795162
 30
0.0
  0
SPLINE
  5
237
100
AcDbEntity
  8
0
 62
7
100
AcDbSpline
 70
8
 71
3
 72
8
 73
4
 74
0
 40
0
 40
0
 40
0
 40
0
 40
1
 40
1
 40
1
 40
1
 10
98.342982
 20
47.795162
 30
0.0
 10
98.469693
 20
48.191889
 30
0.0
 10
98.000434
 20
47.514944
 30
0.0
 10
97.300179
 20
46.290844
 30
0.0
  0
SPLINE
  5
238
100
AcDbEntity
  8
0
 62
7
100
AcDbSpline
 70
8
 71
3
 72
8
 73
4
 74
0
 40
0
 40
0
 40
0
 40
0
 40
1
 40
1
 40
1
 40
1
 10
97.300179
 20
46.290844
 30
0.0
 10
96.599931
 20
45.066747
 30
0.0
 10
95.734574
 20
43.018152
 30
0.0
 10
95.377164
 20
41.738413
 30
0.0
  0
SPLINE
  5
239
100
AcDbEntity
  8
0
 62
7
100
AcDbSpline
 70
8
 71
3
 72
8
 73
4
 74
0
 40
0
 40
0
 40
0
 40
0
 40
1
 40
1
 40
1
 40
1
 10
95.377164
 20
41.738413
 30
0.0
 10
94.979823
 20
40.315704
 30
0.0
 10
94.506026
 20
39.411614
 30
0.0
 10
94.157776
 20
39.411614
 30
0.0
  0
SPLINE
  5
23a
100
AcDbEntity
  8
0
 62
7
100
AcDbSpline
 70
8
 71
3
 72
8
 73
4
 74
0
 40
0
 40
0
 40
0
 40
0
 40
1
 40
1
 40
1
 40
1
 10
94.157776
 20
39.411614
 30
0.0
 10
93.696298
 20
39.411614
 30
0.0
 10
93.708881
 20
39.532272
 30
0.0
 10
94.224120
 20
40.047511
 30
0.0
  0
SPLINE
  5
23b
100
AcDbEntity
  8
0
 62
7
100
AcDbSpline
 70
8
 71
3
 72
8
 73
4
 74
0
 40
0
 40
0
 40
0
 40
0
 40
1
 40
1
 40
1
 40
1
 10
94.224120
 20
40.047511
 30
0.0
 10
94.815599
 20
40.638990
 30
0.0
 10
95.125109
 20
42.244238
 30
0.0
 10
94.647671
 20
42.244238
 30
0.0
  0
SPLINE
  5
23c
100
AcDbEntity
  8
0
 62
7
100
AcDbSpline
 70
8
 71
3
 72
8
 73
4
 74
0
 40
0
 40
0
 40
0
 40
0
 40
1
 40
1
 40
1
 40
1
 10
94.647671
 20
42.244238
 30
0.0
 10
94.530881
 20
42.244238
 30
0.0
 10
94.270258
 20
41.810086
 30
0.0
 10
94.068516
 20
41.279459
 30
0.0
  0
SPLINE
  5
23d
100
AcDbEntity
  8
0
 62
7
100
AcDbSpline
 70
8
 71
3
 72
8
 73
4
 74
0
 40
0
 40
0
 40
0
 40
0
 40
1
 40
1
 40
1
 40
1
 10
94.068516
 20
41.279459
 30
0.0
 10
93.758639
 20
40.464423
 30
0.0
 10
93.210618
 20
40.218395
 30
0.0
 10
90.537750
 20
39.694338
 30
0.0
  0
LINE
  5
23e
100
AcDbEntity
  8
0
 62
7
100
AcDbLine
 10
90.537750
 20
39.694338
 30
0.0
 11
87.373794
 21
39.073998
 31
0.0
  0
LINE
  5
23f
100
AcDbEntity
  8
0
 62
7
100
AcDbLine
 10
87.373794
 20
39.073998
 30
0.0
 11
90.206417
 21
39.191285
 31
0.0
  0
SPLINE
  5
240
100
AcDbEntity
  8
0
 62
7
100
AcDbSpline
 70
8
 71
3
 72
8
 73
4
 74
0
 40
0
 40
0
 40
0
 40
0
 40
1
 40
1
 40
1
 40
1
 10
90.206417
 20
39.191285
 30
0.0
 10
91.764361
 20
39.255796
 30
0.0
 10
92.492751
 20
39.229848
 30
0.0
 10
91.825061
 20
39.133646
 30
0.0
  0
SPLINE
  5
241
100
AcDbEntity
  8
0
 62
7
100
AcDbSpline
 70
8
 71
3
 72
8
 73
4
 74
0
 40
0
 40
0
 40
0
 40
0
 40
1
 40
1
 40
1
 40
1
 10
91.825061
 20
39.133646
 30
0.0
 10
85.347771
 20
38.200283
 30
0.0
 10
78.314778
 20
34.922344
 30
0.0
 10
73.413001
 20
30.552148
 30
0.0
  0
SPLINE
  5
242
100
AcDbEntity
  8
0
 62
7
100
AcDbSpline
 70
8
 71
3
 72
8
 73
4
 74
0
 40
0
 40
0
 40
0
 40
0
 40
1
 40
1
 40
1
 40
1
 10
73.413001
 20
30.552148
 30
0.0
 10
72.275216
 20
29.537754
 30
0.0
 10
72.785217
 20
29.737400
 30
0.0
 10
76.006333
 20
31.567354
 30
0.0
  0
SPLINE
  5
243
100
AcDbEntity
  8
0
 62
7
100
AcDbSpline
 70
8
 71
3
 72
8
 73
4
 74
0
 40
0
 40
0
 40
0
 40
0
 40
1
 40
1
 40
1
 40
1
 10
76.006333
 20
31.567354
 30
0.0
 10
78.211641
 20
32.820211
 30
0.0
 10
81.503658
 20
34.559114
 30
0.0
 10
83.321927
 20
35.431577
 30
0.0
  0
LINE
  5
244
100
AcDbEntity
  8
0
 62
7
100
AcDbLine
 10
83.321927
 20
35.431577
 30
0.0
 11
83.321927
 21
35.431577
 31
0.0
  0
SPLINE
  5
245
100
AcDbEntity
  8
0
 62
7
100
AcDbSpline
 70
8
 71
3
 72
8
 73
4
 74
0
 40
0
 40
0
 40
0
 40
0
 40
1
 40
1
 40
1
 40
1
 10
87.061868
 20
38.846777
 30
0.0
 10
86.927402
 20
38.981241
 30
0.0
 10
86.578382
 20
38.995615
 30
0.0
 10
86.286269
 20
38.878704
 30
0.0
  0
SPLINE
  5
246
100
AcDbEntity
  8
0
 62
7
100
AcDbSpline
 70
8
 71
3
 72
8
 73
4
 74
0
 40
0
 40
0
 40
0
 40
0
 40
1
 40
1
 40
1
 40
1
 10
86.286269
 20
38.878704
 30
0.0
 10
85.963459
 20
38.749529
 30
0.0
 10
86.059344
 20
38.653641
 30
0.0
 10
86.530752
 20
38.634224
 30
0.0
  0
SPLINE
  5
247
100
AcDbEntity
  8
0
 62
7
100
AcDbSpline
 70
8
 71
3
 72
8
 73
4
 74
0
 40
0
 40
0
 40
0
 40
0
 40
1
 40
1
 40
1
 40
1
 10
86.530752
 20
38.634224
 30
0.0
 10
86.957329
 20
38.616655
 30
0.0
 10
87.196335
 20
38.712297
 30
0.0
 10
87.061868
 20
38.846761
 30
0.0
  0
LINE
  5
248
100
AcDbEntity
  8
0
 62
7
100
AcDbLine
 10
87.061868
 20
38.846761
 30
0.0
 11
87.061868
 21
38.846777
 31
0.0
  0
SPLINE
  5
249
100
AcDbEntity
  8
0
 62
7
100
AcDbSpline
 70
8
 71
3
 72
8
 73
4
 74
0
 40
0
 40
0
 40
0
 40
0
 40
1
 40
1
 40
1
 40
1
 10
98.081690
 20
52.088733
 30
0.0
 10
100.234326
 20
56.261080
 30
0.0
 10
100.197883
 20
56.946425
 30
0.0
 10
97.678610
 20
59.668744
 30
0.0
  0
LINE
  5
24a
100
AcDbEntity
  8
0
 62
7
100
AcDbLine
 10
97.678610
 20
59.668744
 30
0.0
 11
95.641279
 21
61.870281
 31
0.0
  0
LINE
  5
24b
100
AcDbEntity
  8
0
 62
7
100
AcDbLine
 10
95.641279
 20
61.870281
 30
0.0
 11
96.464628
 21
60.166594
 31
0.0
  0
SPLINE
  5
24c
100
AcDbEntity
  8
0
 62
7
100
AcDbSpline
 70
8
 71
3
 72
8
 73
4
 74
0
 40
0
 40
0
 40
0
 40
0
 40
1
 40
1
 40
1
 40
1
 10
96.464628
 20
60.166594
 30
0.0
 10
96.917473
 20
59.229564
 30
0.0
 10
97.287979
 20
57.898612
 30
0.0
 10
97.287979
 20
57.208920
 30
0.0
  0
SPLINE
  5
24d
100
AcDbEntity
  8
0
 62
7
100
AcDbSpline
 70
8
 71
3
 72
8
 73
4
 74
0
 40
0
 40
0
 40
0
 40
0
 40
1
 40
1
 40
1
 40
1
 10
97.287979
 20
57.208920
 30
0.0
 10
97.287979
 20
56.435157
 30
0.0
 10
97.450899
 20
56.055625
 30
0.0
 10
97.713416
 20
56.217871
 30
0.0
  0
SPLINE
  5
24e
100
AcDbEntity
  8
0
 62
7
100
AcDbSpline
 70
8
 71
3
 72
8
 73
4
 74
0
 40
0
 40
0
 40
0
 40
0
 40
1
 40
1
 40
1
 40
1
 10
97.713416
 20
56.217871
 30
0.0
 10
97.947403
 20
56.362484
 30
0.0
 10
97.839818
 20
55.781411
 30
0.0
 10
97.474339
 20
54.926603
 30
0.0
  0
SPLINE
  5
24f
100
AcDbEntity
  8
0
 62
7
100
AcDbSpline
 70
8
 71
3
 72
8
 73
4
 74
0
 40
0
 40
0
 40
0
 40
0
 40
1
 40
1
 40
1
 40
1
 10
97.474339
 20
54.926603
 30
0.0
 10
96.363766
 20
52.329133
 30
0.0
 10
96.373394
 20
52.077784
 30
0.0
 10
97.513873
 20
53.894800
 30
0.0
  0
SPLINE
  5
250
100
AcDbEntity
  8
0
 62
7
100
AcDbSpline
 70
8
 71
3
 72
8
 73
4
 74
0
 40
0
 40
0
 40
0
 40
0
 40
1
 40
1
 40
1
 40
1
 10
97.513873
 20
53.894800
 30
0.0
 10
98.113289
 20
54.849805
 30
0.0
 10
98.690565
 20
55.544334
 30
0.0
 10
98.796708
 20
55.438194
 30
0.0
  0
SPLINE
  5
251
100
AcDbEntity
  8
0
 62
7
100
AcDbSpline
 70
8
 71
3
 72
8
 73
4
 74
0
 40
0
 40
0
 40
0
 40
0
 40
1
 40
1
 40
1
 40
1
 10
98.796708
 20
55.438194
 30
0.0
 10
99.076293
 20
55.158606
 30
0.0
 10
97.218889
 20
51.238105
 30
0.0
 10
95.495422
 20
48.470035
 30
0.0
  0
SPLINE
  5
252
100
AcDbEntity
  8
0
 62
7
100
AcDbSpline
 70
8
 71
3
 72
8
 73
4
 74
0
 40
0
 40
0
 40
0
 40
0
 40
1
 40
1
 40
1
 40
1
 10
95.495422
 20
48.470035
 30
0.0
 10
94.134318
 20
46.283957
 30
0.0
 10
94.112538
 20
46.204746
 30
0.0
 10
95.230037
 20
47.504827
 30
0.0
  0
SPLINE
  5
253
100
AcDbEntity
  8
0
 62
7
100
AcDbSpline
 70
8
 71
3
 72
8
 73
4
 74
0
 40
0
 40
0
 40
0
 40
0
 40
1
 40
1
 40
1
 40
1
 10
95.230037
 20
47.504827
 30
0.0
 10
95.899610
 20
48.283800
 30
0.0
 10
97.182858
 20
50.346558
 30
0.0
 10
98.081700
 20
52.088733
 30
0.0
  0
LINE
  5
254
100
AcDbEntity
  8
0
 62
7
100
AcDbLine
 10
98.081700
 20
52.088733
 30
0.0
 11
98.081690
 21
52.088733
 31
0.0
  0
SPLINE
  5
255
100
AcDbEntity
  8
0
 62
7
100
AcDbSpline
 70
8
 71
3
 72
8
 73
4
 74
0
 40
0
 40
0
 40
0
 40
0
 40
1
 40
1
 40
1
 40
1
 10
69.181769
 20
48.765685
 30
0.0
 10
71.284992
 20
50.893277
 30
0.0
 10
74.232702
 20
56.036515
 30
0.0
 10
73.805902
 20
56.833990
 30
0.0
  0
SPLINE
  5
256
100
AcDbEntity
  8
0
 62
7
100
AcDbSpline
 70
8
 71
3
 72
8
 73
4
 74
0
 40
0
 40
0
 40
0
 40
0
 40
1
 40
1
 40
1
 40
1
 10
73.805902
 20
56.833990
 30
0.0
 10
73.572310
 20
57.270473
 30
0.0
 10
73.664797
 20
57.800754
 30
0.0
 10
74.077227
 20
58.389578
 30
0.0
  0
SPLINE
  5
257
100
AcDbEntity
  8
0
 62
7
100
AcDbSpline
 70
8
 71
3
 72
8
 73
4
 74
0
 40
0
 40
0
 40
0
 40
0
 40
1
 40
1
 40
1
 40
1
 10
74.077227
 20
58.389578
 30
0.0
 10
74.911800
 20
59.581098
 30
0.0
 10
75.098625
 20
61.263591
 30
0.0
 10
74.365105
 20
60.982114
 30
0.0
  0
SPLINE
  5
258
100
AcDbEntity
  8
0
 62
7
100
AcDbSpline
 70
8
 71
3
 72
8
 73
4
 74
0
 40
0
 40
0
 40
0
 40
0
 40
1
 40
1
 40
1
 40
1
 10
74.365105
 20
60.982114
 30
0.0
 10
73.580686
 20
60.681103
 30
0.0
 10
73.678468
 20
61.056766
 30
0.0
 10
74.888030
 20
62.991138
 30
0.0
  0
SPLINE
  5
259
100
AcDbEntity
  8
0
 62
7
100
AcDbSpline
 70
8
 71
3
 72
8
 73
4
 74
0
 40
0
 40
0
 40
0
 40
0
 40
1
 40
1
 40
1
 40
1
 10
74.888030
 20
62.991138
 30
0.0
 10
75.891002
 20
64.595118
 30
0.0
 10
75.900257
 20
64.651946
 30
0.0
 10
75.035003
 20
63.893584
 30
0.0
  0
LINE
  5
25a
100
AcDbEntity
  8
0
 62
7
100
AcDbLine
 10
75.035003
 20
63.893584
 30
0.0
 11
74.111605
 21
63.084263
 31
0.0
  0
LINE
  5
25b
100
AcDbEntity
  8
0
 62
7
100
AcDbLine
 10
74.111605
 20
63.084263
 30
0.0
 11
74.781601
 21
64.394104
 31
0.0
  0
SPLINE
  5
25c
100
AcDbEntity
  8
0
 62
7
100
AcDbSpline
 70
8
 71
3
 72
8
 73
4
 74
0
 40
0
 40
0
 40
0
 40
0
 40
1
 40
1
 40
1
 40
1
 10
74.781601
 20
64.394104
 30
0.0
 10
75.394733
 20
65.592772
 30
0.0
 10
75.397794
 20
65.832717
 30
0.0
 10
74.817656
 20
67.221206
 30
0.0
  0
SPLINE
  5
25d
100
AcDbEntity
  8
0
 62
7
100
AcDbSpline
 70
8
 71
3
 72
8
 73
4
 74
0
 40
0
 40
0
 40
0
 40
0
 40
1
 40
1
 40
1
 40
1
 10
74.817656
 20
67.221206
 30
0.0
 10
74.061172
 20
69.031734
 30
0.0
 10
72.822856
 20
70.428149
 30
0.0
 10
71.246905
 20
71.247844
 30
0.0
  0
SPLINE
  5
25e
100
AcDbEntity
  8
0
 62
7
100
AcDbSpline
 70
8
 71
3
 72
8
 73
4
 74
0
 40
0
 40
0
 40
0
 40
0
 40
1
 40
1
 40
1
 40
1
 10
71.246905
 20
71.247844
 30
0.0
 10
70.191633
 20
71.796727
 30
0.0
 10
69.919239
 20
71.773791
 30
0.0
 10
68.076038
 20
70.980866
 30
0.0
  0
SPLINE
  5
25f
100
AcDbEntity
  8
0
 62
7
100
AcDbSpline
 70
8
 71
3
 72
8
 73
4
 74
0
 40
0
 40
0
 40
0
 40
0
 40
1
 40
1
 40
1
 40
1
 10
68.076038
 20
70.980866
 30
0.0
 10
66.169480
 20
70.160687
 30
0.0
 10
65.959882
 20
70.147410
 30
0.0
 10
64.229100
 20
70.737148
 30
0.0
  0
SPLINE
  5
260
100
AcDbEntity
  8
0
 62
7
100
AcDbSpline
 70
8
 71
3
 72
8
 73
4
 74
0
 40
0
 40
0
 40
0
 40
0
 40
1
 40
1
 40
1
 40
1
 10
64.229100
 20
70.737148
 30
0.0
 10
61.870951
 20
71.540650
 30
0.0
 10
61.472724
 20
71.312939
 30
0.0
 10
58.629572
 20
67.535274
 30
0.0
  0
SPLINE
  5
261
100
AcDbEntity
  8
0
 62
7
100
AcDbSpline
 70
8
 71
3
 72
8
 73
4
 74
0
 40
0
 40
0
 40
0
 40
0
 40
1
 40
1
 40
1
 40
1
 10
58.629572
 20
67.535274
 30
0.0
 10
56.256580
 20
64.382309
 30
0.0
 10
55.213502
 20
63.352402
 30
0.0
 10
55.796205
 20
64.737689
 30
0.0
  0
SPLINE
  5
262
100
AcDbEntity
  8
0
 62
7
100
AcDbSpline
 70
8
 71
3
 72
8
 73
4
 74
0
 40
0
 40
0
 40
0
 40
0
 40
1
 40
1
 40
1
 40
1
 10
55.796205
 20
64.737689
 30
0.0
 10
56.467924
 20
66.334582
 30
0.0
 10
56.223216
 20
66.981189
 30
0.0
 10
54.575806
 20
67.962425
 30
0.0
  0
SPLINE
  5
263
100
AcDbEntity
  8
0
 62
7
100
AcDbSpline
 70
8
 71
3
 72
8
 73
4
 74
0
 40
0
 40
0
 40
0
 40
0
 40
1
 40
1
 40
1
 40
1
 10
54.575806
 20
67.962425
 30
0.0
 10
53.059805
 20
68.865390
 30
0.0
 10
52.869321
 20
68.891549
 30
0.0
 10
52.040024
 20
68.310688
 30
0.0
  0
SPLINE
  5
264
100
AcDbEntity
  8
0
 62
7
100
AcDbSpline
 70
8
 71
3
 72
8
 73
4
 74
0
 40
0
 40
0
 40
0
 40
0
 40
1
 40
1
 40
1
 40
1
 10
52.040024
 20
68.310688
 30
0.0
 10
51.261077
 20
67.765097
 30
0.0
 10
51.167555
 20
67.407385
 30
0.0
 10
51.327615
 20
65.585785
 30
0.0
  0
SPLINE
  5
265
100
AcDbEntity
  8
0
 62
7
100
AcDbSpline
 70
8
 71
3
 72
8
 73
4
 74
0
 40
0
 40
0
 40
0
 40
0
 40
1
 40
1
 40
1
 40
1
 10
51.327615
 20
65.585785
 30
0.0
 10
51.504563
 20
63.571983
 30
0.0
 10
51.487688
 20
63.528996
 30
0.0
 10
50.901657
 20
64.500575
 30
0.0
  0
SPLINE
  5
266
100
AcDbEntity
  8
0
 62
7
100
AcDbSpline
 70
8
 71
3
 72
8
 73
4
 74
0
 40
0
 40
0
 40
0
 40
0
 40
1
 40
1
 40
1
 40
1
 10
50.901657
 20
64.500575
 30
0.0
 10
50.247258
 20
65.585501
 30
0.0
 10
50.250829
 20
65.573010
 30
0.0
 10
51.828169
 20
61.263289
 30
0.0
  0
SPLINE
  5
267
100
AcDbEntity
  8
0
 62
7
100
AcDbSpline
 70
8
 71
3
 72
8
 73
4
 74
0
 40
0
 40
0
 40
0
 40
0
 40
1
 40
1
 40
1
 40
1
 10
51.828169
 20
61.263289
 30
0.0
 10
52.764712
 20
58.704406
 30
0.0
 10
52.767498
 20
58.660459
 30
0.0
 10
51.930838
 20
59.644645
 30
0.0
  0
LINE
  5
268
100
AcDbEntity
  8
0
 62
7
100
AcDbLine
 10
51.930838
 20
59.644645
 30
0.0
 11
51.070834
 21
60.656298
 31
0.0
  0
LINE
  5
269
100
AcDbEntity
  8
0
 62
7
100
AcDbLine
 10
51.070834
 20
60.656298
 30
0.0
 11
51.917421
 21
59.125274
 31
0.0
  0
SPLINE
  5
26a
100
AcDbEntity
  8
0
 62
7
100
AcDbSpline
 70
8
 71
3
 72
8
 73
4
 74
0
 40
0
 40
0
 40
0
 40
0
 40
1
 40
1
 40
1
 40
1
 10
51.917421
 20
59.125274
 30
0.0
 10
52.383043
 20
58.283211
 30
0.0
 10
52.732894
 20
57.190627
 30
0.0
 10
52.694862
 20
56.697309
 30
0.0
  0
SPLINE
  5
26b
100
AcDbEntity
  8
0
 62
7
100
AcDbSpline
 70
8
 71
3
 72
8
 73
4
 74
0
 40
0
 40
0
 40
0
 40
0
 40
1
 40
1
 40
1
 40
1
 10
52.694862
 20
56.697309
 30
0.0
 10
52.623388
 20
55.770190
 30
0.0
 10
56.508849
 20
49.434997
 30
0.0
 10
57.872795
 20
48.254759
 30
0.0
  0
SPLINE
  5
26c
100
AcDbEntity
  8
0
 62
7
100
AcDbSpline
 70
8
 71
3
 72
8
 73
4
 74
0
 40
0
 40
0
 40
0
 40
0
 40
1
 40
1
 40
1
 40
1
 10
57.872795
 20
48.254759
 30
0.0
 10
59.012689
 20
47.268395
 30
0.0
 10
59.876096
 20
47.130616
 30
0.0
 10
64.044781
 20
47.269874
 30
0.0
  0
SPLINE
  5
26d
100
AcDbEntity
  8
0
 62
7
100
AcDbSpline
 70
8
 71
3
 72
8
 73
4
 74
0
 40
0
 40
0
 40
0
 40
0
 40
1
 40
1
 40
1
 40
1
 10
64.044781
 20
47.269874
 30
0.0
 10
67.737848
 20
47.393239
 30
0.0
 10
67.860294
 20
47.428891
 30
0.0
 10
69.181777
 20
48.765685
 30
0.0
  0
LINE
  5
26e
100
AcDbEntity
  8
0
 62
7
100
AcDbLine
 10
69.181777
 20
48.765685
 30
0.0
 11
69.181769
 21
48.765685
 31
0.0
  0
SPLINE
  5
26f
100
AcDbEntity
  8
0
 62
7
100
AcDbSpline
 70
8
 71
3
 72
8
 73
4
 74
0
 40
0
 40
0
 40
0
 40
0
 40
1
 40
1
 40
1
 40
1
 10
59.905425
 20
52.819065
 30
0.0
 10
60.851344
 20
53.864296
 30
0.0
 10
60.267811
 20
54.291217
 30
0.0
 10
59.198580
 20
53.336206
 30
0.0
  0
SPLINE
  5
270
100
AcDbEntity
  8
0
 62
7
100
AcDbSpline
 70
8
 71
3
 72
8
 73
4
 74
0
 40
0
 40
0
 40
0
 40
0
 40
1
 40
1
 40
1
 40
1
 10
59.198580
 20
53.336206
 30
0.0
 10
58.338597
 20
52.568084
 30
0.0
 10
58.334890
 20
52.569158
 30
0.0
 10
58.625582
 20
53.502568
 30
0.0
  0
SPLINE
  5
271
100
AcDbEntity
  8
0
 62
7
100
AcDbSpline
 70
8
 71
3
 72
8
 73
4
 74
0
 40
0
 40
0
 40
0
 40
0
 40
1
 40
1
 40
1
 40
1
 10
58.625582
 20
53.502568
 30
0.0
 10
58.827512
 20
54.150956
 30
0.0
 10
58.696850
 20
54.686605
 30
0.0
 10
58.203897
 20
55.231311
 30
0.0
  0
SPLINE
  5
272
100
AcDbEntity
  8
0
 62
7
100
AcDbSpline
 70
8
 71
3
 72
8
 73
4
 74
0
 40
0
 40
0
 40
0
 40
0
 40
1
 40
1
 40
1
 40
1
 10
58.203897
 20
55.231311
 30
0.0
 10
57.500071
 20
56.009038
 30
0.0
 10
57.511173
 20
56.011570
 30
0.0
 10
58.963749
 20
55.404645
 30
0.0
  0
SPLINE
  5
273
100
AcDbEntity
  8
0
 62
7
100
AcDbSpline
 70
8
 71
3
 72
8
 73
4
 74
0
 40
0
 40
0
 40
0
 40
0
 40
1
 40
1
 40
1
 40
1
 10
58.963749
 20
55.404645
 30
0.0
 10
60.857581
 20
54.613350
 30
0.0
 10
65.964973
 20
54.607905
 30
0.0
 10
67.343092
 20
55.395702
 30
0.0
  0
SPLINE
  5
274
100
AcDbEntity
  8
0
 62
7
100
AcDbSpline
 70
8
 71
3
 72
8
 73
4
 74
0
 40
0
 40
0
 40
0
 40
0
 40
1
 40
1
 40
1
 40
1
 10
67.343092
 20
55.395702
 30
0.0
 10
68.667033
 20
56.152534
 30
0.0
 10
69.185952
 20
56.153458
 30
0.0
 10
68.558863
 20
55.397818
 30
0.0
  0
SPLINE
  5
275
100
AcDbEntity
  8
0
 62
7
100
AcDbSpline
 70
8
 71
3
 72
8
 73
4
 74
0
 40
0
 40
0
 40
0
 40
0
 40
1
 40
1
 40
1
 40
1
 10
68.558863
 20
55.397818
 30
0.0
 10
68.282778
 20
55.065158
 30
0.0
 10
68.159247
 20
54.401583
 30
0.0
 10
68.284345
 20
53.923213
 30
0.0
  0
SPLINE
  5
276
100
AcDbEntity
  8
0
 62
7
100
AcDbSpline
 70
8
 71
3
 72
8
 73
4
 74
0
 40
0
 40
0
 40
0
 40
0
 40
1
 40
1
 40
1
 40
1
 10
68.284345
 20
53.923213
 30
0.0
 10
68.440160
 20
53.327367
 30
0.0
 10
68.380735
 20
53.184502
 30
0.0
 10
68.095647
 20
53.469588
 30
0.0
  0
SPLINE
  5
277
100
AcDbEntity
  8
0
 62
7
100
AcDbSpline
 70
8
 71
3
 72
8
 73
4
 74
0
 40
0
 40
0
 40
0
 40
0
 40
1
 40
1
 40
1
 40
1
 10
68.095647
 20
53.469588
 30
0.0
 10
67.866769
 20
53.698468
 30
0.0
 10
67.307530
 20
53.788459
 30
0.0
 10
66.852891
 20
53.669568
 30
0.0
  0
SPLINE
  5
278
100
AcDbEntity
  8
0
 62
7
100
AcDbSpline
 70
8
 71
3
 72
8
 73
4
 74
0
 40
0
 40
0
 40
0
 40
0
 40
1
 40
1
 40
1
 40
1
 10
66.852891
 20
53.669568
 30
0.0
 10
66.047608
 20
53.458983
 30
0.0
 10
66.051100
 20
53.434226
 30
0.0
 10
66.988180
 20
52.710109
 30
0.0
  0
SPLINE
  5
279
100
AcDbEntity
  8
0
 62
7
100
AcDbSpline
 70
8
 71
3
 72
8
 73
4
 74
0
 40
0
 40
0
 40
0
 40
0
 40
1
 40
1
 40
1
 40
1
 10
66.988180
 20
52.710109
 30
0.0
 10
67.949930
 20
51.966935
 30
0.0
 10
67.949763
 20
51.966866
 30
0.0
 10
65.926780
 20
52.254603
 30
0.0
  0
SPLINE
  5
27a
100
AcDbEntity
  8
0
 62
7
100
AcDbSpline
 70
8
 71
3
 72
8
 73
4
 74
0
 40
0
 40
0
 40
0
 40
0
 40
1
 40
1
 40
1
 40
1
 10
65.926780
 20
52.254603
 30
0.0
 10
63.675385
 20
52.574828
 30
0.0
 10
62.515325
 20
52.577731
 30
0.0
 10
60.548619
 20
52.268044
 30
0.0
  0
SPLINE
  5
27b
100
AcDbEntity
  8
0
 62
7
100
AcDbSpline
 70
8
 71
3
 72
8
 73
4
 74
0
 40
0
 40
0
 40
0
 40
0
 40
1
 40
1
 40
1
 40
1
 10
60.548619
 20
52.268044
 30
0.0
 10
59.267125
 20
52.066259
 30
0.0
 10
59.242942
 20
52.086973
 30
0.0
 10
59.905425
 20
52.819009
 30
0.0
  0
LINE
  5
27c
100
AcDbEntity
  8
0
 62
7
100
AcDbLine
 10
59.905425
 20
52.819009
 30
0.0
 11
59.905425
 21
52.819065
 31
0.0
  0
SPLINE
  5
27d
100
AcDbEntity
  8
0
 62
7
100
AcDbSpline
 70
8
 71
3
 72
8
 73
4
 74
0
 40
0
 40
0
 40
0
 40
0
 40
1
 40
1
 40
1
 40
1
 10
61.475512
 20
56.700817
 30
0.0
 10
60.425463
 20
57.076192
 30
0.0
 10
58.897368
 20
57.216334
 30
0.0
 10
57.125411
 20
57.099769
 30
0.0
  0
SPLINE
  5
27e
100
AcDbEntity
  8
0
 62
7
100
AcDbSpline
 70
8
 71
3
 72
8
 73
4
 74
0
 40
0
 40
0
 40
0
 40
0
 40
1
 40
1
 40
1
 40
1
 10
57.125411
 20
57.099769
 30
0.0
 10
55.623109
 20
57.000942
 30
0.0
 10
54.393953
 20
57.065574
 30
0.0
 10
54.393953
 20
57.243443
 30
0.0
  0
SPLINE
  5
27f
100
AcDbEntity
  8
0
 62
7
100
AcDbSpline
 70
8
 71
3
 72
8
 73
4
 74
0
 40
0
 40
0
 40
0
 40
0
 40
1
 40
1
 40
1
 40
1
 10
54.393953
 20
57.243443
 30
0.0
 10
54.393953
 20
57.632714
 30
0.0
 10
55.208221
 20
57.880443
 30
0.0
 10
57.631236
 20
58.228333
 30
0.0
  0
SPLINE
  5
280
100
AcDbEntity
  8
0
 62
7
100
AcDbSpline
 70
8
 71
3
 72
8
 73
4
 74
0
 40
0
 40
0
 40
0
 40
0
 40
1
 40
1
 40
1
 40
1
 10
57.631236
 20
58.228333
 30
0.0
 10
60.597654
 20
58.654246
 30
0.0
 10
60.979043
 20
58.821558
 30
0.0
 10
60.446421
 20
59.463329
 30
0.0
  0
SPLINE
  5
281
100
AcDbEntity
  8
0
 62
7
100
AcDbSpline
 70
8
 71
3
 72
8
 73
4
 74
0
 40
0
 40
0
 40
0
 40
0
 40
1
 40
1
 40
1
 40
1
 10
60.446421
 20
59.463329
 30
0.0
 10
59.219590
 20
60.941567
 30
0.0
 10
57.333553
 20
64.518926
 30
0.0
 10
57.671061
 20
64.727516
 30
0.0
  0
SPLINE
  5
282
100
AcDbEntity
  8
0
 62
7
100
AcDbSpline
 70
8
 71
3
 72
8
 73
4
 74
0
 40
0
 40
0
 40
0
 40
0
 40
1
 40
1
 40
1
 40
1
 10
57.671061
 20
64.727516
 30
0.0
 10
57.880330
 20
64.856852
 30
0.0
 10
58.937388
 20
64.312406
 30
0.0
 10
60.020079
 20
63.517640
 30
0.0
  0
SPLINE
  5
283
100
AcDbEntity
  8
0
 62
7
100
AcDbSpline
 70
8
 71
3
 72
8
 73
4
 74
0
 40
0
 40
0
 40
0
 40
0
 40
1
 40
1
 40
1
 40
1
 10
60.020079
 20
63.517640
 30
0.0
 10
61.102767
 20
62.722877
 30
0.0
 10
62.432201
 20
62.072610
 30
0.0
 10
62.974369
 20
62.072610
 30
0.0
  0
SPLINE
  5
284
100
AcDbEntity
  8
0
 62
7
100
AcDbSpline
 70
8
 71
3
 72
8
 73
4
 74
0
 40
0
 40
0
 40
0
 40
0
 40
1
 40
1
 40
1
 40
1
 10
62.974369
 20
62.072610
 30
0.0
 10
63.521125
 20
62.072610
 30
0.0
 10
64.717650
 20
62.721019
 30
0.0
 10
65.661099
 20
63.528575
 30
0.0
  0
SPLINE
  5
285
100
AcDbEntity
  8
0
 62
7
100
AcDbSpline
 70
8
 71
3
 72
8
 73
4
 74
0
 40
0
 40
0
 40
0
 40
0
 40
1
 40
1
 40
1
 40
1
 10
65.661099
 20
63.528575
 30
0.0
 10
68.334020
 20
65.816499
 30
0.0
 10
68.866428
 20
65.092503
 30
0.0
 10
66.896060
 20
61.849204
 30
0.0
  0
SPLINE
  5
286
100
AcDbEntity
  8
0
 62
7
100
AcDbSpline
 70
8
 71
3
 72
8
 73
4
 74
0
 40
0
 40
0
 40
0
 40
0
 40
1
 40
1
 40
1
 40
1
 10
66.896060
 20
61.849204
 30
0.0
 10
65.998033
 20
60.371024
 30
0.0
 10
65.347689
 20
59.077199
 30
0.0
 10
65.450850
 20
58.974038
 30
0.0
  0
SPLINE
  5
287
100
AcDbEntity
  8
0
 62
7
100
AcDbSpline
 70
8
 71
3
 72
8
 73
4
 74
0
 40
0
 40
0
 40
0
 40
0
 40
1
 40
1
 40
1
 40
1
 10
65.450850
 20
58.974038
 30
0.0
 10
65.554011
 20
58.870874
 30
0.0
 10
66.862408
 20
58.613133
 30
0.0
 10
68.358402
 20
58.401273
 30
0.0
  0
SPLINE
  5
288
100
AcDbEntity
  8
0
 62
7
100
AcDbSpline
 70
8
 71
3
 72
8
 73
4
 74
0
 40
0
 40
0
 40
0
 40
0
 40
1
 40
1
 40
1
 40
1
 10
68.358402
 20
58.401273
 30
0.0
 10
71.287982
 20
57.986390
 30
0.0
 10
71.925054
 20
57.755528
 30
0.0
 10
71.598470
 20
57.227105
 30
0.0
  0
SPLINE
  5
289
100
AcDbEntity
  8
0
 62
7
100
AcDbSpline
 70
8
 71
3
 72
8
 73
4
 74
0
 40
0
 40
0
 40
0
 40
0
 40
1
 40
1
 40
1
 40
1
 10
71.598470
 20
57.227105
 30
0.0
 10
71.483475
 20
57.041034
 30
0.0
 10
70.315818
 20
56.986144
 30
0.0
 10
69.003683
 20
57.105124
 30
0.0
  0
SPLINE
  5
28a
100
AcDbEntity
  8
0
 62
7
100
AcDbSpline
 70
8
 71
3
 72
8
 73
4
 74
0
 40
0
 40
0
 40
0
 40
0
 40
1
 40
1
 40
1
 40
1
 10
69.003683
 20
57.105124
 30
0.0
 10
67.432328
 20
57.247610
 30
0.0
 10
66.016553
 20
57.116766
 30
0.0
 10
64.856067
 20
56.721814
 30
0.0
  0
SPLINE
  5
28b
100
AcDbEntity
  8
0
 62
7
100
AcDbSpline
 70
8
 71
3
 72
8
 73
4
 74
0
 40
0
 40
0
 40
0
 40
0
 40
1
 40
1
 40
1
 40
1
 10
64.856067
 20
56.721814
 30
0.0
 10
63.319277
 20
56.198791
 30
0.0
 10
62.887342
 20
56.196109
 30
0.0
 10
61.475512
 20
56.700807
 30
0.0
  0
LINE
  5
28c
100
AcDbEntity
  8
0
 62
7
100
AcDbLine
 10
61.475512
 20
56.700807
 30
0.0
 11
61.475512
 21
56.700817
 31
0.0
  0
SPLINE
  5
28d
100
AcDbEntity
  8
0
 62
7
100
AcDbSpline
 70
8
 71
3
 72
8
 73
4
 74
0
 40
0
 40
0
 40
0
 40
0
 40
1
 40
1
 40
1
 40
1
 10
69.928651
 20
63.575237
 30
0.0
 10
69.285565
 20
64.413799
 30
0.0
 10
68.542131
 20
65.512209
 30
0.0
 10
68.276577
 20
66.016145
 30
0.0
  0
SPLINE
  5
28e
100
AcDbEntity
  8
0
 62
7
100
AcDbSpline
 70
8
 71
3
 72
8
 73
4
 74
0
 40
0
 40
0
 40
0
 40
0
 40
1
 40
1
 40
1
 40
1
 10
68.276577
 20
66.016145
 30
0.0
 10
67.330244
 20
67.811975
 30
0.0
 10
69.264959
 20
66.234090
 30
0.0
 10
70.414516
 20
64.272523
 30
0.0
  0
SPLINE
  5
28f
100
AcDbEntity
  8
0
 62
7
100
AcDbSpline
 70
8
 71
3
 72
8
 73
4
 74
0
 40
0
 40
0
 40
0
 40
0
 40
1
 40
1
 40
1
 40
1
 10
70.414516
 20
64.272523
 30
0.0
 10
71.763629
 20
61.970433
 30
0.0
 10
71.475963
 20
61.557593
 30
0.0
 10
69.928651
 20
63.575237
 30
0.0
  0
LINE
  5
290
100
AcDbEntity
  8
0
 62
7
100
AcDbLine
 10
69.928651
 20
63.575237
 30
0.0
 11
69.928651
 21
63.575237
 31
0.0
  0
SPLINE
  5
291
100
AcDbEntity
  8
0
 62
7
100
AcDbSpline
 70
8
 71
3
 72
8
 73
4
 74
0
 40
0
 40
0
 40
0
 40
0
 40
1
 40
1
 40
1
 40
1
 10
29.254804
 20
51.045608
 30
0.0
 10
28.384772
 20
52.770474
 30
0.0
 10
27.576239
 20
54.819069
 30
0.0
 10
27.458066
 20
55.598039
 30
0.0
  0
SPLINE
  5
292
100
AcDbEntity
  8
0
 62
7
100
AcDbSpline
 70
8
 71
3
 72
8
 73
4
 74
0
 40
0
 40
0
 40
0
 40
0
 40
1
 40
1
 40
1
 40
1
 10
27.458066
 20
55.598039
 30
0.0
 10
27.256035
 20
56.929793
 30
0.0
 10
27.315696
 20
56.881477
 30
0.0
 10
28.457339
 20
54.788718
 30
0.0
  0
SPLINE
  5
293
100
AcDbEntity
  8
0
 62
7
100
AcDbSpline
 70
8
 71
3
 72
8
 73
4
 74
0
 40
0
 40
0
 40
0
 40
0
 40
1
 40
1
 40
1
 40
1
 10
28.457339
 20
54.788718
 30
0.0
 10
29.735975
 20
52.444846
 30
0.0
 10
30.079928
 20
52.304427
 30
0.0
 10
29.168912
 20
54.498222
 30
0.0
  0
SPLINE
  5
294
100
AcDbEntity
  8
0
 62
7
100
AcDbSpline
 70
8
 71
3
 72
8
 73
4
 74
0
 40
0
 40
0
 40
0
 40
0
 40
1
 40
1
 40
1
 40
1
 10
29.168912
 20
54.498222
 30
0.0
 10
28.871502
 20
55.214401
 30
0.0
 10
28.507102
 20
56.346662
 30
0.0
 10
28.359128
 20
57.014351
 30
0.0
  0
LINE
  5
295
100
AcDbEntity
  8
0
 62
7
100
AcDbLine
 10
28.359128
 20
57.014351
 30
0.0
 11
28.090095
 21
58.228333
 31
0.0
  0
LINE
  5
296
100
AcDbEntity
  8
0
 62
7
100
AcDbLine
 10
28.090095
 20
58.228333
 30
0.0
 11
28.924702
 21
56.812022
 31
0.0
  0
SPLINE
  5
297
100
AcDbEntity
  8
0
 62
7
100
AcDbSpline
 70
8
 71
3
 72
8
 73
4
 74
0
 40
0
 40
0
 40
0
 40
0
 40
1
 40
1
 40
1
 40
1
 10
28.924702
 20
56.812022
 30
0.0
 10
29.383738
 20
56.033051
 30
0.0
 10
29.656314
 20
55.731299
 30
0.0
 10
29.530428
 20
56.141459
 30
0.0
  0
SPLINE
  5
298
100
AcDbEntity
  8
0
 62
7
100
AcDbSpline
 70
8
 71
3
 72
8
 73
4
 74
0
 40
0
 40
0
 40
0
 40
0
 40
1
 40
1
 40
1
 40
1
 10
29.530428
 20
56.141459
 30
0.0
 10
28.882151
 20
58.253662
 30
0.0
 10
28.872304
 20
58.897962
 30
0.0
 10
29.469976
 20
60.096017
 30
0.0
  0
SPLINE
  5
299
100
AcDbEntity
  8
0
 62
7
100
AcDbSpline
 70
8
 71
3
 72
8
 73
4
 74
0
 40
0
 40
0
 40
0
 40
0
 40
1
 40
1
 40
1
 40
1
 10
29.469976
 20
60.096017
 30
0.0
 10
29.826290
 20
60.810275
 30
0.0
 10
30.052612
 20
61.459880
 30
0.0
 10
29.972907
 20
61.539583
 30
0.0
  0
SPLINE
  5
29a
100
AcDbEntity
  8
0
 62
7
100
AcDbSpline
 70
8
 71
3
 72
8
 73
4
 74
0
 40
0
 40
0
 40
0
 40
0
 40
1
 40
1
 40
1
 40
1
 10
29.972907
 20
61.539583
 30
0.0
 10
29.893201
 20
61.619289
 30
0.0
 10
29.072974
 20
60.865409
 30
0.0
 10
28.150179
 20
59.864297
 30
0.0
  0
SPLINE
  5
29b
100
AcDbEntity
  8
0
 62
7
100
AcDbSpline
 70
8
 71
3
 72
8
 73
4
 74
0
 40
0
 40
0
 40
0
 40
0
 40
1
 40
1
 40
1
 40
1
 10
28.150179
 20
59.864297
 30
0.0
 10
26.239791
 20
57.791771
 30
0.0
 10
26.112263
 20
56.959101
 30
0.0
 10
27.247614
 20
53.971100
 30
0.0
  0
SPLINE
  5
29c
100
AcDbEntity
  8
0
 62
7
100
AcDbSpline
 70
8
 71
3
 72
8
 73
4
 74
0
 40
0
 40
0
 40
0
 40
0
 40
1
 40
1
 40
1
 40
1
 10
27.247614
 20
53.971100
 30
0.0
 10
27.916681
 20
52.210256
 30
0.0
 10
30.380381
 20
47.909488
 30
0.0
 10
30.720016
 20
47.909488
 30
0.0
  0
SPLINE
  5
29d
100
AcDbEntity
  8
0
 62
7
100
AcDbSpline
 70
8
 71
3
 72
8
 73
4
 74
0
 40
0
 40
0
 40
0
 40
0
 40
1
 40
1
 40
1
 40
1
 10
30.720016
 20
47.909488
 30
0.0
 10
30.784183
 20
47.909488
 30
0.0
 10
30.124838
 20
49.320742
 30
0.0
 10
29.254804
 20
51.045608
 30
0.0
  0
LINE
  5
29e
100
AcDbEntity
  8
0
 62
7
100
AcDbLine
 10
29.254804
 20
51.045608
 30
0.0
 11
29.254804
 21
51.045608
 31
0.0
  0
SPLINE
  5
29f
100
AcDbEntity
  8
0
 62
7
100
AcDbSpline
 70
8
 71
3
 72
8
 73
4
 74
0
 40
0
 40
0
 40
0
 40
0
 40
1
 40
1
 40
1
 40
1
 10
90.458145
 20
59.108470
 30
0.0
 10
89.981117
 20
59.928803
 30
0.0
 10
89.865920
 20
59.666235
 30
0.0
 10
90.256410
 20
58.648640
 30
0.0
  0
SPLINE
  5
2a0
100
AcDbEntity
  8
0
 62
7
100
AcDbSpline
 70
8
 71
3
 72
8
 73
4
 74
0
 40
0
 40
0
 40
0
 40
0
 40
1
 40
1
 40
1
 40
1
 10
90.256410
 20
58.648640
 30
0.0
 10
90.395184
 20
58.286994
 30
0.0
 10
90.593974
 20
58.076344
 30
0.0
 10
90.698161
 20
58.180531
 30
0.0
  0
SPLINE
  5
2a1
100
AcDbEntity
  8
0
 62
7
100
AcDbSpline
 70
8
 71
3
 72
8
 73
4
 74
0
 40
0
 40
0
 40
0
 40
0
 40
1
 40
1
 40
1
 40
1
 10
90.698161
 20
58.180531
 30
0.0
 10
90.802349
 20
58.284719
 30
0.0
 10
90.694510
 20
58.702292
 30
0.0
 10
90.458145
 20
59.108470
 30
0.0
  0
LINE
  5
2a2
100
AcDbEntity
  8
0
 62
7
100
AcDbLine
 10
90.458145
 20
59.108470
 30
0.0
 11
90.458145
 21
59.108470
 31
0.0
  0
SPLINE
  5
2a3
100
AcDbEntity
  8
0
 62
7
100
AcDbSpline
 70
8
 71
3
 72
8
 73
4
 74
0
 40
0
 40
0
 40
0
 40
0
 40
1
 40
1
 40
1
 40
1
 10
60.059201
 20
80.897814
 30
0.0
 10
58.612538
 20
82.102883
 30
0.0
 10
56.381847
 20
83.651698
 30
0.0
 10
55.102108
 20
84.339617
 30
0.0
  0
SPLINE
  5
2a4
100
AcDbEntity
  8
0
 62
7
100
AcDbSpline
 70
8
 71
3
 72
8
 73
4
 74
0
 40
0
 40
0
 40
0
 40
0
 40
1
 40
1
 40
1
 40
1
 10
55.102108
 20
84.339617
 30
0.0
 10
52.661829
 20
85.651387
 30
0.0
 10
52.426818
 20
85.963931
 30
0.0
 10
53.322068
 20
86.706918
 30
0.0
  0
SPLINE
  5
2a5
100
AcDbEntity
  8
0
 62
7
100
AcDbSpline
 70
8
 71
3
 72
8
 73
4
 74
0
 40
0
 40
0
 40
0
 40
0
 40
1
 40
1
 40
1
 40
1
 10
53.322068
 20
86.706918
 30
0.0
 10
54.021258
 20
87.287200
 30
0.0
 10
56.144254
 20
85.898794
 30
0.0
 10
60.266192
 20
82.165568
 30
0.0
  0
SPLINE
  5
2a6
100
AcDbEntity
  8
0
 62
7
100
AcDbSpline
 70
8
 71
3
 72
8
 73
4
 74
0
 40
0
 40
0
 40
0
 40
0
 40
1
 40
1
 40
1
 40
1
 10
60.266192
 20
82.165568
 30
0.0
 10
62.444186
 20
80.192964
 30
0.0
 10
63.338708
 20
79.604878
 30
0.0
 10
63.576984
 20
79.988931
 30
0.0
  0
SPLINE
  5
2a7
100
AcDbEntity
  8
0
 62
7
100
AcDbSpline
 70
8
 71
3
 72
8
 73
4
 74
0
 40
0
 40
0
 40
0
 40
0
 40
1
 40
1
 40
1
 40
1
 10
63.576984
 20
79.988931
 30
0.0
 10
63.946647
 20
80.584738
 30
0.0
 10
69.379572
 20
85.024666
 30
0.0
 10
71.110476
 20
86.145486
 30
0.0
  0
SPLINE
  5
2a8
100
AcDbEntity
  8
0
 62
7
100
AcDbSpline
 70
8
 71
3
 72
8
 73
4
 74
0
 40
0
 40
0
 40
0
 40
0
 40
1
 40
1
 40
1
 40
1
 10
71.110476
 20
86.145486
 30
0.0
 10
72.161665
 20
86.826174
 30
0.0
 10
72.297402
 20
86.831953
 30
0.0
 10
72.907359
 20
86.221995
 30
0.0
  0
SPLINE
  5
2a9
100
AcDbEntity
  8
0
 62
7
100
AcDbSpline
 70
8
 71
3
 72
8
 73
4
 74
0
 40
0
 40
0
 40
0
 40
0
 40
1
 40
1
 40
1
 40
1
 10
72.907359
 20
86.221995
 30
0.0
 10
73.270251
 20
85.859103
 30
0.0
 10
73.486950
 20
85.499220
 30
0.0
 10
73.388916
 20
85.422250
 30
0.0
  0
SPLINE
  5
2aa
100
AcDbEntity
  8
0
 62
7
100
AcDbSpline
 70
8
 71
3
 72
8
 73
4
 74
0
 40
0
 40
0
 40
0
 40
0
 40
1
 40
1
 40
1
 40
1
 10
73.388916
 20
85.422250
 30
0.0
 10
73.290880
 20
85.345275
 30
0.0
 10
72.303432
 20
84.762194
 30
0.0
 10
71.194579
 20
84.126509
 30
0.0
  0
SPLINE
  5
2ab
100
AcDbEntity
  8
0
 62
7
100
AcDbSpline
 70
8
 71
3
 72
8
 73
4
 74
0
 40
0
 40
0
 40
0
 40
0
 40
1
 40
1
 40
1
 40
1
 10
71.194579
 20
84.126509
 30
0.0
 10
70.085729
 20
83.490829
 30
0.0
 10
67.827867
 20
82.001645
 30
0.0
 10
66.177116
 20
80.817212
 30
0.0
  0
SPLINE
  5
2ac
100
AcDbEntity
  8
0
 62
7
100
AcDbSpline
 70
8
 71
3
 72
8
 73
4
 74
0
 40
0
 40
0
 40
0
 40
0
 40
1
 40
1
 40
1
 40
1
 10
66.177116
 20
80.817212
 30
0.0
 10
64.526359
 20
79.632778
 30
0.0
 10
63.066336
 20
78.673391
 30
0.0
 10
62.932620
 20
78.685241
 30
0.0
  0
SPLINE
  5
2ad
100
AcDbEntity
  8
0
 62
7
100
AcDbSpline
 70
8
 71
3
 72
8
 73
4
 74
0
 40
0
 40
0
 40
0
 40
0
 40
1
 40
1
 40
1
 40
1
 10
62.932620
 20
78.685241
 30
0.0
 10
62.798900
 20
78.697095
 30
0.0
 10
61.505863
 20
79.692748
 30
0.0
 10
60.059201
 20
80.897814
 30
0.0
  0
LINE
  5
2ae
100
AcDbEntity
  8
0
 62
7
100
AcDbLine
 10
60.059201
 20
80.897814
 30
0.0
 11
60.059201
 21
80.897814
 31
0.0
  0
LINE
  5
2af
100
AcDbEntity
  8
0
 62
7
100
AcDbLine
 10
58.881876
 20
84.269103
 30
0.0
 11
55.478917
 21
87.418105
 31
0.0
  0
LINE
  5
2b0
100
AcDbEntity
  8
0
 62
7
100
AcDbLine
 10
55.478917
 20
87.418105
 30
0.0
 11
57.296165
 21
88.937136
 31
0.0
  0
SPLINE
  5
2b1
100
AcDbEntity
  8
0
 62
7
100
AcDbSpline
 70
8
 71
3
 72
8
 73
4
 74
0
 40
0
 40
0
 40
0
 40
0
 40
1
 40
1
 40
1
 40
1
 10
57.296165
 20
88.937136
 30
0.0
 10
58.295652
 20
89.772603
 30
0.0
 10
59.872505
 20
90.908838
 30
0.0
 10
60.800288
 20
91.462100
 30
0.0
  0
LINE
  5
2b2
100
AcDbEntity
  8
0
 62
7
100
AcDbLine
 10
60.800288
 20
91.462100
 30
0.0
 11
62.487165
 21
92.468030
 31
0.0
  0
LINE
  5
2b3
100
AcDbEntity
  8
0
 62
7
100
AcDbLine
 10
62.487165
 20
92.468030
 30
0.0
 11
62.487165
 21
86.779846
 31
0.0
  0
SPLINE
  5
2b4
100
AcDbEntity
  8
0
 62
7
100
AcDbSpline
 70
8
 71
3
 72
8
 73
4
 74
0
 40
0
 40
0
 40
0
 40
0
 40
1
 40
1
 40
1
 40
1
 10
62.487165
 20
86.779846
 30
0.0
 10
62.487165
 20
83.651346
 30
0.0
 10
62.441641
 20
81.098061
 30
0.0
 10
62.385999
 20
81.105885
 30
0.0
  0
SPLINE
  5
2b5
100
AcDbEntity
  8
0
 62
7
100
AcDbSpline
 70
8
 71
3
 72
8
 73
4
 74
0
 40
0
 40
0
 40
0
 40
0
 40
1
 40
1
 40
1
 40
1
 10
62.385999
 20
81.105885
 30
0.0
 10
62.330357
 20
81.113690
 30
0.0
 10
60.753502
 20
82.537157
 30
0.0
 10
58.881876
 20
84.269103
 30
0.0
  0
LINE
  5
2b6
100
AcDbEntity
  8
0
 62
7
100
AcDbLine
 10
58.881876
 20
84.269103
 30
0.0
 11
58.881876
 21
84.269103
 31
0.0
  0
SPLINE
  5
2b7
100
AcDbEntity
  8
0
 62
7
100
AcDbSpline
 70
8
 71
3
 72
8
 73
4
 74
0
 40
0
 40
0
 40
0
 40
0
 40
1
 40
1
 40
1
 40
1
 10
63.701148
 20
86.744817
 30
0.0
 10
63.701148
 20
91.206833
 30
0.0
 10
63.812744
 20
92.407165
 30
0.0
 10
64.206973
 20
92.185476
 30
0.0
  0
SPLINE
  5
2b8
100
AcDbEntity
  8
0
 62
7
100
AcDbSpline
 70
8
 71
3
 72
8
 73
4
 74
0
 40
0
 40
0
 40
0
 40
0
 40
1
 40
1
 40
1
 40
1
 10
64.206973
 20
92.185476
 30
0.0
 10
65.880875
 20
91.244168
 30
0.0
 10
70.175716
 20
87.729361
 30
0.0
 10
70.175716
 20
87.300786
 30
0.0
  0
SPLINE
  5
2b9
100
AcDbEntity
  8
0
 62
7
100
AcDbSpline
 70
8
 71
3
 72
8
 73
4
 74
0
 40
0
 40
0
 40
0
 40
0
 40
1
 40
1
 40
1
 40
1
 10
70.175716
 20
87.300786
 30
0.0
 10
70.175716
 20
86.814395
 30
0.0
 10
67.869883
 20
84.497640
 30
0.0
 10
65.016293
 20
82.116930
 30
0.0
  0
LINE
  5
2ba
100
AcDbEntity
  8
0
 62
7
100
AcDbLine
 10
65.016293
 20
82.116930
 30
0.0
 11
63.701148
 21
81.019716
 31
0.0
  0
LINE
  5
2bb
100
AcDbEntity
  8
0
 62
7
100
AcDbLine
 10
63.701148
 20
81.019716
 30
0.0
 11
63.701148
 21
86.744817
 31
0.0
  0
SPLINE
  5
2bc
100
AcDbEntity
  8
0
 62
7
100
AcDbSpline
 70
8
 71
3
 72
8
 73
4
 74
0
 40
0
 40
0
 40
0
 40
0
 40
1
 40
1
 40
1
 40
1
 10
72.401351
 20
87.908140
 30
0.0
 10
70.271974
 20
90.257312
 30
0.0
 10
66.405509
 20
93.308884
 30
0.0
 10
64.233894
 20
94.354230
 30
0.0
  0
SPLINE
  5
2bd
100
AcDbEntity
  8
0
 62
7
100
AcDbSpline
 70
8
 71
3
 72
8
 73
4
 74
0
 40
0
 40
0
 40
0
 40
0
 40
1
 40
1
 40
1
 40
1
 10
64.233894
 20
94.354230
 30
0.0
 10
62.973409
 20
94.960986
 30
0.0
 10
62.881902
 20
94.936711
 30
0.0
 10
59.984958
 20
93.226934
 30
0.0
  0
SPLINE
  5
2be
100
AcDbEntity
  8
0
 62
7
100
AcDbSpline
 70
8
 71
3
 72
8
 73
4
 74
0
 40
0
 40
0
 40
0
 40
0
 40
1
 40
1
 40
1
 40
1
 10
59.984958
 20
93.226934
 30
0.0
 10
58.356567
 20
92.265862
 30
0.0
 10
55.795088
 20
90.236037
 30
0.0
 10
54.292787
 20
88.716207
 30
0.0
  0
SPLINE
  5
2bf
100
AcDbEntity
  8
0
 62
7
100
AcDbSpline
 70
8
 71
3
 72
8
 73
4
 74
0
 40
0
 40
0
 40
0
 40
0
 40
1
 40
1
 40
1
 40
1
 10
54.292787
 20
88.716207
 30
0.0
 10
51.720354
 20
86.113770
 30
0.0
 10
51.561647
 20
86.017520
 30
0.0
 10
51.566851
 20
87.063056
 30
0.0
  0
SPLINE
  5
2c0
100
AcDbEntity
  8
0
 62
7
100
AcDbSpline
 70
8
 71
3
 72
8
 73
4
 74
0
 40
0
 40
0
 40
0
 40
0
 40
1
 40
1
 40
1
 40
1
 10
51.566851
 20
87.063056
 30
0.0
 10
51.578837
 20
89.472671
 30
0.0
 10
51.989544
 20
89.918992
 30
0.0
 10
57.412838
 20
93.416053
 30
0.0
  0
SPLINE
  5
2c1
100
AcDbEntity
  8
0
 62
7
100
AcDbSpline
 70
8
 71
3
 72
8
 73
4
 74
0
 40
0
 40
0
 40
0
 40
0
 40
1
 40
1
 40
1
 40
1
 10
57.412838
 20
93.416053
 30
0.0
 10
60.361799
 20
95.317605
 30
0.0
 10
62.952245
 20
96.873425
 30
0.0
 10
63.169385
 20
96.873425
 30
0.0
  0
SPLINE
  5
2c2
100
AcDbEntity
  8
0
 62
7
100
AcDbSpline
 70
8
 71
3
 72
8
 73
4
 74
0
 40
0
 40
0
 40
0
 40
0
 40
1
 40
1
 40
1
 40
1
 10
63.169385
 20
96.873425
 30
0.0
 10
63.633338
 20
96.873425
 30
0.0
 10
72.871545
 20
90.651401
 30
0.0
 10
73.945200
 20
89.615803
 30
0.0
  0
SPLINE
  5
2c3
100
AcDbEntity
  8
0
 62
7
100
AcDbSpline
 70
8
 71
3
 72
8
 73
4
 74
0
 40
0
 40
0
 40
0
 40
0
 40
1
 40
1
 40
1
 40
1
 10
73.945200
 20
89.615803
 30
0.0
 10
74.469774
 20
89.109830
 30
0.0
 10
74.643274
 20
88.445506
 30
0.0
 10
74.552191
 20
87.291653
 30
0.0
  0
LINE
  5
2c4
100
AcDbEntity
  8
0
 62
7
100
AcDbLine
 10
74.552191
 20
87.291653
 30
0.0
 11
74.424654
 21
85.675991
 31
0.0
  0
LINE
  5
2c5
100
AcDbEntity
  8
0
 62
7
100
AcDbLine
 10
74.424654
 20
85.675991
 30
0.0
 11
72.401351
 21
87.908140
 31
0.0
  0
SPLINE
  5
2c6
100
AcDbEntity
  8
0
 62
7
100
AcDbSpline
 70
8
 71
3
 72
8
 73
4
 74
0
 40
0
 40
0
 40
0
 40
0
 40
1
 40
1
 40
1
 40
1
 10
75.110534
 20
87.768562
 30
0.0
 10
75.118789
 20
88.436251
 30
0.0
 10
75.209472
 20
88.660409
 30
0.0
 10
75.312069
 20
88.266685
 30
0.0
  0
SPLINE
  5
2c7
100
AcDbEntity
  8
0
 62
7
100
AcDbSpline
 70
8
 71
3
 72
8
 73
4
 74
0
 40
0
 40
0
 40
0
 40
0
 40
1
 40
1
 40
1
 40
1
 10
75.312069
 20
88.266685
 30
0.0
 10
75.414667
 20
87.872964
 30
0.0
 10
75.407923
 20
87.326670
 30
0.0
 10
75.297068
 20
87.052705
 30
0.0
  0
SPLINE
  5
2c8
100
AcDbEntity
  8
0
 62
7
100
AcDbSpline
 70
8
 71
3
 72
8
 73
4
 74
0
 40
0
 40
0
 40
0
 40
0
 40
1
 40
1
 40
1
 40
1
 10
75.297068
 20
87.052705
 30
0.0
 10
75.186239
 20
86.778737
 30
0.0
 10
75.102297
 20
87.100870
 30
0.0
 10
75.110544
 20
87.768562
 30
0.0
  0
LINE
  5
2c9
100
AcDbEntity
  8
0
 62
7
100
AcDbLine
 10
75.110544
 20
87.768562
 30
0.0
 11
75.110534
 21
87.768562
 31
0.0
  0
LINE
  5
2ca
100
AcDbEntity
  8
0
 62
7
100
AcDbLine
 10
70.549749
 20
88.679048
 30
0.0
 11
69.568725
 21
89.791865
 31
0.0
  0
LINE
  5
2cb
100
AcDbEntity
  8
0
 62
7
100
AcDbLine
 10
69.568725
 20
89.791865
 30
0.0
 11
70.681544
 21
88.810840
 31
0.0
  0
SPLINE
  5
2cc
100
AcDbEntity
  8
0
 62
7
100
AcDbSpline
 70
8
 71
3
 72
8
 73
4
 74
0
 40
0
 40
0
 40
0
 40
0
 40
1
 40
1
 40
1
 40
1
 10
70.681544
 20
88.810840
 30
0.0
 10
71.293591
 20
88.271275
 30
0.0
 10
71.794360
 20
87.770506
 30
0.0
 10
71.794360
 20
87.698024
 30
0.0
  0
SPLINE
  5
2cd
100
AcDbEntity
  8
0
 62
7
100
AcDbSpline
 70
8
 71
3
 72
8
 73
4
 74
0
 40
0
 40
0
 40
0
 40
0
 40
1
 40
1
 40
1
 40
1
 10
71.794360
 20
87.698024
 30
0.0
 10
71.794360
 20
87.380656
 30
0.0
 10
71.466666
 20
87.638953
 30
0.0
 10
70.549749
 20
88.679048
 30
0.0
  0
LINE
  5
2ce
100
AcDbEntity
  8
0
 62
7
100
AcDbLine
 10
70.549749
 20
88.679048
 30
0.0
 11
70.549749
 21
88.679048
 31
0.0
  0
SPLINE
  5
2cf
100
AcDbEntity
  8
0
 62
7
100
AcDbSpline
 70
8
 71
3
 72
8
 73
4
 74
0
 40
0
 40
0
 40
0
 40
0
 40
1
 40
1
 40
1
 40
1
 10
56.012594
 20
89.337657
 30
0.0
 10
56.012594
 20
89.421684
 30
0.0
 10
56.331264
 20
89.740356
 30
0.0
 10
56.720752
 20
90.045812
 30
0.0
  0
SPLINE
  5
2d0
100
AcDbEntity
  8
0
 62
7
100
AcDbSpline
 70
8
 71
3
 72
8
 73
4
 74
0
 40
0
 40
0
 40
0
 40
0
 40
1
 40
1
 40
1
 40
1
 10
56.720752
 20
90.045812
 30
0.0
 10
57.362567
 20
90.549158
 30
0.0
 10
57.376879
 20
90.534844
 30
0.0
 10
56.873535
 20
89.893028
 30
0.0
  0
SPLINE
  5
2d1
100
AcDbEntity
  8
0
 62
7
100
AcDbSpline
 70
8
 71
3
 72
8
 73
4
 74
0
 40
0
 40
0
 40
0
 40
0
 40
1
 40
1
 40
1
 40
1
 10
56.873535
 20
89.893028
 30
0.0
 10
56.344898
 20
89.218965
 30
0.0
 10
56.012594
 20
89.004605
 30
0.0
 10
56.012594
 20
89.337657
 30
0.0
  0
LINE
  5
2d2
100
AcDbEntity
  8
0
 62
7
100
AcDbLine
 10
56.012594
 20
89.337657
 30
0.0
 11
56.012594
 21
89.337657
 31
0.0
  0
LINE
  5
2d3
100
AcDbEntity
  8
0
 62
7
100
AcDbLine
 10
68.316296
 20
90.500019
 30
0.0
 11
67.545422
 21
91.410506
 31
0.0
  0
LINE
  5
2d4
100
AcDbEntity
  8
0
 62
7
100
AcDbLine
 10
67.545422
 20
91.410506
 30
0.0
 11
68.455908
 21
90.639632
 31
0.0
  0
SPLINE
  5
2d5
100
AcDbEntity
  8
0
 62
7
100
AcDbSpline
 70
8
 71
3
 72
8
 73
4
 74
0
 40
0
 40
0
 40
0
 40
0
 40
1
 40
1
 40
1
 40
1
 10
68.455908
 20
90.639632
 30
0.0
 10
68.956677
 20
90.215653
 30
0.0
 10
69.366395
 20
89.805933
 30
0.0
 10
69.366395
 20
89.729145
 30
0.0
  0
SPLINE
  5
2d6
100
AcDbEntity
  8
0
 62
7
100
AcDbSpline
 70
8
 71
3
 72
8
 73
4
 74
0
 40
0
 40
0
 40
0
 40
0
 40
1
 40
1
 40
1
 40
1
 10
69.366395
 20
89.729145
 30
0.0
 10
69.366395
 20
89.405316
 30
0.0
 10
69.040728
 20
89.644389
 30
0.0
 10
68.316296
 20
90.500019
 30
0.0
  0
LINE
  5
2d7
100
AcDbEntity
  8
0
 62
7
100
AcDbLine
 10
68.316296
 20
90.500019
 30
0.0
 11
68.316296
 21
90.500019
 31
0.0
  0
SPLINE
  5
2d8
100
AcDbEntity
  8
0
 62
7
100
AcDbSpline
 70
8
 71
3
 72
8
 73
4
 74
0
 40
0
 40
0
 40
0
 40
0
 40
1
 40
1
 40
1
 40
1
 10
50.747823
 20
92.051219
 30
0.0
 10
50.745441
 20
92.366517
 30
0.0
 10
50.381325
 20
96.718686
 30
0.0
 10
49.938499
 20
101.722708
 30
0.0
  0
SPLINE
  5
2d9
100
AcDbEntity
  8
0
 62
7
100
AcDbSpline
 70
8
 71
3
 72
8
 73
4
 74
0
 40
0
 40
0
 40
0
 40
0
 40
1
 40
1
 40
1
 40
1
 10
49.938499
 20
101.722708
 30
0.0
 10
49.003176
 20
112.292063
 30
0.0
 10
49.021805
 20
111.845868
 30
0.0
 10
49.515854
 20
111.845868
 30
0.0
  0
SPLINE
  5
2da
100
AcDbEntity
  8
0
 62
7
100
AcDbSpline
 70
8
 71
3
 72
8
 73
4
 74
0
 40
0
 40
0
 40
0
 40
0
 40
1
 40
1
 40
1
 40
1
 10
49.515854
 20
111.845868
 30
0.0
 10
49.726219
 20
111.845868
 30
0.0
 10
49.966543
 20
110.980906
 30
0.0
 10
50.049905
 20
109.923730
 30
0.0
  0
SPLINE
  5
2db
100
AcDbEntity
  8
0
 62
7
100
AcDbSpline
 70
8
 71
3
 72
8
 73
4
 74
0
 40
0
 40
0
 40
0
 40
0
 40
1
 40
1
 40
1
 40
1
 10
50.049905
 20
109.923730
 30
0.0
 10
50.200133
 20
108.018519
 30
0.0
 10
50.202109
 20
108.022040
 30
0.0
 10
50.274406
 20
110.323317
 30
0.0
  0
SPLINE
  5
2dc
100
AcDbEntity
  8
0
 62
7
100
AcDbSpline
 70
8
 71
3
 72
8
 73
4
 74
0
 40
0
 40
0
 40
0
 40
0
 40
1
 40
1
 40
1
 40
1
 10
50.274406
 20
110.323317
 30
0.0
 10
50.345500
 20
112.586292
 30
0.0
 10
50.390863
 20
112.672574
 30
0.0
 10
52.067154
 20
113.733226
 30
0.0
  0
SPLINE
  5
2dd
100
AcDbEntity
  8
0
 62
7
100
AcDbSpline
 70
8
 71
3
 72
8
 73
4
 74
0
 40
0
 40
0
 40
0
 40
0
 40
1
 40
1
 40
1
 40
1
 10
52.067154
 20
113.733226
 30
0.0
 10
54.179765
 20
115.069953
 30
0.0
 10
59.861604
 20
117.754873
 30
0.0
 10
61.374349
 20
118.131280
 30
0.0
  0
LINE
  5
2de
100
AcDbEntity
  8
0
 62
7
100
AcDbLine
 10
61.374349
 20
118.131280
 30
0.0
 11
62.487165
 21
118.408177
 31
0.0
  0
LINE
  5
2df
100
AcDbEntity
  8
0
 62
7
100
AcDbLine
 10
62.487165
 20
118.408177
 30
0.0
 11
62.487165
 21
108.649948
 31
0.0
  0
LINE
  5
2e0
100
AcDbEntity
  8
0
 62
7
100
AcDbLine
 10
62.487165
 20
108.649948
 30
0.0
 11
62.487165
 21
98.891714
 31
0.0
  0
LINE
  5
2e1
100
AcDbEntity
  8
0
 62
7
100
AcDbLine
 10
62.487165
 20
98.891714
 30
0.0
 11
57.732402
 21
95.800467
 31
0.0
  0
SPLINE
  5
2e2
100
AcDbEntity
  8
0
 62
7
100
AcDbSpline
 70
8
 71
3
 72
8
 73
4
 74
0
 40
0
 40
0
 40
0
 40
0
 40
1
 40
1
 40
1
 40
1
 10
57.732402
 20
95.800467
 30
0.0
 10
55.117281
 20
94.100281
 30
0.0
 10
52.704493
 20
92.690153
 30
0.0
 10
52.370650
 20
92.666854
 30
0.0
  0
SPLINE
  5
2e3
100
AcDbEntity
  8
0
 62
7
100
AcDbSpline
 70
8
 71
3
 72
8
 73
4
 74
0
 40
0
 40
0
 40
0
 40
0
 40
1
 40
1
 40
1
 40
1
 10
52.370650
 20
92.666854
 30
0.0
 10
51.873037
 20
92.632132
 30
0.0
 10
51.646229
 20
93.973506
 30
0.0
 10
51.112001
 20
100.110710
 30
0.0
  0
SPLINE
  5
2e4
100
AcDbEntity
  8
0
 62
7
100
AcDbSpline
 70
8
 71
3
 72
8
 73
4
 74
0
 40
0
 40
0
 40
0
 40
0
 40
1
 40
1
 40
1
 40
1
 10
51.112001
 20
100.110710
 30
0.0
 10
50.753588
 20
104.228132
 30
0.0
 10
50.434919
 20
106.837505
 30
0.0
 10
50.403843
 20
105.909319
 30
0.0
  0
SPLINE
  5
2e5
100
AcDbEntity
  8
0
 62
7
100
AcDbSpline
 70
8
 71
3
 72
8
 73
4
 74
0
 40
0
 40
0
 40
0
 40
0
 40
1
 40
1
 40
1
 40
1
 10
50.403843
 20
105.909319
 30
0.0
 10
50.372765
 20
104.981128
 30
0.0
 10
50.541522
 20
101.457485
 30
0.0
 10
50.778842
 20
98.078994
 30
0.0
  0
SPLINE
  5
2e6
100
AcDbEntity
  8
0
 62
7
100
AcDbSpline
 70
8
 71
3
 72
8
 73
4
 74
0
 40
0
 40
0
 40
0
 40
0
 40
1
 40
1
 40
1
 40
1
 10
50.778842
 20
98.078994
 30
0.0
 10
51.016168
 20
94.700506
 30
0.0
 10
51.107217
 20
91.833162
 30
0.0
 10
50.981175
 20
91.707120
 30
0.0
  0
SPLINE
  5
2e7
100
AcDbEntity
  8
0
 62
7
100
AcDbSpline
 70
8
 71
3
 72
8
 73
4
 74
0
 40
0
 40
0
 40
0
 40
0
 40
1
 40
1
 40
1
 40
1
 10
50.981175
 20
91.707120
 30
0.0
 10
50.855135
 20
91.581075
 30
0.0
 10
50.750125
 20
91.735930
 30
0.0
 10
50.747823
 20
92.051219
 30
0.0
  0
LINE
  5
2e8
100
AcDbEntity
  8
0
 62
7
100
AcDbLine
 10
50.747823
 20
92.051219
 30
0.0
 11
50.747823
 21
92.051219
 31
0.0
  0
LINE
  5
2e9
100
AcDbEntity
  8
0
 62
7
100
AcDbLine
 10
75.183508
 20
98.497465
 30
0.0
 11
75.392027
 21
105.573628
 31
0.0
  0
LINE
  5
2ea
100
AcDbEntity
  8
0
 62
7
100
AcDbLine
 10
75.392027
 20
105.573628
 30
0.0
 11
74.848472
 21
98.971748
 31
0.0
  0
SPLINE
  5
2eb
100
AcDbEntity
  8
0
 62
7
100
AcDbSpline
 70
8
 71
3
 72
8
 73
4
 74
0
 40
0
 40
0
 40
0
 40
0
 40
1
 40
1
 40
1
 40
1
 10
74.848472
 20
98.971748
 30
0.0
 10
74.549516
 20
95.340712
 30
0.0
 10
74.240809
 20
92.309457
 30
0.0
 10
74.162455
 20
92.235625
 30
0.0
  0
SPLINE
  5
2ec
100
AcDbEntity
  8
0
 62
7
100
AcDbSpline
 70
8
 71
3
 72
8
 73
4
 74
0
 40
0
 40
0
 40
0
 40
0
 40
1
 40
1
 40
1
 40
1
 10
74.162455
 20
92.235625
 30
0.0
 10
74.084099
 20
92.161796
 30
0.0
 10
71.698253
 20
93.624557
 30
0.0
 10
68.860570
 20
95.486211
 30
0.0
  0
LINE
  5
2ed
100
AcDbEntity
  8
0
 62
7
100
AcDbLine
 10
68.860570
 20
95.486211
 30
0.0
 11
63.701148
 21
98.871040
 31
0.0
  0
LINE
  5
2ee
100
AcDbEntity
  8
0
 62
7
100
AcDbLine
 10
63.701148
 20
98.871040
 30
0.0
 11
63.701148
 21
108.595739
 31
0.0
  0
SPLINE
  5
2ef
100
AcDbEntity
  8
0
 62
7
100
AcDbSpline
 70
8
 71
3
 72
8
 73
4
 74
0
 40
0
 40
0
 40
0
 40
0
 40
1
 40
1
 40
1
 40
1
 10
63.701148
 20
108.595739
 30
0.0
 10
63.701148
 20
114.556423
 30
0.0
 10
63.851899
 20
118.320438
 30
0.0
 10
64.090628
 20
118.320438
 30
0.0
  0
SPLINE
  5
2f0
100
AcDbEntity
  8
0
 62
7
100
AcDbSpline
 70
8
 71
3
 72
8
 73
4
 74
0
 40
0
 40
0
 40
0
 40
0
 40
1
 40
1
 40
1
 40
1
 10
64.090628
 20
118.320438
 30
0.0
 10
64.899477
 20
118.320438
 30
0.0
 10
69.124003
 20
116.565899
 30
0.0
 10
71.325698
 20
115.315550
 30
0.0
  0
SPLINE
  5
2f1
100
AcDbEntity
  8
0
 62
7
100
AcDbSpline
 70
8
 71
3
 72
8
 73
4
 74
0
 40
0
 40
0
 40
0
 40
0
 40
1
 40
1
 40
1
 40
1
 10
71.325698
 20
115.315550
 30
0.0
 10
75.777969
 20
112.787097
 30
0.0
 10
75.427362
 20
113.297690
 30
0.0
 10
75.511692
 20
109.219402
 30
0.0
  0
LINE
  5
2f2
100
AcDbEntity
  8
0
 62
7
100
AcDbLine
 10
75.511692
 20
109.219402
 30
0.0
 11
75.587085
 21
105.573628
 31
0.0
  0
LINE
  5
2f3
100
AcDbEntity
  8
0
 62
7
100
AcDbLine
 10
75.587085
 20
105.573628
 30
0.0
 11
75.823623
 21
109.013244
 31
0.0
  0
SPLINE
  5
2f4
100
AcDbEntity
  8
0
 62
7
100
AcDbSpline
 70
8
 71
3
 72
8
 73
4
 74
0
 40
0
 40
0
 40
0
 40
0
 40
1
 40
1
 40
1
 40
1
 10
75.823623
 20
109.013244
 30
0.0
 10
75.985762
 20
111.370983
 30
0.0
 10
76.169610
 20
112.222235
 30
0.0
 10
76.408138
 20
111.719634
 30
0.0
  0
SPLINE
  5
2f5
100
AcDbEntity
  8
0
 62
7
100
AcDbSpline
 70
8
 71
3
 72
8
 73
4
 74
0
 40
0
 40
0
 40
0
 40
0
 40
1
 40
1
 40
1
 40
1
 10
76.408138
 20
111.719634
 30
0.0
 10
76.748024
 20
111.003462
 30
0.0
 10
75.582508
 20
92.028816
 30
0.0
 10
75.173510
 20
91.619818
 30
0.0
  0
SPLINE
  5
2f6
100
AcDbEntity
  8
0
 62
7
100
AcDbSpline
 70
8
 71
3
 72
8
 73
4
 74
0
 40
0
 40
0
 40
0
 40
0
 40
1
 40
1
 40
1
 40
1
 10
75.173510
 20
91.619818
 30
0.0
 10
75.064324
 20
91.510632
 30
0.0
 10
75.068825
 20
94.605573
 30
0.0
 10
75.183511
 20
98.497465
 30
0.0
  0
LINE
  5
2f7
100
AcDbEntity
  8
0
 62
7
100
AcDbLine
 10
75.183511
 20
98.497465
 30
0.0
 11
75.183508
 21
98.497465
 31
0.0
  0
SPLINE
  5
2f8
100
AcDbEntity
  8
0
 62
7
100
AcDbSpline
 70
8
 71
3
 72
8
 73
4
 74
0
 40
0
 40
0
 40
0
 40
0
 40
1
 40
1
 40
1
 40
1
 10
65.093636
 20
92.646814
 30
0.0
 10
64.339341
 20
93.251130
 30
0.0
 10
64.344302
 20
93.258600
 30
0.0
 10
65.218623
 20
92.834904
 30
0.0
  0
SPLINE
  5
2f9
100
AcDbEntity
  8
0
 62
7
100
AcDbSpline
 70
8
 71
3
 72
8
 73
4
 74
0
 40
0
 40
0
 40
0
 40
0
 40
1
 40
1
 40
1
 40
1
 10
65.218623
 20
92.834904
 30
0.0
 10
65.719392
 20
92.592233
 30
0.0
 10
66.129110
 20
92.309044
 30
0.0
 10
66.129110
 20
92.205592
 30
0.0
  0
SPLINE
  5
2fa
100
AcDbEntity
  8
0
 62
7
100
AcDbSpline
 70
8
 71
3
 72
8
 73
4
 74
0
 40
0
 40
0
 40
0
 40
0
 40
1
 40
1
 40
1
 40
1
 10
66.129110
 20
92.205592
 30
0.0
 10
66.129110
 20
91.895937
 30
0.0
 10
65.919250
 20
91.985358
 30
0.0
 10
65.093636
 20
92.646814
 30
0.0
  0
LINE
  5
2fb
100
AcDbEntity
  8
0
 62
7
100
AcDbLine
 10
65.093636
 20
92.646814
 30
0.0
 11
65.093636
 21
92.646814
 31
0.0
  0
SPLINE
  5
2fc
100
AcDbEntity
  8
0
 62
7
100
AcDbSpline
 70
8
 71
3
 72
8
 73
4
 74
0
 40
0
 40
0
 40
0
 40
0
 40
1
 40
1
 40
1
 40
1
 10
61.856351
 20
93.411484
 30
0.0
 10
62.756082
 20
94.132318
 30
0.0
 10
63.542321
 20
94.220506
 30
0.0
 10
63.900612
 20
93.640774
 30
0.0
  0
SPLINE
  5
2fd
100
AcDbEntity
  8
0
 62
7
100
AcDbSpline
 70
8
 71
3
 72
8
 73
4
 74
0
 40
0
 40
0
 40
0
 40
0
 40
1
 40
1
 40
1
 40
1
 10
63.900612
 20
93.640774
 30
0.0
 10
64.039560
 20
93.415953
 30
0.0
 10
63.886642
 20
93.340985
 30
0.0
 10
63.551454
 20
93.469605
 30
0.0
  0
SPLINE
  5
2fe
100
AcDbEntity
  8
0
 62
7
100
AcDbSpline
 70
8
 71
3
 72
8
 73
4
 74
0
 40
0
 40
0
 40
0
 40
0
 40
1
 40
1
 40
1
 40
1
 10
63.551454
 20
93.469605
 30
0.0
 10
63.223440
 20
93.595474
 30
0.0
 10
62.531118
 20
93.492306
 30
0.0
 10
62.012958
 20
93.240317
 30
0.0
  0
SPLINE
  5
2ff
100
AcDbEntity
  8
0
 62
7
100
AcDbSpline
 70
8
 71
3
 72
8
 73
4
 74
0
 40
0
 40
0
 40
0
 40
0
 40
1
 40
1
 40
1
 40
1
 10
62.012958
 20
93.240317
 30
0.0
 10
61.114340
 20
92.803320
 30
0.0
 10
61.107115
 20
92.811224
 30
0.0
 10
61.856351
 20
93.411484
 30
0.0
  0
LINE
  5
300
100
AcDbEntity
  8
0
 62
7
100
AcDbLine
 10
61.856351
 20
93.411484
 30
0.0
 11
61.856351
 21
93.411484
 31
0.0
  0
SPLINE
  5
301
100
AcDbEntity
  8
0
 62
7
100
AcDbSpline
 70
8
 71
3
 72
8
 73
4
 74
0
 40
0
 40
0
 40
0
 40
0
 40
1
 40
1
 40
1
 40
1
 10
63.094156
 20
97.682746
 30
0.0
 10
62.434394
 20
97.966255
 30
0.0
 10
62.411285
 20
98.035780
 30
0.0
 10
62.969106
 20
98.058967
 30
0.0
  0
SPLINE
  5
302
100
AcDbEntity
  8
0
 62
7
100
AcDbSpline
 70
8
 71
3
 72
8
 73
4
 74
0
 40
0
 40
0
 40
0
 40
0
 40
1
 40
1
 40
1
 40
1
 10
62.969106
 20
98.058967
 30
0.0
 10
63.345458
 20
98.074628
 30
0.0
 10
63.765926
 20
97.905309
 30
0.0
 10
63.903477
 20
97.682746
 30
0.0
  0
SPLINE
  5
303
100
AcDbEntity
  8
0
 62
7
100
AcDbSpline
 70
8
 71
3
 72
8
 73
4
 74
0
 40
0
 40
0
 40
0
 40
0
 40
1
 40
1
 40
1
 40
1
 10
63.903477
 20
97.682746
 30
0.0
 10
64.191053
 20
97.217435
 30
0.0
 10
64.176990
 20
97.217435
 30
0.0
 10
63.094156
 20
97.682746
 30
0.0
  0
LINE
  5
304
100
AcDbEntity
  8
0
 62
7
100
AcDbLine
 10
63.094156
 20
97.682746
 30
0.0
 11
63.094156
 21
97.682746
 31
0.0
  0
ENDSEC
  0
SECTION
  2
OBJECTS
  0
DICTIONARY
  5
C
330
0
100
AcDbDictionary
  3
ACAD_GROUP
350
D
  3
ACAD_MLINESTYLE
350
17
  0
DICTIONARY
  5
D
330
C
100
AcDbDictionary
  0
DICTIONARY
  5
1A
330
C
100
AcDbDictionary
  0
DICTIONARY
  5
17
330
C
100
AcDbDictionary
  3
STANDARD
350
18
  0
DICTIONARY
  5
19
330
C
100
AcDbDictionary
  0
ENDSEC
  0
EOF
